M48
INCH
T01C0.0138
T02C0.0191
T03C0.0354
T04C0.0433
T05C0.1181
%
T01
X+018501Y+010438
X+017625Y+010125
X+018501Y+009500
X+018375Y+008750
X+019375Y+008062
X+016501Y+009125
X+016188Y+009748
X+015437Y+009000
X+015567Y+007875
X+015252Y+007563
X+014313Y+006813
X+011125Y+007563
X+010500Y+009250
X+014375Y+010187
X+014622Y+012126
X+014937Y+012313
X+015252Y+012126
X+015882Y+012124
T02
X+012688Y+008313
X+012875Y+009750
X+012937Y+010749
X+009937Y+009000
X+011125Y+007000
X+007500Y+012813
X+020000Y+007249
T03
X+016312Y+013062
X+017312Y+013062
X+018312Y+013062
X+019312Y+013062
X+020312Y+013062
X+020314Y+012063
X+021312Y+013062
X+019314Y+010938
X+019314Y+009001
X+019375Y+005999
X+019375Y+004999
X+018375Y+004999
X+018375Y+005999
X+017375Y+005999
X+017375Y+004999
X+016375Y+004999
X+016375Y+005999
X+015375Y+005999
X+015375Y+004999
X+014375Y+004999
X+014375Y+005999
X+013375Y+005999
X+013375Y+004999
X+012375Y+004999
X+012375Y+005999
X+011375Y+005999
X+011375Y+004999
X+010375Y+004999
X+010375Y+005999
X+009375Y+005999
X+009375Y+004999
X+008875Y+011249
X+009875Y+011249
X+009875Y+012249
X+008875Y+012249
X+010875Y+012249
X+010875Y+011249
X+020375Y+005999
X+020375Y+004999
T04
X+022314Y+012313
X+022314Y+011313
X+022312Y+009312
X+022312Y+008312
X+022312Y+006124
X+022312Y+005124
X+008125Y+005687
X+008125Y+006687
X+008125Y+007687
X+007125Y+009500
X+005312Y+009937
X+005312Y+010937
X+005312Y+011937
X+005937Y+004749
X+007000Y+004750
T05
X+008938Y+009438
X+020751Y+009438
T00
M30
