G04 DipTrace 3.0.0.2*
G04 TopMask.gbr*
%MOIN*%
G04 #@! TF.FileFunction,Soldermask,Top*
G04 #@! TF.Part,Single*
%AMOUTLINE1*
4,1,4,
0.031496,-0.011811,
-0.031496,-0.011811,
-0.031496,0.011811,
0.031496,0.011811,
0.031496,-0.011811,
0*%
%AMOUTLINE4*
4,1,4,
0.011811,0.031496,
0.011811,-0.031496,
-0.011811,-0.031496,
-0.011811,0.031496,
0.011811,0.031496,
0*%
%ADD27C,0.066929*%
%ADD28C,0.066929*%
%ADD30R,0.066929X0.066929*%
%ADD31C,0.055118*%
%ADD33C,0.086614*%
%ADD36R,0.074803X0.074803*%
%ADD38C,0.074803*%
%ADD50C,0.11811*%
%ADD57R,0.062992X0.023622*%
%ADD64C,0.082677*%
%ADD65R,0.082677X0.082677*%
%ADD67R,0.066929X0.059055*%
%ADD69R,0.051181X0.047244*%
%ADD71R,0.07874X0.070866*%
%ADD73R,0.047244X0.051181*%
%ADD83OUTLINE1*%
%ADD86OUTLINE4*%
%FSLAX26Y26*%
G04*
G70*
G90*
G75*
G01*
G04 TopMask*
%LPD*%
D73*
X1806348Y1031287D3*
Y964358D3*
D71*
X662479Y1088579D3*
Y1198815D3*
D69*
X1025017Y1031287D3*
X1091946D3*
D67*
X749988Y1112546D3*
Y1187349D3*
X993718Y849923D3*
Y775119D3*
D38*
X2231399Y1231298D3*
D36*
Y1131298D3*
X2231224Y512423D3*
D38*
Y612423D3*
D31*
X468701Y468720D3*
X2303150Y1318917D3*
X1543701Y993720D3*
D50*
X893762Y943778D3*
X2075122D3*
D36*
X812487Y568739D3*
D38*
Y668739D3*
Y768739D3*
D33*
X593723Y474924D3*
X699972Y474979D3*
D28*
X1631223Y1306173D3*
X1731223D3*
X1831223D3*
X1931223D3*
X2031223D3*
X2131224D3*
D33*
X712484Y950029D3*
D30*
X2031373Y1206306D3*
D73*
X918723Y722610D3*
Y789539D3*
D69*
X2053912Y724924D3*
X2120841D3*
D73*
X2112476Y1133283D3*
Y1066354D3*
X1112526Y912525D3*
Y979454D3*
X1187534Y843768D3*
Y910697D3*
D69*
X637476Y1325068D3*
X704406D3*
D36*
X2231224Y831173D3*
D38*
Y931173D3*
D65*
X531220Y993673D3*
D64*
Y1093673D3*
Y1193673D3*
D30*
X2037474Y599921D3*
D27*
Y499921D3*
X1937474Y599921D3*
Y499921D3*
X1837474Y599921D3*
Y499921D3*
X1737474Y599921D3*
Y499921D3*
X1637474Y599921D3*
Y499921D3*
X1537474Y599921D3*
Y499921D3*
X1437474Y599921D3*
Y499921D3*
X1337474Y599921D3*
Y499921D3*
X1237474Y599921D3*
Y499921D3*
X1137474Y599921D3*
Y499921D3*
X1037474Y599921D3*
Y499921D3*
X937474Y599921D3*
Y499921D3*
D83*
X1718146Y887522D3*
Y919018D3*
Y950514D3*
Y982010D3*
Y1013507D3*
Y1045003D3*
Y1076499D3*
Y1107995D3*
X1363815Y887522D3*
Y919018D3*
Y950514D3*
Y982010D3*
Y1013507D3*
Y1045003D3*
Y1076499D3*
Y1107995D3*
D86*
X1651217Y1174924D3*
X1619720D3*
X1588224D3*
X1556728D3*
X1525232D3*
X1493736D3*
X1462240D3*
X1430744D3*
X1651217Y820593D3*
X1619720D3*
X1588224D3*
X1556728D3*
X1525232D3*
X1493736D3*
X1462240D3*
X1430744D3*
D27*
X1931354Y1093794D3*
Y900054D3*
D57*
X1368803Y693752D3*
Y719342D3*
Y744933D3*
Y770524D3*
X1195575D3*
Y744933D3*
Y719342D3*
Y693752D3*
D27*
X887476Y1124924D3*
X987476D3*
X1087476D3*
Y1224924D3*
X987476D3*
X887476D3*
M02*
