G04 DipTrace 3.0.0.2*
G04 BottomSilk.gbr*
%MOIN*%
G04 #@! TF.FileFunction,Legend,Bot*
G04 #@! TF.Part,Single*
%ADD12C,0.002992*%
%ADD40C,0.006*%
%ADD75C,0.00772*%
%ADD76C,0.006176*%
%ADD78C,0.004632*%
%FSLAX26Y26*%
G04*
G70*
G90*
G75*
G01*
G04 BotSilk*
%LPD*%
X1233785Y690007D2*
D40*
Y800013D1*
X1153785Y690007D2*
G03X1163785Y680010I9992J-5D01*
G01*
Y810010D2*
G03X1153785Y800013I-8J-9992D01*
G01*
X1223785Y810010D2*
G02X1233785Y800013I8J-9992D01*
G01*
Y690007D2*
G02X1223785Y680010I-9992J-5D01*
G01*
X1163785D1*
X1223785Y810010D2*
X1163785D1*
X1153785Y800013D2*
Y690007D1*
X1027475Y674918D2*
Y784924D1*
X947475Y674918D2*
G03X957475Y664921I9992J-5D01*
G01*
Y794921D2*
G03X947475Y784924I-8J-9992D01*
G01*
X1017475Y794921D2*
G02X1027475Y784924I8J-9992D01*
G01*
Y674918D2*
G02X1017475Y664921I-9992J-5D01*
G01*
X957475D1*
X1017475Y794921D2*
X957475D1*
X947475Y784924D2*
Y674918D1*
G36*
X1118777Y1087543D2*
X1250041D1*
Y956279D1*
X1118777D1*
Y1087543D1*
G37*
X1661375Y994050D2*
D12*
X1697281D1*
X1659994Y991058D2*
X1698662D1*
X1659123Y988066D2*
X1699533D1*
X1658583Y985073D2*
X1700073D1*
X1658009Y982081D2*
X1700647D1*
X1657214Y979089D2*
X1701442D1*
X1656417Y976097D2*
X1702239D1*
X1655873Y973105D2*
X1702783D1*
X1592556Y970113D2*
X1595549D1*
X1655452D2*
X1703204D1*
X1763108D2*
D3*
X1589564Y967121D2*
X1601059D1*
X1654942D2*
X1703714D1*
X1757597D2*
X1769092D1*
X1586572Y964129D2*
X1606187D1*
X1653031D2*
X1705626D1*
X1752470D2*
X1772084D1*
X1583580Y961136D2*
X1610926D1*
X1648097D2*
X1710559D1*
X1747730D2*
X1775076D1*
X1580588Y958144D2*
X1615318D1*
X1641650D2*
X1717006D1*
X1743338D2*
X1778068D1*
X1577607Y955152D2*
X1619486D1*
X1634446D2*
X1724210D1*
X1739171D2*
X1781049D1*
X1574744Y952160D2*
X1589690D1*
X1610509D2*
X1748939D1*
X1772084D2*
X1783912D1*
X1572367Y949168D2*
X1587198D1*
X1592556D2*
X1601533D1*
X1610509D2*
X1756708D1*
X1772084D2*
X1786289D1*
X1570589Y946176D2*
X1585433D1*
X1592568D2*
X1601533D1*
X1610509D2*
X1763108D1*
X1772084D2*
X1788067D1*
X1570807Y943184D2*
X1584254D1*
X1592682D2*
X1601509D1*
X1610509D2*
X1754131D1*
X1772084D2*
X1787850D1*
X1572551Y940192D2*
X1584439D1*
X1593144D2*
X1601282D1*
X1610509D2*
X1758275D1*
X1772084D2*
X1786105D1*
X1574551Y937199D2*
X1585297D1*
X1594167D2*
X1600738D1*
X1610509D2*
X1761346D1*
X1772084D2*
X1784105D1*
X1576554Y934207D2*
X1586572D1*
X1595549D2*
X1598406D1*
X1610509D2*
X1762355D1*
X1772084D2*
X1782102D1*
X1578658Y931215D2*
X1595549D1*
X1610509D2*
X1763108D1*
X1772084D2*
X1779998D1*
X1580982Y928223D2*
X1777675D1*
X1583298Y925231D2*
X1775358D1*
X1585416Y922239D2*
X1773240D1*
X1587462Y919247D2*
X1771194D1*
X1589564Y916255D2*
X1769092D1*
X1587709Y913262D2*
X1770947D1*
X1586003Y910270D2*
X1772654D1*
X1584400Y907278D2*
X1774256D1*
X1582803Y904286D2*
X1775853D1*
X1580702Y901294D2*
X1664493D1*
X1694163D2*
X1777954D1*
X1577802Y898302D2*
X1659021D1*
X1699635D2*
X1780854D1*
X1569935Y895310D2*
X1654357D1*
X1704299D2*
X1788721D1*
X1560549Y892318D2*
X1650748D1*
X1707908D2*
X1798107D1*
X1552233Y889325D2*
X1648090D1*
X1710567D2*
X1806423D1*
X1545814Y886333D2*
X1646047D1*
X1712609D2*
X1812842D1*
X1543278Y883341D2*
X1644326D1*
X1714330D2*
X1815378D1*
X1542419Y880349D2*
X1550667D1*
X1571612D2*
X1642845D1*
X1715811D2*
X1793629D1*
X1810982D2*
X1816237D1*
X1541984Y877357D2*
X1550655D1*
X1556651D2*
X1565627D1*
X1571612D2*
X1641706D1*
X1716951D2*
X1791641D1*
X1796021D2*
X1804997D1*
X1810982D2*
X1816672D1*
X1541800Y874365D2*
X1550541D1*
X1556651D2*
X1565627D1*
X1571612D2*
X1641022D1*
X1717635D2*
X1791212D1*
X1796021D2*
X1803455D1*
X1810982D2*
X1816856D1*
X1541729Y871373D2*
X1550079D1*
X1571612D2*
X1640691D1*
X1717965D2*
X1792868D1*
X1796021D2*
X1798762D1*
X1810982D2*
X1816927D1*
X1541704Y868381D2*
X1549056D1*
X1556651D2*
X1565627D1*
X1571612D2*
X1640645D1*
X1718012D2*
X1796833D1*
X1810982D2*
X1816953D1*
X1541695Y865388D2*
X1547675D1*
X1553659D2*
X1564084D1*
X1571612D2*
X1640976D1*
X1717680D2*
X1798597D1*
X1810982D2*
X1816962D1*
X1541738Y862396D2*
X1550667D1*
X1556651D2*
X1559392D1*
X1571612D2*
X1641787D1*
X1716870D2*
X1802797D1*
X1810982D2*
X1816918D1*
X1541983Y859404D2*
X1553659D1*
X1571612D2*
X1643044D1*
X1715613D2*
X1804997D1*
X1810982D2*
X1816673D1*
X1542438Y856412D2*
X1644777D1*
X1713879D2*
X1816218D1*
X1549154Y853420D2*
X1647036D1*
X1711620D2*
X1809502D1*
X1557828Y850428D2*
X1649678D1*
X1708978D2*
X1800828D1*
X1566480Y847436D2*
X1652605D1*
X1706051D2*
X1792176D1*
X1573118Y844444D2*
X1655786D1*
X1702870D2*
X1785538D1*
X1578105Y841451D2*
X1658868D1*
X1699789D2*
X1780551D1*
X1580427Y838459D2*
X1661513D1*
X1697143D2*
X1778229D1*
X1582113Y835467D2*
X1662147D1*
X1696509D2*
X1776544D1*
X1583370Y832475D2*
X1661441D1*
X1697215D2*
X1775286D1*
X1584493Y829483D2*
X1660448D1*
X1698208D2*
X1774164D1*
X1585333Y826491D2*
X1659414D1*
X1699242D2*
X1773323D1*
X1585792Y823499D2*
X1658419D1*
X1700237D2*
X1772865D1*
X1585068Y820507D2*
X1657285D1*
X1701372D2*
X1773588D1*
X1583891Y817514D2*
X1655983D1*
X1702673D2*
X1774765D1*
X1582198Y814522D2*
X1654582D1*
X1704074D2*
X1776458D1*
X1579968Y811530D2*
X1653122D1*
X1705534D2*
X1778688D1*
X1577450Y808538D2*
X1651644D1*
X1707013D2*
X1781207D1*
X1575011Y805546D2*
X1650151D1*
X1708505D2*
X1763108D1*
X1771935D2*
X1783645D1*
X1572929Y802554D2*
X1648659D1*
X1709997D2*
X1766100D1*
X1771581D2*
X1785727D1*
X1571343Y799562D2*
X1647161D1*
X1711495D2*
X1762084D1*
X1769461D2*
X1787313D1*
X1570191Y796570D2*
X1645668D1*
X1712988D2*
X1758194D1*
X1766477D2*
X1788466D1*
X1570655Y793577D2*
X1644169D1*
X1714487D2*
X1754588D1*
X1763613D2*
X1788001D1*
X1572607Y790585D2*
X1642666D1*
X1715990D2*
X1751139D1*
X1761614D2*
X1786049D1*
X1575138Y787593D2*
X1641090D1*
X1717566D2*
X1754131D1*
X1760115D2*
X1783518D1*
X1578257Y784601D2*
X1619600D1*
X1631454D2*
X1639345D1*
X1719312D2*
X1727202D1*
X1739057D2*
X1760115D1*
X1769092D2*
X1780399D1*
X1581863Y781609D2*
X1614001D1*
X1637438D2*
D3*
X1721218D2*
D3*
X1744655D2*
X1776793D1*
X1585591Y778617D2*
X1608759D1*
X1749897D2*
X1773065D1*
X1589136Y775625D2*
X1603666D1*
X1754991D2*
X1769520D1*
X1592556Y772632D2*
X1598541D1*
X1760115D2*
X1766100D1*
X1508777Y745703D2*
X1523738D1*
X1538698D2*
X1553659D1*
X1565627D2*
X1586572D1*
X1595549D2*
X1604525D1*
X1619486D2*
X1625470D1*
X1640430D2*
X1655391D1*
X1673344D2*
X1691297D1*
X1724210D2*
X1748147D1*
X1763108D2*
X1778068D1*
X1796021D2*
X1819958D1*
X1834919D2*
X1849879D1*
X1506373Y742711D2*
X1526256D1*
X1537306D2*
X1586572D1*
X1595549D2*
X1604525D1*
X1619486D2*
X1625470D1*
X1637912D2*
X1657795D1*
X1670165D2*
X1693689D1*
X1722366D2*
X1748147D1*
X1760590D2*
X1780472D1*
X1794177D2*
X1819958D1*
X1832401D2*
X1852283D1*
X1504623Y739719D2*
X1528389D1*
X1536381D2*
X1586572D1*
X1595549D2*
X1604525D1*
X1619486D2*
X1625470D1*
X1635779D2*
X1659545D1*
X1667360D2*
X1695677D1*
X1720765D2*
X1748147D1*
X1758456D2*
X1782222D1*
X1792576D2*
X1819958D1*
X1830267D2*
X1854033D1*
X1503621Y736727D2*
X1511769D1*
X1520745D2*
X1530108D1*
X1535706D2*
X1543454D1*
X1553071D2*
X1562635D1*
X1577008D2*
X1586572D1*
X1595549D2*
X1604525D1*
X1619486D2*
X1625470D1*
X1634060D2*
X1644011D1*
X1651811D2*
X1660547D1*
X1673344D2*
D3*
X1688567D2*
X1696292D1*
X1719556D2*
X1730782D1*
X1738583D2*
X1748147D1*
X1756736D2*
X1766100D1*
X1775076D2*
X1783224D1*
X1791367D2*
X1799013D1*
X1810394D2*
X1819958D1*
X1828548D2*
X1838499D1*
X1846299D2*
X1855035D1*
X1503134Y733735D2*
X1508777D1*
X1523738D2*
X1537386D1*
X1554809D2*
X1562635D1*
X1578758D2*
X1586572D1*
X1595549D2*
X1604537D1*
X1619474D2*
X1625470D1*
X1632818D2*
X1642272D1*
X1653549D2*
X1661033D1*
X1680709D2*
X1695665D1*
X1718839D2*
X1729032D1*
X1740332D2*
X1748147D1*
X1755475D2*
X1763108D1*
X1778068D2*
X1783710D1*
X1790650D2*
X1799013D1*
X1812132D2*
X1819958D1*
X1827306D2*
X1836761D1*
X1848037D2*
X1855521D1*
X1502916Y730743D2*
X1534880D1*
X1555978D2*
X1562635D1*
X1579760D2*
X1586572D1*
X1595549D2*
X1604651D1*
X1619360D2*
X1625470D1*
X1632191D2*
X1641103D1*
X1654718D2*
X1661243D1*
X1674661D2*
X1693284D1*
X1718483D2*
X1728030D1*
X1741335D2*
X1748147D1*
X1754690D2*
X1783920D1*
X1790305D2*
X1799013D1*
X1813301D2*
X1819958D1*
X1826680D2*
X1835591D1*
X1849206D2*
X1855731D1*
X1502793Y727751D2*
X1533180D1*
X1555792D2*
X1562623D1*
X1580246D2*
X1586572D1*
X1595549D2*
X1605113D1*
X1618898D2*
X1625458D1*
X1632223D2*
X1641290D1*
X1654532D2*
X1661315D1*
X1670173D2*
X1688114D1*
X1718326D2*
X1727544D1*
X1741820D2*
X1748147D1*
X1754131D2*
X1783992D1*
X1790254D2*
X1799013D1*
X1813115D2*
X1819958D1*
X1826711D2*
X1835778D1*
X1849020D2*
X1855803D1*
X1523738Y724758D2*
X1531754D1*
X1554934D2*
X1562495D1*
X1580456D2*
X1586572D1*
X1595549D2*
X1606136D1*
X1617875D2*
X1625341D1*
X1632898D2*
X1642147D1*
X1653674D2*
X1661230D1*
X1668494D2*
X1682237D1*
X1718263D2*
X1727334D1*
X1742031D2*
X1748147D1*
X1778068D2*
X1783907D1*
X1790584D2*
X1799013D1*
X1812257D2*
X1819958D1*
X1827387D2*
X1836636D1*
X1848162D2*
X1855718D1*
X1505785Y721766D2*
X1508777D1*
X1520745D2*
X1530248D1*
X1535706D2*
X1541690D1*
X1553659D2*
X1562179D1*
X1580540D2*
X1586572D1*
X1595549D2*
X1607517D1*
X1616493D2*
X1624844D1*
X1634099D2*
X1643423D1*
X1652399D2*
X1660744D1*
X1668159D2*
X1676336D1*
X1691297D2*
X1697281D1*
X1718239D2*
X1727250D1*
X1742114D2*
X1748147D1*
X1760115D2*
X1763108D1*
X1775076D2*
X1783421D1*
X1791391D2*
X1799013D1*
X1810982D2*
X1819958D1*
X1828588D2*
X1837911D1*
X1846887D2*
X1855232D1*
X1504607Y718774D2*
X1528428D1*
X1536256D2*
X1560680D1*
X1580571D2*
X1586572D1*
X1595549D2*
X1623640D1*
X1635804D2*
X1659543D1*
X1669310D2*
X1696509D1*
X1718230D2*
X1727219D1*
X1742146D2*
X1748147D1*
X1758938D2*
X1782220D1*
X1792619D2*
X1819958D1*
X1830292D2*
X1854031D1*
X1504984Y715782D2*
X1526187D1*
X1537306D2*
X1557396D1*
X1580582D2*
X1586572D1*
X1595549D2*
X1621726D1*
X1638001D2*
X1657631D1*
X1671154D2*
X1694163D1*
X1718227D2*
X1727208D1*
X1742157D2*
X1748147D1*
X1759314D2*
X1780308D1*
X1794206D2*
X1819958D1*
X1832490D2*
X1852119D1*
X1505785Y712790D2*
X1523738D1*
X1538698D2*
X1553659D1*
X1580588D2*
X1586572D1*
X1595549D2*
X1619486D1*
X1640430D2*
X1655391D1*
X1673344D2*
X1691297D1*
X1718226D2*
X1727202D1*
X1742163D2*
X1748147D1*
X1760115D2*
X1778068D1*
X1796021D2*
X1807990D1*
X1813974D2*
X1819958D1*
X1834919D2*
X1849879D1*
X1813974Y709798D2*
X1819958D1*
X1694289Y706806D2*
X1700273D1*
X1813974D2*
X1819958D1*
X1694289Y703814D2*
X1700273D1*
X1813974D2*
X1819958D1*
X1694289Y700821D2*
X1700273D1*
X1813974D2*
X1819958D1*
X1694289Y697829D2*
X1700273D1*
X1813974D2*
X1819958D1*
X1556651Y694837D2*
D3*
X1580588D2*
D3*
X1619486D2*
X1622478D1*
X1694289D2*
X1700273D1*
X1709249D2*
D3*
X1730194D2*
D3*
X1772084D2*
D3*
X1802005D2*
D3*
X1813974D2*
X1819958D1*
X1551022Y691845D2*
X1565627D1*
X1571612D2*
X1595549D1*
X1614319D2*
X1626654D1*
X1637438D2*
X1643423D1*
X1658383D2*
X1664367D1*
X1679328D2*
X1688304D1*
X1694289D2*
X1718226D1*
X1724210D2*
X1748147D1*
X1765536D2*
X1781060D1*
X1797758D2*
X1819958D1*
X1546812Y688853D2*
X1568031D1*
X1575865D2*
X1595549D1*
X1610251D2*
X1629429D1*
X1637912D2*
X1644927D1*
X1657360D2*
X1665863D1*
X1678866D2*
X1687168D1*
X1694289D2*
X1748147D1*
X1760445D2*
X1784052D1*
X1794407D2*
X1819958D1*
X1543689Y685861D2*
X1553659D1*
X1559643D2*
X1569781D1*
X1580582D2*
X1595549D1*
X1608829D2*
X1616493D1*
X1625470D2*
X1631454D1*
X1638759D2*
X1646254D1*
X1656462D2*
X1667108D1*
X1678123D2*
X1685894D1*
X1694289D2*
X1721218D1*
X1724850D2*
X1748147D1*
X1758407D2*
X1766100D1*
X1775076D2*
X1781060D1*
X1791816D2*
X1819958D1*
X1542650Y682869D2*
X1550667D1*
X1562635D2*
X1570783D1*
X1584683D2*
X1595549D1*
X1608070D2*
X1613501D1*
X1639915D2*
X1647734D1*
X1655848D2*
X1668286D1*
X1677341D2*
X1684597D1*
X1694289D2*
X1700273D1*
X1715234D2*
X1721218D1*
X1732941D2*
X1748147D1*
X1757714D2*
X1763108D1*
X1790897D2*
X1799013D1*
X1810394D2*
X1819958D1*
X1542094Y679877D2*
X1571269D1*
X1587749D2*
X1595549D1*
X1607731D2*
X1622453D1*
X1641168D2*
X1649407D1*
X1655391D2*
X1669377D1*
X1676772D2*
X1683432D1*
X1694289D2*
X1700273D1*
X1715234D2*
X1721218D1*
X1736666D2*
X1748147D1*
X1757362D2*
X1772059D1*
X1790402D2*
X1799013D1*
X1812143D2*
X1819958D1*
X1541838Y676884D2*
X1571468D1*
X1588709D2*
X1595549D1*
X1607595D2*
X1629567D1*
X1642318D2*
X1670352D1*
X1676336D2*
X1682397D1*
X1694289D2*
X1700273D1*
X1715234D2*
X1721218D1*
X1738004D2*
X1748147D1*
X1757213D2*
X1779173D1*
X1790179D2*
X1799013D1*
X1813146D2*
X1819958D1*
X1541690Y673892D2*
X1571435D1*
X1589210D2*
X1595549D1*
X1607544D2*
X1632536D1*
X1643349D2*
X1658269D1*
X1663791D2*
X1681337D1*
X1694289D2*
X1700273D1*
X1715234D2*
X1721206D1*
X1738693D2*
X1748147D1*
X1757155D2*
X1782142D1*
X1790089D2*
X1799013D1*
X1813632D2*
X1819958D1*
X1562635Y670900D2*
X1570956D1*
X1589429D2*
X1595549D1*
X1607526D2*
X1613501D1*
X1628462D2*
X1633709D1*
X1644407D2*
X1657886D1*
X1665646D2*
X1680317D1*
X1694289D2*
X1700273D1*
X1715234D2*
X1721078D1*
X1738990D2*
X1748147D1*
X1757134D2*
X1763108D1*
X1778068D2*
X1783315D1*
X1790055D2*
X1799013D1*
X1813842D2*
X1819958D1*
X1544682Y667908D2*
X1550667D1*
X1559643D2*
X1570002D1*
X1589516D2*
X1595549D1*
X1607520D2*
X1616493D1*
X1625470D2*
X1633754D1*
X1645435D2*
X1657168D1*
X1667032D2*
X1679351D1*
X1694289D2*
X1720762D1*
X1739106D2*
X1748147D1*
X1757127D2*
X1766100D1*
X1775076D2*
X1783360D1*
X1790043D2*
X1799013D1*
X1813925D2*
X1819958D1*
X1541690Y664916D2*
X1567292D1*
X1589547D2*
X1595549D1*
X1607518D2*
X1632414D1*
X1646482D2*
X1656393D1*
X1668260D2*
X1678309D1*
X1694289D2*
X1719263D1*
X1739148D2*
X1748147D1*
X1757125D2*
X1782020D1*
X1790039D2*
X1799013D1*
X1813957D2*
X1819958D1*
X1546085Y661924D2*
X1563722D1*
X1589559D2*
X1595549D1*
X1607517D2*
X1629176D1*
X1647821D2*
X1655826D1*
X1669369D2*
X1677277D1*
X1694289D2*
X1715979D1*
X1739163D2*
X1748147D1*
X1757124D2*
X1778782D1*
X1790037D2*
X1799013D1*
X1813968D2*
X1819958D1*
X1550667Y658932D2*
X1559643D1*
X1589564D2*
X1595549D1*
X1607517D2*
X1625470D1*
X1649407D2*
X1655391D1*
X1670352D2*
X1676336D1*
X1694289D2*
X1700273D1*
X1706257D2*
X1712241D1*
X1739171D2*
X1748147D1*
X1757123D2*
X1763108D1*
X1769092D2*
X1775076D1*
X1790037D2*
X1799013D1*
X1813974D2*
X1819958D1*
X1661375Y994050D2*
X1659994Y991058D1*
X1659123Y988066D1*
X1658583Y985073D1*
X1658009Y982081D1*
X1657214Y979089D1*
X1656417Y976097D1*
X1655873Y973105D1*
X1655452Y970113D1*
X1654942Y967121D1*
X1653031Y964129D1*
X1648097Y961136D1*
X1641650Y958144D1*
X1634446Y955152D1*
X1697281Y994050D2*
X1698662Y991058D1*
X1699533Y988066D1*
X1700073Y985073D1*
X1700647Y982081D1*
X1701442Y979089D1*
X1702239Y976097D1*
X1702783Y973105D1*
X1703204Y970113D1*
X1703714Y967121D1*
X1705626Y964129D1*
X1710559Y961136D1*
X1717006Y958144D1*
X1724210Y955152D1*
X1592556Y970113D2*
X1589564Y967121D1*
X1586572Y964129D1*
X1583580Y961136D1*
X1580588Y958144D1*
X1577607Y955152D1*
X1574744Y952160D1*
X1572367Y949168D1*
X1570589Y946176D1*
X1570807Y943184D1*
X1572551Y940192D1*
X1574551Y937199D1*
X1576554Y934207D1*
X1578658Y931215D1*
X1580982Y928223D1*
X1583298Y925231D1*
X1585416Y922239D1*
X1587462Y919247D1*
X1589564Y916255D1*
X1587709Y913262D1*
X1586003Y910270D1*
X1584400Y907278D1*
X1582803Y904286D1*
X1580702Y901294D1*
X1577802Y898302D1*
X1569935Y895310D1*
X1560549Y892318D1*
X1552233Y889325D1*
X1545814Y886333D1*
X1543278Y883341D1*
X1542419Y880349D1*
X1541984Y877357D1*
X1541800Y874365D1*
X1541729Y871373D1*
X1541704Y868381D1*
X1541695Y865388D1*
X1541738Y862396D1*
X1541983Y859404D1*
X1542438Y856412D1*
X1549154Y853420D1*
X1557828Y850428D1*
X1566480Y847436D1*
X1573118Y844444D1*
X1578105Y841451D1*
X1580427Y838459D1*
X1582113Y835467D1*
X1583370Y832475D1*
X1584493Y829483D1*
X1585333Y826491D1*
X1585792Y823499D1*
X1585068Y820507D1*
X1583891Y817514D1*
X1582198Y814522D1*
X1579968Y811530D1*
X1577450Y808538D1*
X1575011Y805546D1*
X1572929Y802554D1*
X1571343Y799562D1*
X1570191Y796570D1*
X1570655Y793577D1*
X1572607Y790585D1*
X1575138Y787593D1*
X1578257Y784601D1*
X1581863Y781609D1*
X1585591Y778617D1*
X1589136Y775625D1*
X1592556Y772632D1*
X1595549Y970113D2*
X1601059Y967121D1*
X1606187Y964129D1*
X1610926Y961136D1*
X1615318Y958144D1*
X1619486Y955152D1*
X1763108Y970113D2*
X1757597Y967121D1*
X1752470Y964129D1*
X1747730Y961136D1*
X1743338Y958144D1*
X1739171Y955152D1*
X1769092Y967121D2*
X1772084Y964129D1*
X1775076Y961136D1*
X1778068Y958144D1*
X1781049Y955152D1*
X1783912Y952160D1*
X1786289Y949168D1*
X1788067Y946176D1*
X1787850Y943184D1*
X1786105Y940192D1*
X1784105Y937199D1*
X1782102Y934207D1*
X1779998Y931215D1*
X1777675Y928223D1*
X1775358Y925231D1*
X1773240Y922239D1*
X1771194Y919247D1*
X1769092Y916255D1*
X1770947Y913262D1*
X1772654Y910270D1*
X1774256Y907278D1*
X1775853Y904286D1*
X1777954Y901294D1*
X1780854Y898302D1*
X1788721Y895310D1*
X1798107Y892318D1*
X1806423Y889325D1*
X1812842Y886333D1*
X1815378Y883341D1*
X1816237Y880349D1*
X1816672Y877357D1*
X1816856Y874365D1*
X1816927Y871373D1*
X1816953Y868381D1*
X1816962Y865388D1*
X1816918Y862396D1*
X1816673Y859404D1*
X1816218Y856412D1*
X1809502Y853420D1*
X1800828Y850428D1*
X1792176Y847436D1*
X1785538Y844444D1*
X1780551Y841451D1*
X1778229Y838459D1*
X1776544Y835467D1*
X1775286Y832475D1*
X1774164Y829483D1*
X1773323Y826491D1*
X1772865Y823499D1*
X1773588Y820507D1*
X1774765Y817514D1*
X1776458Y814522D1*
X1778688Y811530D1*
X1781207Y808538D1*
X1783645Y805546D1*
X1785727Y802554D1*
X1787313Y799562D1*
X1788466Y796570D1*
X1788001Y793577D1*
X1786049Y790585D1*
X1783518Y787593D1*
X1780399Y784601D1*
X1776793Y781609D1*
X1773065Y778617D1*
X1769520Y775625D1*
X1766100Y772632D1*
X1592556Y955152D2*
X1589690Y952160D1*
X1587198Y949168D1*
X1585433Y946176D1*
X1584254Y943184D1*
X1584439Y940192D1*
X1585297Y937199D1*
X1586572Y934207D1*
X1610509Y955152D2*
Y952160D1*
Y949168D1*
Y946176D1*
Y943184D1*
Y940192D1*
Y937199D1*
Y934207D1*
Y931215D1*
X1739171Y955152D2*
X1748939Y952160D1*
X1756708Y949168D1*
X1763108Y946176D1*
X1754131Y943184D1*
X1758275Y940192D1*
X1761346Y937199D1*
X1762355Y934207D1*
X1763108Y931215D1*
X1772084Y955152D2*
Y952160D1*
Y949168D1*
Y946176D1*
Y943184D1*
Y940192D1*
Y937199D1*
Y934207D1*
Y931215D1*
X1592556Y949168D2*
X1592568Y946176D1*
X1592682Y943184D1*
X1593144Y940192D1*
X1594167Y937199D1*
X1595549Y934207D1*
X1601533Y949168D2*
Y946176D1*
X1601509Y943184D1*
X1601282Y940192D1*
X1600738Y937199D1*
X1598406Y934207D1*
X1595549Y931215D1*
X1670352Y904286D2*
X1664493Y901294D1*
X1659021Y898302D1*
X1654357Y895310D1*
X1650748Y892318D1*
X1648090Y889325D1*
X1646047Y886333D1*
X1644326Y883341D1*
X1642845Y880349D1*
X1641706Y877357D1*
X1641022Y874365D1*
X1640691Y871373D1*
X1640645Y868381D1*
X1640976Y865388D1*
X1641787Y862396D1*
X1643044Y859404D1*
X1644777Y856412D1*
X1647036Y853420D1*
X1649678Y850428D1*
X1652605Y847436D1*
X1655786Y844444D1*
X1658868Y841451D1*
X1661513Y838459D1*
X1662147Y835467D1*
X1661441Y832475D1*
X1660448Y829483D1*
X1659414Y826491D1*
X1658419Y823499D1*
X1657285Y820507D1*
X1655983Y817514D1*
X1654582Y814522D1*
X1653122Y811530D1*
X1651644Y808538D1*
X1650151Y805546D1*
X1648659Y802554D1*
X1647161Y799562D1*
X1645668Y796570D1*
X1644169Y793577D1*
X1642666Y790585D1*
X1641090Y787593D1*
X1639345Y784601D1*
X1637438Y781609D1*
X1688304Y904286D2*
X1694163Y901294D1*
X1699635Y898302D1*
X1704299Y895310D1*
X1707908Y892318D1*
X1710567Y889325D1*
X1712609Y886333D1*
X1714330Y883341D1*
X1715811Y880349D1*
X1716951Y877357D1*
X1717635Y874365D1*
X1717965Y871373D1*
X1718012Y868381D1*
X1717680Y865388D1*
X1716870Y862396D1*
X1715613Y859404D1*
X1713879Y856412D1*
X1711620Y853420D1*
X1708978Y850428D1*
X1706051Y847436D1*
X1702870Y844444D1*
X1699789Y841451D1*
X1697143Y838459D1*
X1696509Y835467D1*
X1697215Y832475D1*
X1698208Y829483D1*
X1699242Y826491D1*
X1700237Y823499D1*
X1701372Y820507D1*
X1702673Y817514D1*
X1704074Y814522D1*
X1705534Y811530D1*
X1707013Y808538D1*
X1708505Y805546D1*
X1709997Y802554D1*
X1711495Y799562D1*
X1712988Y796570D1*
X1714487Y793577D1*
X1715990Y790585D1*
X1717566Y787593D1*
X1719312Y784601D1*
X1721218Y781609D1*
X1550667Y883341D2*
Y880349D1*
X1550655Y877357D1*
X1550541Y874365D1*
X1550079Y871373D1*
X1549056Y868381D1*
X1547675Y865388D1*
X1550667Y862396D1*
X1553659Y859404D1*
X1571612Y883341D2*
Y880349D1*
Y877357D1*
Y874365D1*
Y871373D1*
Y868381D1*
Y865388D1*
Y862396D1*
Y859404D1*
X1796021Y883341D2*
X1793629Y880349D1*
X1791641Y877357D1*
X1791212Y874365D1*
X1792868Y871373D1*
X1796833Y868381D1*
X1800507Y865388D1*
X1803070Y862396D1*
X1804997Y859404D1*
X1810982Y883341D2*
Y880349D1*
Y877357D1*
Y874365D1*
Y871373D1*
Y868381D1*
Y865388D1*
Y862396D1*
Y859404D1*
X1556651Y877357D2*
Y874365D1*
X1565627Y877357D2*
Y874365D1*
X1796021Y877357D2*
Y874365D1*
Y871373D1*
X1804997Y877357D2*
X1803455Y874365D1*
X1798762Y871373D1*
X1793029Y868381D1*
X1798597Y865388D1*
X1802797Y862396D1*
X1804997Y859404D1*
X1556651Y868381D2*
X1553659Y865388D1*
X1556651Y862396D1*
X1565627Y868381D2*
X1564084Y865388D1*
X1559392Y862396D1*
X1553659Y859404D1*
X1760115Y808538D2*
X1763108Y805546D1*
X1766100Y802554D1*
X1762084Y799562D1*
X1758194Y796570D1*
X1754588Y793577D1*
X1751139Y790585D1*
X1754131Y787593D1*
X1772084Y808538D2*
X1771935Y805546D1*
X1771581Y802554D1*
X1769461Y799562D1*
X1766477Y796570D1*
X1763613Y793577D1*
X1761614Y790585D1*
X1760115Y787593D1*
X1625470D2*
X1619600Y784601D1*
X1614001Y781609D1*
X1608759Y778617D1*
X1603666Y775625D1*
X1598541Y772632D1*
X1625470Y787593D2*
X1631454Y784601D1*
X1637438Y781609D1*
X1733186Y787593D2*
X1727202Y784601D1*
X1721218Y781609D1*
X1733186Y787593D2*
X1739057Y784601D1*
X1744655Y781609D1*
X1749897Y778617D1*
X1754991Y775625D1*
X1760115Y772632D1*
Y784601D2*
X1766100Y787593D2*
X1769092Y784601D1*
X1508777Y745703D2*
X1506373Y742711D1*
X1504623Y739719D1*
X1503621Y736727D1*
X1503134Y733735D1*
X1502916Y730743D1*
X1502793Y727751D1*
X1523738Y724758D1*
X1520745Y721766D1*
X1523738Y745703D2*
X1526256Y742711D1*
X1528389Y739719D1*
X1530108Y736727D1*
X1531350Y733735D1*
X1531977Y730743D1*
X1531945Y727751D1*
X1531270Y724758D1*
X1530069Y721766D1*
X1528364Y718774D1*
X1526167Y715782D1*
X1523738Y712790D1*
X1538698Y745703D2*
X1537306Y742711D1*
X1536381Y739719D1*
X1535706Y736727D1*
X1553659Y745703D2*
X1565627D2*
X1586572D2*
Y742711D1*
Y739719D1*
Y736727D1*
Y733735D1*
Y730743D1*
Y727751D1*
Y724758D1*
Y721766D1*
Y718774D1*
Y715782D1*
Y712790D1*
X1595549Y745703D2*
Y742711D1*
Y739719D1*
Y736727D1*
Y733735D1*
Y730743D1*
Y727751D1*
Y724758D1*
Y721766D1*
Y718774D1*
Y715782D1*
Y712790D1*
X1604525Y745703D2*
Y742711D1*
Y739719D1*
Y736727D1*
X1604537Y733735D1*
X1604651Y730743D1*
X1605113Y727751D1*
X1606136Y724758D1*
X1607517Y721766D1*
X1619486Y745703D2*
Y742711D1*
Y739719D1*
Y736727D1*
X1619474Y733735D1*
X1619360Y730743D1*
X1618898Y727751D1*
X1617875Y724758D1*
X1616493Y721766D1*
X1625470Y745703D2*
Y742711D1*
Y739719D1*
Y736727D1*
Y733735D1*
Y730743D1*
X1625458Y727751D1*
X1625341Y724758D1*
X1624844Y721766D1*
X1623640Y718774D1*
X1621726Y715782D1*
X1619486Y712790D1*
X1640430Y745703D2*
X1637912Y742711D1*
X1635779Y739719D1*
X1634060Y736727D1*
X1632818Y733735D1*
X1632191Y730743D1*
X1632223Y727751D1*
X1632898Y724758D1*
X1634099Y721766D1*
X1635804Y718774D1*
X1638001Y715782D1*
X1640430Y712790D1*
X1655391Y745703D2*
X1657795Y742711D1*
X1659545Y739719D1*
X1660547Y736727D1*
X1661033Y733735D1*
X1661243Y730743D1*
X1661315Y727751D1*
X1661230Y724758D1*
X1660744Y721766D1*
X1659543Y718774D1*
X1657631Y715782D1*
X1655391Y712790D1*
X1673344Y745703D2*
X1670165Y742711D1*
X1667360Y739719D1*
X1673344Y736727D1*
X1691297Y745703D2*
X1693689Y742711D1*
X1695677Y739719D1*
X1696292Y736727D1*
X1695665Y733735D1*
X1693284Y730743D1*
X1688114Y727751D1*
X1682237Y724758D1*
X1676336Y721766D1*
X1724210Y745703D2*
X1722366Y742711D1*
X1720765Y739719D1*
X1719556Y736727D1*
X1718839Y733735D1*
X1718483Y730743D1*
X1718326Y727751D1*
X1718263Y724758D1*
X1718239Y721766D1*
X1718230Y718774D1*
X1718227Y715782D1*
X1718226Y712790D1*
X1748147Y745703D2*
Y742711D1*
Y739719D1*
Y736727D1*
Y733735D1*
Y730743D1*
Y727751D1*
Y724758D1*
Y721766D1*
Y718774D1*
Y715782D1*
Y712790D1*
X1763108Y745703D2*
X1760590Y742711D1*
X1758456Y739719D1*
X1756736Y736727D1*
X1755475Y733735D1*
X1754690Y730743D1*
X1754131Y727751D1*
X1778068Y724758D1*
X1775076Y721766D1*
X1778068Y745703D2*
X1780472Y742711D1*
X1782222Y739719D1*
X1783224Y736727D1*
X1783710Y733735D1*
X1783920Y730743D1*
X1783992Y727751D1*
X1783907Y724758D1*
X1783421Y721766D1*
X1782220Y718774D1*
X1780308Y715782D1*
X1778068Y712790D1*
X1796021Y745703D2*
X1794177Y742711D1*
X1792576Y739719D1*
X1791367Y736727D1*
X1790650Y733735D1*
X1790305Y730743D1*
X1790254Y727751D1*
X1790584Y724758D1*
X1791391Y721766D1*
X1792619Y718774D1*
X1794206Y715782D1*
X1796021Y712790D1*
X1819958Y745703D2*
Y742711D1*
Y739719D1*
Y736727D1*
Y733735D1*
Y730743D1*
Y727751D1*
Y724758D1*
Y721766D1*
Y718774D1*
Y715782D1*
Y712790D1*
Y709798D1*
Y706806D1*
Y703814D1*
Y700821D1*
Y697829D1*
Y694837D1*
Y691845D1*
Y688853D1*
Y685861D1*
Y682869D1*
Y679877D1*
Y676884D1*
Y673892D1*
Y670900D1*
Y667908D1*
Y664916D1*
Y661924D1*
Y658932D1*
X1834919Y745703D2*
X1832401Y742711D1*
X1830267Y739719D1*
X1828548Y736727D1*
X1827306Y733735D1*
X1826680Y730743D1*
X1826711Y727751D1*
X1827387Y724758D1*
X1828588Y721766D1*
X1830292Y718774D1*
X1832490Y715782D1*
X1834919Y712790D1*
X1849879Y745703D2*
X1852283Y742711D1*
X1854033Y739719D1*
X1855035Y736727D1*
X1855521Y733735D1*
X1855731Y730743D1*
X1855803Y727751D1*
X1855718Y724758D1*
X1855232Y721766D1*
X1854031Y718774D1*
X1852119Y715782D1*
X1849879Y712790D1*
X1514761Y739719D2*
X1511769Y736727D1*
X1508777Y733735D1*
X1517753Y739719D2*
X1520745Y736727D1*
X1523738Y733735D1*
X1550667Y739719D2*
X1543454Y736727D1*
X1537386Y733735D1*
X1534880Y730743D1*
X1533180Y727751D1*
X1531754Y724758D1*
X1530248Y721766D1*
X1528428Y718774D1*
X1526187Y715782D1*
X1523738Y712790D1*
X1550667Y739719D2*
X1553071Y736727D1*
X1554809Y733735D1*
X1555978Y730743D1*
X1555792Y727751D1*
X1554934Y724758D1*
X1553659Y721766D1*
X1562635Y739719D2*
Y736727D1*
Y733735D1*
Y730743D1*
X1562623Y727751D1*
X1562495Y724758D1*
X1562179Y721766D1*
X1560680Y718774D1*
X1557396Y715782D1*
X1553659Y712790D1*
X1574604Y739719D2*
X1577008Y736727D1*
X1578758Y733735D1*
X1579760Y730743D1*
X1580246Y727751D1*
X1580456Y724758D1*
X1580540Y721766D1*
X1580571Y718774D1*
X1580582Y715782D1*
X1580588Y712790D1*
X1646415Y739719D2*
X1644011Y736727D1*
X1642272Y733735D1*
X1641103Y730743D1*
X1641290Y727751D1*
X1642147Y724758D1*
X1643423Y721766D1*
X1649407Y739719D2*
X1651811Y736727D1*
X1653549Y733735D1*
X1654718Y730743D1*
X1654532Y727751D1*
X1653674Y724758D1*
X1652399Y721766D1*
X1697281Y739719D2*
X1688567Y736727D1*
X1680709Y733735D1*
X1674661Y730743D1*
X1670173Y727751D1*
X1668494Y724758D1*
X1668159Y721766D1*
X1669310Y718774D1*
X1671154Y715782D1*
X1673344Y712790D1*
X1733186Y739719D2*
X1730782Y736727D1*
X1729032Y733735D1*
X1728030Y730743D1*
X1727544Y727751D1*
X1727334Y724758D1*
X1727250Y721766D1*
X1727219Y718774D1*
X1727208Y715782D1*
X1727202Y712790D1*
X1736178Y739719D2*
X1738583Y736727D1*
X1740332Y733735D1*
X1741335Y730743D1*
X1741820Y727751D1*
X1742031Y724758D1*
X1742114Y721766D1*
X1742146Y718774D1*
X1742157Y715782D1*
X1742163Y712790D1*
X1769092Y739719D2*
X1766100Y736727D1*
X1763108Y733735D1*
X1772084Y739719D2*
X1775076Y736727D1*
X1778068Y733735D1*
X1799013Y739719D2*
Y736727D1*
Y733735D1*
Y730743D1*
Y727751D1*
Y724758D1*
Y721766D1*
X1807990Y739719D2*
X1810394Y736727D1*
X1812132Y733735D1*
X1813301Y730743D1*
X1813115Y727751D1*
X1812257Y724758D1*
X1810982Y721766D1*
X1840903Y739719D2*
X1838499Y736727D1*
X1836761Y733735D1*
X1835591Y730743D1*
X1835778Y727751D1*
X1836636Y724758D1*
X1837911Y721766D1*
X1843895Y739719D2*
X1846299Y736727D1*
X1848037Y733735D1*
X1849206Y730743D1*
X1849020Y727751D1*
X1848162Y724758D1*
X1846887Y721766D1*
X1505785D2*
X1504607Y718774D1*
X1504984Y715782D1*
X1505785Y712790D1*
X1508777Y721766D2*
X1535706D2*
X1536256Y718774D1*
X1537306Y715782D1*
X1538698Y712790D1*
X1541690Y721766D2*
X1691297D2*
X1697281D2*
X1696509Y718774D1*
X1694163Y715782D1*
X1691297Y712790D1*
X1760115Y721766D2*
X1758938Y718774D1*
X1759314Y715782D1*
X1760115Y712790D1*
X1763108Y721766D2*
X1810982Y715782D2*
X1807990Y712790D1*
X1813974Y715782D2*
Y712790D1*
Y709798D1*
Y706806D1*
Y703814D1*
Y700821D1*
Y697829D1*
Y694837D1*
X1694289Y706806D2*
Y703814D1*
Y700821D1*
Y697829D1*
Y694837D1*
Y691845D1*
Y688853D1*
Y685861D1*
Y682869D1*
Y679877D1*
Y676884D1*
Y673892D1*
Y670900D1*
Y667908D1*
Y664916D1*
Y661924D1*
Y658932D1*
X1700273Y706806D2*
Y703814D1*
Y700821D1*
Y697829D1*
Y694837D1*
X1556651D2*
X1551022Y691845D1*
X1546812Y688853D1*
X1543689Y685861D1*
X1542650Y682869D1*
X1542094Y679877D1*
X1541838Y676884D1*
X1541690Y673892D1*
X1562635Y670900D1*
X1559643Y667908D1*
X1580588Y694837D2*
X1571612Y691845D1*
X1575865Y688853D1*
X1580582Y685861D1*
X1584683Y682869D1*
X1587749Y679877D1*
X1588709Y676884D1*
X1589210Y673892D1*
X1589429Y670900D1*
X1589516Y667908D1*
X1589547Y664916D1*
X1589559Y661924D1*
X1589564Y658932D1*
X1619486Y694837D2*
X1614319Y691845D1*
X1610251Y688853D1*
X1608829Y685861D1*
X1608070Y682869D1*
X1607731Y679877D1*
X1607595Y676884D1*
X1607544Y673892D1*
X1607526Y670900D1*
X1607520Y667908D1*
X1607518Y664916D1*
X1607517Y661924D1*
Y658932D1*
X1622478Y694837D2*
X1626654Y691845D1*
X1629429Y688853D1*
X1631454Y685861D1*
X1709249Y694837D2*
X1730194D2*
X1724210Y691845D1*
X1772084Y694837D2*
X1765536Y691845D1*
X1760445Y688853D1*
X1758407Y685861D1*
X1757714Y682869D1*
X1757362Y679877D1*
X1757213Y676884D1*
X1757155Y673892D1*
X1757134Y670900D1*
X1757127Y667908D1*
X1757125Y664916D1*
X1757124Y661924D1*
X1757123Y658932D1*
X1802005Y694837D2*
X1797758Y691845D1*
X1794407Y688853D1*
X1791816Y685861D1*
X1790897Y682869D1*
X1790402Y679877D1*
X1790179Y676884D1*
X1790089Y673892D1*
X1790055Y670900D1*
X1790043Y667908D1*
X1790039Y664916D1*
X1790037Y661924D1*
Y658932D1*
X1565627Y691845D2*
X1568031Y688853D1*
X1569781Y685861D1*
X1570783Y682869D1*
X1571269Y679877D1*
X1571468Y676884D1*
X1571435Y673892D1*
X1570956Y670900D1*
X1570002Y667908D1*
X1567292Y664916D1*
X1563722Y661924D1*
X1559643Y658932D1*
X1595549Y691845D2*
Y688853D1*
Y685861D1*
Y682869D1*
Y679877D1*
Y676884D1*
Y673892D1*
Y670900D1*
Y667908D1*
Y664916D1*
Y661924D1*
Y658932D1*
X1637438Y691845D2*
X1637912Y688853D1*
X1638759Y685861D1*
X1639915Y682869D1*
X1641168Y679877D1*
X1642318Y676884D1*
X1643349Y673892D1*
X1644407Y670900D1*
X1645435Y667908D1*
X1646482Y664916D1*
X1647821Y661924D1*
X1649407Y658932D1*
X1643423Y691845D2*
X1644927Y688853D1*
X1646254Y685861D1*
X1647734Y682869D1*
X1649407Y679877D1*
X1658383Y691845D2*
X1657360Y688853D1*
X1656462Y685861D1*
X1655848Y682869D1*
X1655391Y679877D1*
X1664367Y691845D2*
X1665863Y688853D1*
X1667108Y685861D1*
X1668286Y682869D1*
X1669377Y679877D1*
X1670352Y676884D1*
X1679328Y691845D2*
X1678866Y688853D1*
X1678123Y685861D1*
X1677341Y682869D1*
X1676772Y679877D1*
X1676336Y676884D1*
X1688304Y691845D2*
X1687168Y688853D1*
X1685894Y685861D1*
X1684597Y682869D1*
X1683432Y679877D1*
X1682397Y676884D1*
X1681337Y673892D1*
X1680317Y670900D1*
X1679351Y667908D1*
X1678309Y664916D1*
X1677277Y661924D1*
X1676336Y658932D1*
X1718226Y691845D2*
X1748147D2*
Y688853D1*
Y685861D1*
Y682869D1*
Y679877D1*
Y676884D1*
Y673892D1*
Y670900D1*
Y667908D1*
Y664916D1*
Y661924D1*
Y658932D1*
X1781060Y691845D2*
X1784052Y688853D1*
X1781060Y685861D1*
X1556651Y688853D2*
X1553659Y685861D1*
X1550667Y682869D1*
X1556651Y688853D2*
X1559643Y685861D1*
X1562635Y682869D1*
X1619486Y688853D2*
X1616493Y685861D1*
X1613501Y682869D1*
X1622453Y679877D1*
X1629567Y676884D1*
X1632536Y673892D1*
X1633709Y670900D1*
X1633754Y667908D1*
X1632414Y664916D1*
X1629176Y661924D1*
X1625470Y658932D1*
X1622478Y688853D2*
X1625470Y685861D1*
X1721218Y688853D2*
Y685861D1*
Y682869D1*
Y679877D1*
Y676884D1*
X1721206Y673892D1*
X1721078Y670900D1*
X1720762Y667908D1*
X1719263Y664916D1*
X1715979Y661924D1*
X1712241Y658932D1*
X1715234Y688853D2*
X1724850Y685861D1*
X1732941Y682869D1*
X1736666Y679877D1*
X1738004Y676884D1*
X1738693Y673892D1*
X1738990Y670900D1*
X1739106Y667908D1*
X1739148Y664916D1*
X1739163Y661924D1*
X1739171Y658932D1*
X1769092Y688853D2*
X1766100Y685861D1*
X1763108Y682869D1*
X1772059Y679877D1*
X1779173Y676884D1*
X1782142Y673892D1*
X1783315Y670900D1*
X1783360Y667908D1*
X1782020Y664916D1*
X1778782Y661924D1*
X1775076Y658932D1*
X1772084Y688853D2*
X1775076Y685861D1*
X1700273D2*
Y682869D1*
Y679877D1*
Y676884D1*
Y673892D1*
Y670900D1*
X1715234Y685861D2*
Y682869D1*
Y679877D1*
Y676884D1*
Y673892D1*
Y670900D1*
X1799013Y685861D2*
Y682869D1*
Y679877D1*
Y676884D1*
Y673892D1*
Y670900D1*
Y667908D1*
Y664916D1*
Y661924D1*
Y658932D1*
X1807990Y685861D2*
X1810394Y682869D1*
X1812143Y679877D1*
X1813146Y676884D1*
X1813632Y673892D1*
X1813842Y670900D1*
X1813925Y667908D1*
X1813957Y664916D1*
X1813968Y661924D1*
X1813974Y658932D1*
X1658383Y676884D2*
X1658269Y673892D1*
X1657886Y670900D1*
X1657168Y667908D1*
X1656393Y664916D1*
X1655826Y661924D1*
X1655391Y658932D1*
X1661375Y676884D2*
X1663791Y673892D1*
X1665646Y670900D1*
X1667032Y667908D1*
X1668260Y664916D1*
X1669369Y661924D1*
X1670352Y658932D1*
X1610509Y673892D2*
X1613501Y670900D1*
X1616493Y667908D1*
X1631454Y673892D2*
X1628462Y670900D1*
X1625470Y667908D1*
X1760115Y673892D2*
X1763108Y670900D1*
X1766100Y667908D1*
X1781060Y673892D2*
X1778068Y670900D1*
X1775076Y667908D1*
X1544682D2*
X1541690Y664916D1*
X1546085Y661924D1*
X1550667Y658932D1*
Y667908D2*
X1703265Y661924D2*
X1700273Y658932D1*
X1703265Y661924D2*
X1706257Y658932D1*
X1766100Y661924D2*
X1763108Y658932D1*
X1766100Y661924D2*
X1769092Y658932D1*
X1258062Y789039D2*
D75*
X1308302D1*
X1258062Y805786D2*
Y772292D1*
Y740106D2*
X1308302D1*
X1258062Y756853D2*
Y723360D1*
Y707920D2*
X1308302D1*
Y679236D1*
X1051752Y875286D2*
X1101992D1*
X1051752Y892033D2*
Y858540D1*
Y843100D2*
X1101992Y809607D1*
X1051752D2*
X1101992Y843100D1*
Y794168D2*
X1051807Y760675D1*
X1075684Y745235D2*
Y723735D1*
X1073252Y716550D1*
X1070875Y714119D1*
X1066122Y711742D1*
X1061314D1*
X1056561Y714119D1*
X1054129Y716550D1*
X1051752Y723736D1*
Y745235D1*
X1101992D1*
X1075684Y728489D2*
X1101992Y711742D1*
X1051752Y696303D2*
X1101992Y662810D1*
X1051752D2*
X1101992Y696303D1*
X1943561Y1206587D2*
D78*
X1946413Y1205161D1*
X1949298Y1202276D1*
X1950724Y1199424D1*
Y1193687D1*
X1949298Y1190802D1*
X1946413Y1187950D1*
X1943561Y1186491D1*
X1939250Y1185065D1*
X1932054D1*
X1927776Y1186491D1*
X1924891Y1187950D1*
X1922039Y1190802D1*
X1920580Y1193687D1*
Y1199424D1*
X1922039Y1202276D1*
X1924891Y1205161D1*
X1927776Y1206587D1*
X1932054D1*
Y1199424D1*
X1950724Y1235946D2*
X1920580Y1235947D1*
X1950724Y1215851D1*
X1920580D1*
X1950724Y1245210D2*
X1920580D1*
Y1255258D1*
X1922039Y1259569D1*
X1924891Y1262454D1*
X1927776Y1263880D1*
X1932054Y1265306D1*
X1939250D1*
X1943561Y1263880D1*
X1946413Y1262454D1*
X1949298Y1259569D1*
X1950724Y1255258D1*
Y1245210D1*
X1820578Y1177261D2*
X1850722Y1165753D1*
X1820578Y1154280D1*
X1830626Y1158591D2*
Y1172950D1*
X1850722Y1186524D2*
X1820578D1*
Y1196572D1*
X1822038Y1200883D1*
X1824889Y1203768D1*
X1827774Y1205194D1*
X1832052Y1206620D1*
X1839248D1*
X1843559Y1205194D1*
X1846411Y1203768D1*
X1849296Y1200883D1*
X1850722Y1196572D1*
Y1186524D1*
X1843559Y1237406D2*
X1846411Y1235980D1*
X1849296Y1233095D1*
X1850722Y1230243D1*
Y1224506D1*
X1849296Y1221621D1*
X1846411Y1218769D1*
X1843559Y1217310D1*
X1839248Y1215884D1*
X1832052D1*
X1827774Y1217310D1*
X1824889Y1218769D1*
X1822037Y1221621D1*
X1820578Y1224506D1*
Y1230243D1*
X1822037Y1233095D1*
X1824889Y1235980D1*
X1827774Y1237406D1*
X1846411Y1263880D2*
X1849263Y1262454D1*
X1850689Y1258143D1*
Y1255291D1*
X1849263Y1250980D1*
X1844952Y1248095D1*
X1837789Y1246669D1*
X1830626D1*
X1824889Y1248095D1*
X1822004Y1250980D1*
X1820578Y1255291D1*
Y1256717D1*
X1822004Y1260995D1*
X1824889Y1263880D1*
X1829200Y1265306D1*
X1830626D1*
X1834937Y1263880D1*
X1837789Y1260995D1*
X1839215Y1256717D1*
Y1255291D1*
X1837789Y1250980D1*
X1834937Y1248095D1*
X1830626Y1246669D1*
X1734937Y1186491D2*
Y1199424D1*
X1736363Y1203702D1*
X1737822Y1205161D1*
X1740674Y1206587D1*
X1744985D1*
X1747837Y1205161D1*
X1749296Y1203702D1*
X1750722Y1199424D1*
Y1186491D1*
X1720578D1*
X1750722Y1215851D2*
X1720578D1*
Y1225899D1*
X1722037Y1230210D1*
X1724889Y1233095D1*
X1727774Y1234521D1*
X1732052Y1235947D1*
X1739248Y1235946D1*
X1743559Y1234521D1*
X1746411Y1233095D1*
X1749296Y1230210D1*
X1750722Y1225898D1*
Y1215851D1*
X1720578Y1250947D2*
X1750689Y1265306D1*
Y1245210D1*
X1628687Y1186491D2*
Y1199424D1*
X1630113Y1203702D1*
X1631572Y1205161D1*
X1634424Y1206587D1*
X1638735D1*
X1641587Y1205161D1*
X1643046Y1203702D1*
X1644472Y1199424D1*
Y1186491D1*
X1614328D1*
X1644472Y1215851D2*
X1614328D1*
Y1225899D1*
X1615787Y1230210D1*
X1618639Y1233095D1*
X1621524Y1234521D1*
X1625802Y1235947D1*
X1632998Y1235946D1*
X1637309Y1234521D1*
X1640161Y1233095D1*
X1643046Y1230210D1*
X1644472Y1225898D1*
Y1215851D1*
X1637276Y1246669D2*
X1638702D1*
X1641587Y1248095D1*
X1643013Y1249521D1*
X1644439Y1252406D1*
Y1258143D1*
X1643013Y1260995D1*
X1641587Y1262421D1*
X1638702Y1263880D1*
X1635850D1*
X1632965Y1262421D1*
X1628687Y1259569D1*
X1614328Y1245210D1*
Y1265306D1*
X2148552Y1196538D2*
X2122719D1*
X2135619Y1183638D2*
Y1209471D1*
X2150691Y1235945D2*
Y1221619D1*
X2137791Y1220193D1*
X2139217Y1221619D1*
X2140676Y1225930D1*
Y1230208D1*
X2139217Y1234519D1*
X2136365Y1237404D1*
X2132054Y1238830D1*
X2129202D1*
X2124891Y1237404D1*
X2122006Y1234519D1*
X2120580Y1230208D1*
Y1225930D1*
X2122006Y1221619D1*
X2123465Y1220193D1*
X2126317Y1218734D1*
X2140676Y1248094D2*
X2120580Y1256716D1*
X2140676Y1265305D1*
X1302460Y1038789D2*
D76*
Y998597D1*
X1290108Y1038789D2*
Y998597D1*
X1276711D1*
X1270963Y1000542D1*
X1267116Y1004345D1*
X1265215Y1008191D1*
X1263314Y1013895D1*
Y1023490D1*
X1265215Y1029238D1*
X1267116Y1033041D1*
X1270963Y1036887D1*
X1276711Y1038789D1*
X1290108D1*
X1411908Y1277848D2*
D78*
X1399008D1*
X1394697Y1279307D1*
X1393238Y1280733D1*
X1391812Y1283585D1*
Y1286470D1*
X1393238Y1289322D1*
X1394697Y1290781D1*
X1399008Y1292207D1*
X1411908D1*
Y1262063D1*
X1401860Y1277848D2*
X1391812Y1262063D1*
X1382548Y1273537D2*
X1365337D1*
Y1276422D1*
X1366763Y1279307D1*
X1368189Y1280733D1*
X1371074Y1282159D1*
X1375385D1*
X1378237Y1280733D1*
X1381122Y1277848D1*
X1382548Y1273537D1*
Y1270685D1*
X1381122Y1266374D1*
X1378237Y1263522D1*
X1375385Y1262063D1*
X1371074D1*
X1368189Y1263522D1*
X1365337Y1266374D1*
X1356074Y1282159D2*
X1347452Y1262063D1*
X1338863Y1282159D1*
X1329599Y1286436D2*
X1326714Y1287896D1*
X1322403Y1292173D1*
Y1262063D1*
X1311714Y1264948D2*
X1313140Y1263489D1*
X1311714Y1262063D1*
X1310255Y1263489D1*
X1311714Y1264948D1*
X1300991Y1286436D2*
X1298106Y1287896D1*
X1293795Y1292173D1*
Y1262063D1*
X1422278Y1223449D2*
Y1193305D1*
X1412230D1*
X1407919Y1194765D1*
X1405034Y1197616D1*
X1403608Y1200501D1*
X1402182Y1204779D1*
Y1211975D1*
X1403608Y1216286D1*
X1405034Y1219138D1*
X1407919Y1222023D1*
X1412230Y1223449D1*
X1422278D1*
X1392918Y1204779D2*
X1375707D1*
Y1207664D1*
X1377133Y1210549D1*
X1378559Y1211975D1*
X1381444Y1213401D1*
X1385755D1*
X1388607Y1211975D1*
X1391492Y1209090D1*
X1392918Y1204779D1*
Y1201927D1*
X1391492Y1197616D1*
X1388607Y1194765D1*
X1385755Y1193305D1*
X1381444D1*
X1378559Y1194765D1*
X1375707Y1197616D1*
X1350659Y1209090D2*
X1352085Y1211975D1*
X1356396Y1213401D1*
X1360707D1*
X1365018Y1211975D1*
X1366444Y1209090D1*
X1365018Y1206238D1*
X1362133Y1204779D1*
X1354970Y1203353D1*
X1352085Y1201927D1*
X1350659Y1199042D1*
Y1197616D1*
X1352085Y1194765D1*
X1356396Y1193305D1*
X1360707D1*
X1365018Y1194765D1*
X1366444Y1197616D1*
X1341395Y1223449D2*
X1339969Y1222023D1*
X1338510Y1223449D1*
X1339969Y1224909D1*
X1341395Y1223449D1*
X1339969Y1213401D2*
Y1193305D1*
X1312036Y1211975D2*
Y1188994D1*
X1313462Y1184717D1*
X1314888Y1183257D1*
X1317773Y1181831D1*
X1322084D1*
X1324936Y1183257D1*
X1312036Y1207664D2*
X1314888Y1210516D1*
X1317773Y1211975D1*
X1322084D1*
X1324936Y1210516D1*
X1327821Y1207664D1*
X1329247Y1203353D1*
Y1200468D1*
X1327821Y1196190D1*
X1324936Y1193305D1*
X1322084Y1191879D1*
X1317773D1*
X1314888Y1193305D1*
X1312036Y1196190D1*
X1302772Y1213401D2*
Y1193305D1*
Y1207664D2*
X1298461Y1211975D1*
X1295576Y1213401D1*
X1291298D1*
X1288413Y1211975D1*
X1286987Y1207664D1*
Y1193305D1*
X1277724Y1204779D2*
X1260513D1*
Y1207664D1*
X1261939Y1210549D1*
X1263365Y1211975D1*
X1266250Y1213401D1*
X1270561D1*
X1273413Y1211975D1*
X1276298Y1209090D1*
X1277724Y1204779D1*
Y1201927D1*
X1276298Y1197616D1*
X1273413Y1194765D1*
X1270561Y1193305D1*
X1266250D1*
X1263365Y1194765D1*
X1260513Y1197616D1*
X1234038Y1223449D2*
Y1193305D1*
Y1209090D2*
X1236890Y1211975D1*
X1239775Y1213401D1*
X1244086D1*
X1246938Y1211975D1*
X1249823Y1209090D1*
X1251249Y1204779D1*
Y1201927D1*
X1249823Y1197616D1*
X1246938Y1194765D1*
X1244086Y1193305D1*
X1239775D1*
X1236890Y1194765D1*
X1234038Y1197616D1*
X1195614Y1223449D2*
Y1193305D1*
X1182681D1*
X1178370Y1194765D1*
X1176944Y1196190D1*
X1175518Y1199042D1*
Y1203353D1*
X1176944Y1206238D1*
X1178370Y1207664D1*
X1182681Y1209090D1*
X1178370Y1210549D1*
X1176944Y1211975D1*
X1175518Y1214827D1*
Y1217712D1*
X1176944Y1220564D1*
X1178370Y1222023D1*
X1182681Y1223449D1*
X1195614D1*
Y1209090D2*
X1182681D1*
X1164795Y1213401D2*
X1156206Y1193305D1*
X1159058Y1187568D1*
X1161943Y1184683D1*
X1164795Y1183257D1*
X1166254D1*
X1147584Y1213401D2*
X1156206Y1193305D1*
X1136862Y1213401D2*
X1138321Y1211942D1*
X1136862Y1210516D1*
X1135436Y1211942D1*
X1136862Y1213401D1*
Y1196190D2*
X1138321Y1194731D1*
X1136862Y1193305D1*
X1135436Y1194731D1*
X1136862Y1196190D1*
X1513395Y1124548D2*
X1524902Y1154692D1*
X1536376Y1124548D1*
X1532065Y1134596D2*
X1517706D1*
X1504131Y1154692D2*
Y1124548D1*
X1494867Y1136022D2*
X1477656D1*
Y1138907D1*
X1479082Y1141792D1*
X1480508Y1143218D1*
X1483393Y1144644D1*
X1487704D1*
X1490556Y1143218D1*
X1493441Y1140333D1*
X1494867Y1136022D1*
Y1133170D1*
X1493441Y1128859D1*
X1490556Y1126007D1*
X1487704Y1124548D1*
X1483393D1*
X1480508Y1126007D1*
X1477656Y1128859D1*
X1468393Y1144644D2*
X1452608Y1124548D1*
Y1144644D2*
X1468393Y1124548D1*
X1414184Y1154692D2*
X1406988Y1124548D1*
X1399825Y1154692D1*
X1392662Y1124548D1*
X1385466Y1154692D1*
X1369039Y1144644D2*
X1371891Y1143218D1*
X1374776Y1140333D1*
X1376202Y1136022D1*
Y1133170D1*
X1374776Y1128859D1*
X1371891Y1126007D1*
X1369039Y1124548D1*
X1364728D1*
X1361843Y1126007D1*
X1358991Y1128859D1*
X1357532Y1133170D1*
Y1136022D1*
X1358991Y1140333D1*
X1361843Y1143218D1*
X1364728Y1144644D1*
X1369039D1*
X1341106D2*
X1343958Y1143218D1*
X1346843Y1140333D1*
X1348269Y1136022D1*
Y1133170D1*
X1346843Y1128859D1*
X1343958Y1126007D1*
X1341106Y1124548D1*
X1336795D1*
X1333910Y1126007D1*
X1331058Y1128859D1*
X1329599Y1133170D1*
Y1136022D1*
X1331058Y1140333D1*
X1333910Y1143218D1*
X1336795Y1144644D1*
X1341106D1*
X1303124Y1154692D2*
Y1124548D1*
Y1140333D2*
X1305976Y1143218D1*
X1308861Y1144644D1*
X1313172D1*
X1316024Y1143218D1*
X1318909Y1140333D1*
X1320335Y1136022D1*
Y1133170D1*
X1318909Y1128859D1*
X1316024Y1126007D1*
X1313172Y1124548D1*
X1308861D1*
X1305976Y1126007D1*
X1303124Y1128859D1*
X1293861Y1144644D2*
Y1124548D1*
Y1138907D2*
X1289550Y1143218D1*
X1286664Y1144644D1*
X1282387D1*
X1279502Y1143218D1*
X1278076Y1138907D1*
Y1124548D1*
Y1138907D2*
X1273765Y1143218D1*
X1270879Y1144644D1*
X1266602D1*
X1263717Y1143218D1*
X1262257Y1138907D1*
Y1124548D1*
X1235783Y1144644D2*
Y1124548D1*
Y1140333D2*
X1238635Y1143218D1*
X1241520Y1144644D1*
X1245798D1*
X1248683Y1143218D1*
X1251535Y1140333D1*
X1252994Y1136022D1*
Y1133170D1*
X1251535Y1128859D1*
X1248683Y1126007D1*
X1245798Y1124548D1*
X1241520D1*
X1238635Y1126007D1*
X1235783Y1128859D1*
X1226519Y1144644D2*
Y1124548D1*
Y1138907D2*
X1222208Y1143218D1*
X1219323Y1144644D1*
X1215045D1*
X1212160Y1143218D1*
X1210734Y1138907D1*
Y1124548D1*
X1185686Y1140333D2*
X1187112Y1143218D1*
X1191423Y1144644D1*
X1195734D1*
X1200045Y1143218D1*
X1201471Y1140333D1*
X1200045Y1137481D1*
X1197160Y1136022D1*
X1189997Y1134596D1*
X1187112Y1133170D1*
X1185686Y1130285D1*
Y1128859D1*
X1187112Y1126007D1*
X1191423Y1124548D1*
X1195734D1*
X1200045Y1126007D1*
X1201471Y1128859D1*
X1176422Y1136022D2*
X1159211D1*
Y1138907D1*
X1160637Y1141792D1*
X1162063Y1143218D1*
X1164948Y1144644D1*
X1169259D1*
X1172111Y1143218D1*
X1174996Y1140333D1*
X1176422Y1136022D1*
Y1133170D1*
X1174996Y1128859D1*
X1172111Y1126007D1*
X1169259Y1124548D1*
X1164948D1*
X1162063Y1126007D1*
X1159211Y1128859D1*
X1148489Y1144644D2*
X1139900Y1124548D1*
X1142752Y1118811D1*
X1145637Y1115926D1*
X1148489Y1114500D1*
X1149948D1*
X1131278Y1144644D2*
X1139900Y1124548D1*
M02*
