G04 DipTrace 3.0.0.2*
G04 Bottom[GND].gbr*
%MOIN*%
G04 #@! TF.FileFunction,Copper,L4,Bot*
G04 #@! TF.Part,Single*
%ADD16C,0.059055*%
%ADD28C,0.066929*%
%ADD29C,0.074803*%
%ADD32C,0.07874*%
G04 #@! TA.AperFunction,CopperBalancing*
%ADD14C,0.012992*%
%ADD19C,0.025*%
%ADD42R,0.063X0.046*%
%ADD43R,0.008X0.025*%
G04 #@! TA.AperFunction,ViaPad*
%ADD46C,0.027559*%
%ADD48C,0.04*%
%FSLAX26Y26*%
G04*
G70*
G90*
G75*
G01*
G04 Bottom_Plane*
%LPD*%
X1193785Y775010D2*
D14*
X1212537D1*
X1268793Y831266D1*
X993718Y900024D2*
X1006265D1*
X1287545Y975031D2*
X1278167Y965653D1*
X1762450Y1012471D2*
X1765612Y1009310D1*
X1850104Y950029D2*
Y968829D1*
X1112526Y700001D2*
X1109400Y703127D1*
X1106276Y700003D1*
X2031223Y1306173D2*
D16*
X1931223D1*
X987475Y699921D2*
D14*
Y549923D1*
X937474Y499921D1*
X1193785Y715010D2*
X1187474D1*
Y575045D1*
X1212531Y549987D1*
X1487408D1*
X1537474Y499921D1*
D46*
X1850104Y1043789D3*
D48*
X1293724Y1074924D3*
D46*
X1431310Y681251D3*
D48*
X993718Y900024D3*
X1287545Y975031D3*
D46*
X1762450Y1012471D3*
X1850104Y950029D3*
D48*
X1112526Y700001D3*
D46*
X1525232Y756258D3*
X1618824Y974848D3*
X1462240Y1212556D3*
D3*
X1650083Y912525D3*
X1543701Y899970D3*
X1112526Y756258D3*
X1493736Y1231308D3*
X1525232Y1212556D3*
D48*
X1999974Y724924D3*
D46*
X1556728Y787512D3*
D48*
X749988Y1281314D3*
D46*
X1937450Y806220D3*
X1588224Y1212424D3*
X1437474Y1018673D3*
X1050020Y925026D3*
X1837451Y874971D3*
D48*
X1268793Y831266D3*
X449268Y1301234D2*
D19*
X702470D1*
X797509D2*
X1570146D1*
X1892285D2*
X2070146D1*
X2192285D2*
X2307500D1*
X448096Y1276365D2*
X698466D1*
X801465D2*
X856524D1*
X918408D2*
X956524D1*
X1018408D2*
X1056524D1*
X1118408D2*
X1578056D1*
X1884374D2*
X2078056D1*
X2277490D2*
X2307841D1*
X448096Y1251496D2*
X495585D1*
X566845D2*
X708281D1*
X791698D2*
X832549D1*
X1142382D2*
X1441436D1*
X1546045D2*
X1567705D1*
X1655273D2*
X1707157D1*
X1755273D2*
X1807157D1*
X1855273D2*
X1991289D1*
X2071436D2*
X2107157D1*
X2155273D2*
X2169512D1*
X2293261D2*
X2307841D1*
X448096Y1226627D2*
X470781D1*
X591650D2*
X826249D1*
X1148730D2*
X1419072D1*
X1631348D2*
X1973710D1*
X2089013D2*
X2166337D1*
X448096Y1201758D2*
X462559D1*
X599902D2*
X830937D1*
X1143993D2*
X1418096D1*
X1632421D2*
X1970293D1*
X2092480D2*
X2173564D1*
X2289209D2*
X2307841D1*
X448096Y1176890D2*
X464218D1*
X598241D2*
X851104D1*
X1123828D2*
X1435673D1*
X1614990D2*
X1978008D1*
X2084765D2*
X2185820D1*
X2276953D2*
X2307841D1*
X448096Y1152021D2*
X476689D1*
X585741D2*
X832841D1*
X1142138D2*
X1920829D1*
X1941860D2*
X2006328D1*
X2056396D2*
X2169706D1*
X2293066D2*
X2307841D1*
X448096Y1127152D2*
X471073D1*
X591357D2*
X826249D1*
X1148730D2*
X1880449D1*
X1982226D2*
X2166337D1*
X448096Y1102283D2*
X462656D1*
X599804D2*
X830741D1*
X1144238D2*
X1250273D1*
X1337157D2*
X1870684D1*
X1991992D2*
X2173320D1*
X2289501D2*
X2307841D1*
X448096Y1077415D2*
X464119D1*
X598340D2*
X850370D1*
X924560D2*
X950370D1*
X1024560D2*
X1050370D1*
X1124560D2*
X1242021D1*
X1345409D2*
X1820781D1*
X1990282D2*
X2196806D1*
X2265966D2*
X2307841D1*
X448096Y1052546D2*
X476249D1*
X586181D2*
X1247344D1*
X1340088D2*
X1408428D1*
X1466504D2*
X1805497D1*
X1975732D2*
X2307841D1*
X448096Y1027677D2*
X471416D1*
X591064D2*
X855058D1*
X932470D2*
X1277324D1*
X1310108D2*
X1392900D1*
X1482030D2*
X1807696D1*
X1892480D2*
X2036454D1*
X2113818D2*
X2307841D1*
X448096Y1002808D2*
X462656D1*
X599756D2*
X666142D1*
X758837D2*
X821513D1*
X966016D2*
X1395000D1*
X1479980D2*
X1583622D1*
X1654052D2*
X1834501D1*
X1865722D2*
X2002861D1*
X2147362D2*
X2307841D1*
X448096Y977940D2*
X463924D1*
X598486D2*
X647294D1*
X777685D2*
X806524D1*
X981005D2*
X1421122D1*
X1453857D2*
X1573417D1*
X1664257D2*
X1987870D1*
X2162353D2*
X2186944D1*
X2275488D2*
X2307841D1*
X448096Y953071D2*
X475860D1*
X586572D2*
X641436D1*
X783545D2*
X800370D1*
X987157D2*
X1014873D1*
X1085156D2*
X1579228D1*
X1666992D2*
X1903496D1*
X1959228D2*
X1981718D1*
X2292480D2*
X2307841D1*
X448096Y928202D2*
X516240D1*
X546192D2*
X644950D1*
X780029D2*
X801249D1*
X986280D2*
X1004575D1*
X1095409D2*
X1508720D1*
X1578661D2*
X1607500D1*
X1692676D2*
X1877276D1*
X448096Y903333D2*
X659697D1*
X765282D2*
X809306D1*
X978173D2*
X1010381D1*
X1089697D2*
X1498320D1*
X1589112D2*
X1605529D1*
X1694629D2*
X1802617D1*
X2159570D2*
X2172538D1*
X2289941D2*
X2307841D1*
X448096Y878465D2*
X827373D1*
X960156D2*
X1252226D1*
X1285352D2*
X1503936D1*
X1583446D2*
X1621269D1*
X1678857D2*
X1792070D1*
X1988525D2*
X2008720D1*
X2141504D2*
X2187529D1*
X2274902D2*
X2307841D1*
X448096Y853596D2*
X876592D1*
X910937D2*
X1222392D1*
X1315185D2*
X1797588D1*
X1877294D2*
X1892867D1*
X1969873D2*
X2057940D1*
X2092333D2*
X2170146D1*
X2292285D2*
X2307841D1*
X448096Y828727D2*
X791680D1*
X833252D2*
X1213213D1*
X1320458D2*
X1541874D1*
X1571581D2*
X1898272D1*
X1976612D2*
X2166045D1*
X556348Y803858D2*
X758037D1*
X866944D2*
X924248D1*
X1050732D2*
X1130546D1*
X1312206D2*
X1514433D1*
X1599024D2*
X1891972D1*
X1982909D2*
X2172294D1*
X2290185D2*
X2307841D1*
X563720Y778989D2*
X748125D1*
X876856D2*
X924248D1*
X1050732D2*
X1073516D1*
X1269580D2*
X1486210D1*
X1601416D2*
X1901640D1*
X1973241D2*
X2193925D1*
X2268505D2*
X2307841D1*
X563720Y754121D2*
X749004D1*
X875976D2*
X924248D1*
X1050732D2*
X1067067D1*
X1257030D2*
X1479765D1*
X1586377D2*
X1957793D1*
X2042138D2*
X2307841D1*
X563720Y729252D2*
X761260D1*
X863720D2*
X924248D1*
X1050732D2*
X1076542D1*
X1257030D2*
X1489238D1*
X1561230D2*
X1948417D1*
X2051513D2*
X2307841D1*
X563720Y704383D2*
X758378D1*
X866601D2*
X924248D1*
X1050732D2*
X1130546D1*
X1257030D2*
X1392509D1*
X1470068D2*
X1952714D1*
X2047217D2*
X2307841D1*
X563720Y679514D2*
X748222D1*
X876757D2*
X924248D1*
X1050732D2*
X1130546D1*
X1257030D2*
X1385820D1*
X1476806D2*
X1978398D1*
X2021533D2*
X2307841D1*
X563720Y654646D2*
X748857D1*
X876073D2*
X913554D1*
X1050732D2*
X1113554D1*
X1261425D2*
X1313554D1*
X1361425D2*
X1395000D1*
X1467626D2*
X1513554D1*
X1561425D2*
X1613554D1*
X1661425D2*
X1713554D1*
X1761425D2*
X1813554D1*
X1861425D2*
X1913554D1*
X1961425D2*
X2013554D1*
X2061425D2*
X2182353D1*
X2280077D2*
X2307841D1*
X563720Y629777D2*
X760869D1*
X864112D2*
X884356D1*
X1025732D2*
X1084356D1*
X2090625D2*
X2168437D1*
X2293993D2*
X2307841D1*
X563720Y604908D2*
X758769D1*
X1025732D2*
X1076396D1*
X2098534D2*
X2166484D1*
X563720Y580039D2*
X748320D1*
X1025732D2*
X1079668D1*
X2095264D2*
X2175029D1*
X2287450D2*
X2307841D1*
X563720Y555171D2*
X748760D1*
X876220D2*
X896856D1*
X1060009D2*
X1096856D1*
X2078076D2*
X2182841D1*
X2279589D2*
X2307841D1*
X561572Y530302D2*
X656865D1*
X743066D2*
X760429D1*
X864550D2*
X884648D1*
X2090282D2*
X2168633D1*
X2293848D2*
X2307841D1*
X539794Y505433D2*
X635966D1*
X763965D2*
X876445D1*
X2098486D2*
X2166386D1*
X448096Y480564D2*
X629081D1*
X770849D2*
X879472D1*
X2095458D2*
X2174688D1*
X2287744D2*
X2307841D1*
X456982Y455695D2*
X631621D1*
X768310D2*
X896269D1*
X2078710D2*
X2201982D1*
X2260449D2*
X2303301D1*
X2293919Y1226378D2*
X2292379Y1216657D1*
X2289337Y1207299D1*
X2284870Y1198530D1*
X2279087Y1190570D1*
X2272127Y1183610D1*
X2269213Y1181312D1*
X2275899Y1175487D1*
X2282350Y1167861D1*
X2287509Y1159307D1*
X2291245Y1150042D1*
X2293462Y1140302D1*
X2294112Y1131298D1*
X2293316Y1121340D1*
X2290949Y1111635D1*
X2287072Y1102429D1*
X2281782Y1093955D1*
X2275213Y1086429D1*
X2267533Y1080042D1*
X2258936Y1074954D1*
X2249640Y1071297D1*
X2239882Y1069161D1*
X2229908Y1068604D1*
X2219972Y1069635D1*
X2210325Y1072232D1*
X2201214Y1076327D1*
X2192869Y1081818D1*
X2185501Y1088563D1*
X2179298Y1096392D1*
X2174416Y1105109D1*
X2170982Y1114488D1*
X2169079Y1124295D1*
X2168757Y1134279D1*
X2170025Y1144188D1*
X2172850Y1153769D1*
X2177161Y1162781D1*
X2182849Y1170993D1*
X2189768Y1178198D1*
X2193551Y1181299D1*
X2187054Y1186953D1*
X2180664Y1194437D1*
X2175521Y1202827D1*
X2171756Y1211919D1*
X2169458Y1221487D1*
X2168686Y1231298D1*
X2169458Y1241109D1*
X2171756Y1250677D1*
X2175521Y1259769D1*
X2180664Y1268159D1*
X2187054Y1275643D1*
X2194538Y1282033D1*
X2202928Y1287176D1*
X2212020Y1290941D1*
X2221588Y1293239D1*
X2231399Y1294010D1*
X2241210Y1293239D1*
X2250778Y1290941D1*
X2259870Y1287176D1*
X2268260Y1282033D1*
X2275744Y1275643D1*
X2282134Y1268159D1*
X2287277Y1259769D1*
X2291042Y1250677D1*
X2293340Y1241109D1*
X2294112Y1231298D1*
X2293919Y1226378D1*
X2293887Y509924D2*
X2292696Y500005D1*
X2289944Y490402D1*
X2285702Y481358D1*
X2280079Y473102D1*
X2273215Y465844D1*
X2265287Y459766D1*
X2256493Y455026D1*
X2247060Y451743D1*
X2237224Y449997D1*
X2227236Y449837D1*
X2217349Y451264D1*
X2207814Y454243D1*
X2198873Y458698D1*
X2190753Y464517D1*
X2183660Y471551D1*
X2177774Y479622D1*
X2173244Y488525D1*
X2170185Y498034D1*
X2168675Y507909D1*
X2168751Y517898D1*
X2170413Y527748D1*
X2173618Y537210D1*
X2178285Y546042D1*
X2184295Y554021D1*
X2191495Y560945D1*
X2193377Y562424D1*
X2186879Y568077D1*
X2180490Y575562D1*
X2175346Y583951D1*
X2171581Y593043D1*
X2169283Y602612D1*
X2168512Y612423D1*
X2169283Y622234D1*
X2171581Y631802D1*
X2175346Y640894D1*
X2180490Y649283D1*
X2186879Y656768D1*
X2194364Y663157D1*
X2202753Y668300D1*
X2211845Y672066D1*
X2221413Y674363D1*
X2231224Y675135D1*
X2241035Y674363D1*
X2250604Y672066D1*
X2259696Y668300D1*
X2268085Y663157D1*
X2275570Y656768D1*
X2281959Y649283D1*
X2287102Y640894D1*
X2290867Y631802D1*
X2293165Y622234D1*
X2293937Y612423D1*
X2293165Y602612D1*
X2290867Y593043D1*
X2287102Y583951D1*
X2281959Y575562D1*
X2275570Y568077D1*
X2269038Y562437D1*
X2275724Y556612D1*
X2282176Y548986D1*
X2287335Y540432D1*
X2291071Y531167D1*
X2293287Y521426D1*
X2293937Y512423D1*
X2293887Y509924D1*
X984852Y936609D2*
X982609Y922447D1*
X978178Y908812D1*
X971669Y896037D1*
X963241Y884437D1*
X953104Y874299D1*
X941504Y865871D1*
X928728Y859362D1*
X915093Y854932D1*
X900932Y852689D1*
X886593D1*
X872432Y854932D1*
X858797Y859362D1*
X846021Y865871D1*
X834421Y874299D1*
X824283Y884437D1*
X815856Y896037D1*
X809346Y908812D1*
X804916Y922447D1*
X802673Y936609D1*
Y950947D1*
X804916Y965109D1*
X809346Y978744D1*
X815856Y991520D1*
X824283Y1003119D1*
X834421Y1013257D1*
X846021Y1021685D1*
X858797Y1028194D1*
X872432Y1032625D1*
X886593Y1034867D1*
X900932D1*
X915093Y1032625D1*
X928728Y1028194D1*
X941504Y1021685D1*
X953104Y1013257D1*
X963241Y1003119D1*
X971669Y991520D1*
X978178Y978744D1*
X982609Y965109D1*
X984852Y950947D1*
Y936609D1*
X2166211D2*
X2163969Y922447D1*
X2159538Y908812D1*
X2153029Y896037D1*
X2144601Y884437D1*
X2134463Y874299D1*
X2122864Y865871D1*
X2110088Y859362D1*
X2096453Y854932D1*
X2082291Y852689D1*
X2067953D1*
X2053791Y854932D1*
X2040156Y859362D1*
X2027381Y865871D1*
X2015781Y874299D1*
X2005643Y884437D1*
X1997215Y896037D1*
X1990706Y908812D1*
X1986276Y922447D1*
X1984033Y936609D1*
Y950947D1*
X1986276Y965109D1*
X1990706Y978744D1*
X1997215Y991520D1*
X2005643Y1003119D1*
X2015781Y1013257D1*
X2027381Y1021685D1*
X2040156Y1028194D1*
X2053791Y1032625D1*
X2067953Y1034867D1*
X2082291D1*
X2096453Y1032625D1*
X2110088Y1028194D1*
X2122864Y1021685D1*
X2134463Y1013257D1*
X2144601Y1003119D1*
X2153029Y991520D1*
X2159538Y978744D1*
X2163969Y965109D1*
X2166211Y950947D1*
Y936609D1*
X875007Y563819D2*
X873467Y554098D1*
X870425Y544740D1*
X865958Y535971D1*
X860175Y528010D1*
X853215Y521051D1*
X845255Y515268D1*
X836486Y510800D1*
X827127Y507758D1*
X817407Y506219D1*
X807567D1*
X797846Y507758D1*
X788488Y510800D1*
X779719Y515268D1*
X771759Y521051D1*
X764799Y528010D1*
X759016Y535971D1*
X754549Y544740D1*
X751507Y554098D1*
X749967Y563819D1*
Y573659D1*
X751507Y583379D1*
X754549Y592737D1*
X759016Y601507D1*
X764799Y609467D1*
X771759Y616426D1*
X774673Y618724D1*
X768142Y624394D1*
X761752Y631878D1*
X756609Y640268D1*
X752844Y649360D1*
X750546Y658928D1*
X749774Y668739D1*
X750546Y678550D1*
X752844Y688118D1*
X756609Y697210D1*
X761752Y705600D1*
X768142Y713084D1*
X774673Y718724D1*
X768329Y724209D1*
X761819Y731785D1*
X756593Y740299D1*
X752787Y749535D1*
X750495Y759258D1*
X749776Y769222D1*
X750648Y779173D1*
X753089Y788860D1*
X757038Y798035D1*
X762394Y806468D1*
X769020Y813944D1*
X776748Y820272D1*
X785385Y825293D1*
X794707Y828878D1*
X804483Y830938D1*
X814461Y831420D1*
X824388Y830312D1*
X834014Y827640D1*
X843093Y823475D1*
X851396Y817921D1*
X858713Y811119D1*
X864854Y803241D1*
X869669Y794489D1*
X873033Y785083D1*
X874860Y775262D1*
X875150Y766240D1*
X873958Y756321D1*
X871206Y746718D1*
X866965Y737674D1*
X861341Y729419D1*
X854478Y722160D1*
X850328Y718737D1*
X856832Y713084D1*
X863222Y705600D1*
X868365Y697210D1*
X872130Y688118D1*
X874428Y678550D1*
X875199Y668739D1*
X874428Y658928D1*
X872130Y649360D1*
X868365Y640268D1*
X863222Y631878D1*
X856832Y624394D1*
X850301Y618753D1*
X856832Y613084D1*
X863222Y605600D1*
X868365Y597210D1*
X872130Y588118D1*
X874428Y578550D1*
X875199Y568739D1*
X875007Y563819D1*
X768379Y469596D2*
X766694Y458961D1*
X763367Y448720D1*
X761930Y445605D1*
X914982Y445619D1*
X906764Y449807D1*
X899302Y455228D1*
X892781Y461749D1*
X887360Y469211D1*
X883172Y477429D1*
X880322Y486201D1*
X878879Y495310D1*
Y504533D1*
X880322Y513642D1*
X883172Y522413D1*
X887360Y530631D1*
X892781Y538093D1*
X899302Y544614D1*
X906598Y549925D1*
X899302Y555228D1*
X892781Y561749D1*
X887360Y569211D1*
X883172Y577429D1*
X880322Y586201D1*
X878879Y595310D1*
Y604533D1*
X880322Y613642D1*
X883172Y622413D1*
X887360Y630631D1*
X892781Y638093D1*
X899302Y644614D1*
X906764Y650035D1*
X914982Y654223D1*
X923753Y657073D1*
X926741Y657667D1*
X926727Y812169D1*
X1048223D1*
Y647673D1*
X1023175D1*
X1023219Y556904D1*
X1032862Y558516D1*
X1042085D1*
X1051194Y557073D1*
X1059966Y554223D1*
X1068184Y550035D1*
X1075646Y544614D1*
X1082167Y538093D1*
X1087478Y530797D1*
X1092781Y538093D1*
X1099302Y544614D1*
X1106598Y549925D1*
X1099302Y555228D1*
X1092781Y561749D1*
X1087360Y569211D1*
X1083172Y577429D1*
X1080322Y586201D1*
X1078879Y595310D1*
Y604533D1*
X1080322Y613642D1*
X1083172Y622413D1*
X1087360Y630631D1*
X1092781Y638093D1*
X1099302Y644614D1*
X1106764Y650035D1*
X1114982Y654223D1*
X1123753Y657073D1*
X1132862Y658516D1*
X1142085D1*
X1151732Y656921D1*
X1151730Y662789D1*
X1133037Y662762D1*
Y718475D1*
X1125823Y715337D1*
X1119257Y713761D1*
X1112526Y713231D1*
X1105795Y713761D1*
X1099230Y715337D1*
X1092992Y717921D1*
X1087235Y721449D1*
X1082101Y725833D1*
X1077717Y730967D1*
X1074189Y736724D1*
X1071605Y742962D1*
X1070029Y749528D1*
X1069499Y756258D1*
X1070029Y762989D1*
X1071605Y769555D1*
X1074189Y775793D1*
X1077717Y781550D1*
X1082101Y786684D1*
X1087235Y791068D1*
X1092992Y794596D1*
X1099230Y797180D1*
X1105795Y798756D1*
X1112526Y799286D1*
X1119257Y798756D1*
X1125823Y797180D1*
X1133039Y794049D1*
X1133037Y827258D1*
X1214238D1*
X1219697Y835130D1*
X1220906Y842764D1*
X1223294Y850113D1*
X1226802Y856999D1*
X1231344Y863251D1*
X1236808Y868715D1*
X1243060Y873257D1*
X1249946Y876765D1*
X1257295Y879153D1*
X1264929Y880362D1*
X1272656D1*
X1280290Y879153D1*
X1287639Y876765D1*
X1294525Y873257D1*
X1300777Y868715D1*
X1306241Y863251D1*
X1310783Y856999D1*
X1314291Y850113D1*
X1316680Y842764D1*
X1317888Y835130D1*
Y827403D1*
X1316680Y819769D1*
X1314291Y812420D1*
X1310783Y805534D1*
X1306241Y799282D1*
X1300777Y793818D1*
X1294525Y789276D1*
X1287639Y785768D1*
X1280290Y783379D1*
X1272656Y782171D1*
X1270136Y782071D1*
X1254534Y766458D1*
X1254533Y662762D1*
X1223234D1*
X1223753Y657073D1*
X1232862Y658516D1*
X1242085D1*
X1251194Y657073D1*
X1259966Y654223D1*
X1268184Y650035D1*
X1275646Y644614D1*
X1282167Y638093D1*
X1287478Y630797D1*
X1292781Y638093D1*
X1299302Y644614D1*
X1306764Y650035D1*
X1314982Y654223D1*
X1323753Y657073D1*
X1332862Y658516D1*
X1342085D1*
X1351194Y657073D1*
X1359966Y654223D1*
X1368184Y650035D1*
X1375646Y644614D1*
X1382167Y638093D1*
X1387478Y630797D1*
X1392781Y638093D1*
X1399302Y644614D1*
X1403870Y648102D1*
X1398592Y653307D1*
X1394622Y658769D1*
X1391558Y664785D1*
X1389471Y671206D1*
X1388415Y677875D1*
Y684626D1*
X1389471Y691295D1*
X1391558Y697716D1*
X1394622Y703732D1*
X1398592Y709194D1*
X1403366Y713968D1*
X1408828Y717938D1*
X1414844Y721003D1*
X1421265Y723089D1*
X1427934Y724146D1*
X1434685D1*
X1441354Y723089D1*
X1447776Y721003D1*
X1453791Y717938D1*
X1459253Y713968D1*
X1464028Y709194D1*
X1467997Y703732D1*
X1471062Y697716D1*
X1473148Y691295D1*
X1474205Y684626D1*
Y677875D1*
X1473148Y671206D1*
X1471062Y664785D1*
X1467997Y658769D1*
X1463428Y652657D1*
X1472021Y647471D1*
X1479034Y641482D1*
X1485024Y634468D1*
X1487478Y630797D1*
X1492781Y638093D1*
X1499302Y644614D1*
X1506764Y650035D1*
X1514982Y654223D1*
X1523753Y657073D1*
X1532862Y658516D1*
X1542085D1*
X1551194Y657073D1*
X1559966Y654223D1*
X1568184Y650035D1*
X1575646Y644614D1*
X1582167Y638093D1*
X1587478Y630797D1*
X1592781Y638093D1*
X1599302Y644614D1*
X1606764Y650035D1*
X1614982Y654223D1*
X1623753Y657073D1*
X1632862Y658516D1*
X1642085D1*
X1651194Y657073D1*
X1659966Y654223D1*
X1668184Y650035D1*
X1675646Y644614D1*
X1682167Y638093D1*
X1687478Y630797D1*
X1692781Y638093D1*
X1699302Y644614D1*
X1706764Y650035D1*
X1714982Y654223D1*
X1723753Y657073D1*
X1732862Y658516D1*
X1742085D1*
X1751194Y657073D1*
X1759966Y654223D1*
X1768184Y650035D1*
X1775646Y644614D1*
X1782167Y638093D1*
X1787478Y630797D1*
X1792781Y638093D1*
X1799302Y644614D1*
X1806764Y650035D1*
X1814982Y654223D1*
X1823753Y657073D1*
X1832862Y658516D1*
X1842085D1*
X1851194Y657073D1*
X1859966Y654223D1*
X1868184Y650035D1*
X1875646Y644614D1*
X1882167Y638093D1*
X1887478Y630797D1*
X1892781Y638093D1*
X1899302Y644614D1*
X1906764Y650035D1*
X1914982Y654223D1*
X1923753Y657073D1*
X1932862Y658516D1*
X1942085D1*
X1951194Y657073D1*
X1959966Y654223D1*
X1968184Y650035D1*
X1975646Y644614D1*
X1982167Y638093D1*
X1987478Y630797D1*
X1992781Y638093D1*
X1999302Y644614D1*
X2006764Y650035D1*
X2014982Y654223D1*
X2023753Y657073D1*
X2032862Y658516D1*
X2042085D1*
X2051194Y657073D1*
X2059966Y654223D1*
X2068184Y650035D1*
X2075646Y644614D1*
X2082167Y638093D1*
X2087588Y630631D1*
X2091776Y622413D1*
X2094626Y613642D1*
X2096068Y604533D1*
Y595310D1*
X2094626Y586201D1*
X2091776Y577429D1*
X2087588Y569211D1*
X2082167Y561749D1*
X2075646Y555228D1*
X2068349Y549917D1*
X2075646Y544614D1*
X2082167Y538093D1*
X2087588Y530631D1*
X2091776Y522413D1*
X2094626Y513642D1*
X2096068Y504533D1*
Y495310D1*
X2094626Y486201D1*
X2091776Y477429D1*
X2087588Y469211D1*
X2082167Y461749D1*
X2075646Y455228D1*
X2068184Y449807D1*
X2059882Y445588D1*
X2283016Y445591D1*
X2293228Y446766D1*
X2298887Y449083D1*
X2303689Y452842D1*
X2307291Y457765D1*
X2309423Y463479D1*
X2310336Y474596D1*
X2310335Y1297143D1*
X2309423Y1308216D1*
X2307291Y1313928D1*
X2303692Y1318848D1*
X2298888Y1322608D1*
X2293245Y1324925D1*
X2283010Y1326101D1*
X2186512D1*
X2188377Y1319894D1*
X2189819Y1310785D1*
Y1301562D1*
X2188377Y1292453D1*
X2185526Y1283681D1*
X2181339Y1275463D1*
X2175917Y1268001D1*
X2169396Y1261480D1*
X2161934Y1256059D1*
X2153717Y1251871D1*
X2144945Y1249021D1*
X2135836Y1247579D1*
X2126613D1*
X2117504Y1249021D1*
X2108732Y1251871D1*
X2100514Y1256059D1*
X2093052Y1261480D1*
X2086531Y1268001D1*
X2081110Y1275463D1*
X2076923Y1283681D1*
X2074072Y1292453D1*
X2072630Y1301562D1*
Y1310785D1*
X2074072Y1319894D1*
X2075980Y1326112D1*
X1886512Y1326101D1*
X1888375Y1319894D1*
X1889818Y1310785D1*
Y1301562D1*
X1888375Y1292453D1*
X1885525Y1283681D1*
X1881337Y1275463D1*
X1875916Y1268001D1*
X1869395Y1261480D1*
X1861933Y1256059D1*
X1853715Y1251871D1*
X1844944Y1249021D1*
X1835835Y1247579D1*
X1826612D1*
X1817503Y1249021D1*
X1808731Y1251871D1*
X1800513Y1256059D1*
X1793051Y1261480D1*
X1786530Y1268001D1*
X1781219Y1275298D1*
X1775916Y1268001D1*
X1769395Y1261480D1*
X1761933Y1256059D1*
X1753715Y1251871D1*
X1744944Y1249021D1*
X1735835Y1247579D1*
X1726612D1*
X1717503Y1249021D1*
X1708731Y1251871D1*
X1700513Y1256059D1*
X1693051Y1261480D1*
X1686530Y1268001D1*
X1681219Y1275298D1*
X1675916Y1268001D1*
X1669395Y1261480D1*
X1661933Y1256059D1*
X1653715Y1251871D1*
X1644944Y1249021D1*
X1635835Y1247579D1*
X1626612D1*
X1617503Y1249021D1*
X1608731Y1251871D1*
X1600513Y1256059D1*
X1593051Y1261480D1*
X1586530Y1268001D1*
X1581109Y1275463D1*
X1576921Y1283681D1*
X1574071Y1292453D1*
X1572629Y1301562D1*
Y1310785D1*
X1574071Y1319894D1*
X1575979Y1326112D1*
X770496Y1326102D1*
X778936Y1321156D1*
X784812Y1316138D1*
X789831Y1310261D1*
X793869Y1303672D1*
X796825Y1296531D1*
X798630Y1289018D1*
X799236Y1281314D1*
X798630Y1273609D1*
X796825Y1266096D1*
X793869Y1258955D1*
X789831Y1252366D1*
X784812Y1246489D1*
X778936Y1241471D1*
X772346Y1237433D1*
X765206Y1234476D1*
X757693Y1232672D1*
X749988Y1232066D1*
X742283Y1232672D1*
X734770Y1234476D1*
X727630Y1237433D1*
X721041Y1241471D1*
X715164Y1246489D1*
X710146Y1252366D1*
X706108Y1258955D1*
X703151Y1266096D1*
X701346Y1273609D1*
X700740Y1281314D1*
X701346Y1289018D1*
X703151Y1296531D1*
X706108Y1303672D1*
X710146Y1310261D1*
X715164Y1316138D1*
X721041Y1321156D1*
X727630Y1325194D1*
X729592Y1326098D1*
X478795Y1326102D1*
X468505Y1324584D1*
X461416Y1321618D1*
X455270Y1316992D1*
X450453Y1310993D1*
X447265Y1303995D1*
X445575Y1294609D1*
X445572Y822421D1*
X522059Y822262D1*
X528646Y821219D1*
X534988Y819159D1*
X540930Y816131D1*
X546325Y812211D1*
X551042Y807495D1*
X554962Y802100D1*
X557990Y796157D1*
X560050Y789815D1*
X561093Y783228D1*
X561224Y692394D1*
X561093Y540339D1*
X560050Y533752D1*
X557990Y527409D1*
X554962Y521467D1*
X551042Y516072D1*
X546325Y511356D1*
X540930Y507436D1*
X534988Y504408D1*
X528646Y502348D1*
X522059Y501304D1*
X445531Y501173D1*
X445571Y477083D1*
X447262Y467710D1*
X450454Y460697D1*
X455272Y454698D1*
X461419Y450073D1*
X468514Y447108D1*
X478772Y445591D1*
X637962D1*
X634713Y453774D1*
X632199Y464245D1*
X631354Y474979D1*
X632199Y485713D1*
X634713Y496184D1*
X638833Y506131D1*
X644459Y515312D1*
X651453Y523499D1*
X659639Y530492D1*
X668820Y536118D1*
X678768Y540239D1*
X689239Y542752D1*
X699972Y543597D1*
X710706Y542752D1*
X721177Y540239D1*
X731125Y536118D1*
X740306Y530492D1*
X748492Y523499D1*
X755486Y515312D1*
X761112Y506131D1*
X765232Y496184D1*
X767745Y485713D1*
X768591Y474979D1*
X768379Y469596D1*
X780891Y944646D2*
X779206Y934010D1*
X775879Y923770D1*
X770991Y914176D1*
X764661Y905465D1*
X757049Y897852D1*
X748337Y891522D1*
X738743Y886634D1*
X728503Y883307D1*
X717867Y881622D1*
X707101D1*
X696466Y883307D1*
X686226Y886634D1*
X676631Y891522D1*
X667920Y897852D1*
X660307Y905465D1*
X653978Y914176D1*
X649089Y923770D1*
X645762Y934010D1*
X644077Y944646D1*
Y955412D1*
X645762Y966047D1*
X649089Y976287D1*
X653978Y985882D1*
X660307Y994593D1*
X667920Y1002206D1*
X676631Y1008535D1*
X686226Y1013424D1*
X696466Y1016751D1*
X707101Y1018436D1*
X717867D1*
X728503Y1016751D1*
X738743Y1013424D1*
X748337Y1008535D1*
X757049Y1002206D1*
X764661Y994593D1*
X770991Y985882D1*
X775879Y976287D1*
X779206Y966047D1*
X780891Y955412D1*
Y944646D1*
X2089967Y1201694D2*
X2088525Y1192585D1*
X2085675Y1183814D1*
X2081487Y1175596D1*
X2076066Y1168134D1*
X2069545Y1161613D1*
X2062083Y1156192D1*
X2053865Y1152004D1*
X2045093Y1149153D1*
X2035984Y1147711D1*
X2026761D1*
X2017652Y1149153D1*
X2008881Y1152004D1*
X2000663Y1156192D1*
X1993201Y1161613D1*
X1986680Y1168134D1*
X1981259Y1175596D1*
X1977071Y1183814D1*
X1974220Y1192585D1*
X1972778Y1201694D1*
Y1210917D1*
X1974220Y1220026D1*
X1977071Y1228798D1*
X1981259Y1237016D1*
X1986680Y1244478D1*
X1993201Y1250999D1*
X2000663Y1256420D1*
X2008881Y1260608D1*
X2017652Y1263458D1*
X2026761Y1264900D1*
X2035984D1*
X2045093Y1263458D1*
X2053865Y1260608D1*
X2062083Y1256420D1*
X2069545Y1250999D1*
X2076066Y1244478D1*
X2081487Y1237016D1*
X2085675Y1228798D1*
X2088525Y1220026D1*
X2089967Y1210917D1*
Y1201694D1*
X2293887Y828674D2*
X2292696Y818756D1*
X2289944Y809152D1*
X2285702Y800109D1*
X2280079Y791853D1*
X2273215Y784594D1*
X2265287Y778517D1*
X2256493Y773777D1*
X2247060Y770493D1*
X2237224Y768748D1*
X2227236Y768588D1*
X2217349Y770014D1*
X2207814Y772993D1*
X2198873Y777449D1*
X2190753Y783268D1*
X2183660Y790302D1*
X2177774Y798373D1*
X2173244Y807276D1*
X2170185Y816785D1*
X2168675Y826660D1*
X2168751Y836648D1*
X2170413Y846499D1*
X2173618Y855961D1*
X2178285Y864793D1*
X2184295Y872772D1*
X2191495Y879695D1*
X2193377Y881174D1*
X2186879Y886828D1*
X2180490Y894312D1*
X2175346Y902702D1*
X2171581Y911794D1*
X2169283Y921362D1*
X2168512Y931173D1*
X2169283Y940984D1*
X2171581Y950552D1*
X2175346Y959644D1*
X2180490Y968034D1*
X2186879Y975518D1*
X2194364Y981908D1*
X2202753Y987051D1*
X2211845Y990816D1*
X2221413Y993114D1*
X2231224Y993886D1*
X2241035Y993114D1*
X2250604Y990816D1*
X2259696Y987051D1*
X2268085Y981908D1*
X2275570Y975518D1*
X2281959Y968034D1*
X2287102Y959644D1*
X2290867Y950552D1*
X2293165Y940984D1*
X2293937Y931173D1*
X2293165Y921362D1*
X2290867Y911794D1*
X2287102Y902702D1*
X2281959Y894312D1*
X2275570Y886828D1*
X2269038Y881188D1*
X2275724Y875362D1*
X2282176Y867736D1*
X2287335Y859182D1*
X2291071Y849917D1*
X2293287Y840177D1*
X2293937Y831173D1*
X2293887Y828674D1*
X597664Y988444D2*
X596029Y978114D1*
X592797Y968168D1*
X588049Y958849D1*
X581902Y950387D1*
X574507Y942992D1*
X566045Y936845D1*
X556726Y932097D1*
X546780Y928865D1*
X536450Y927230D1*
X525991D1*
X515661Y928865D1*
X505715Y932097D1*
X496396Y936845D1*
X487934Y942992D1*
X480539Y950387D1*
X474392Y958849D1*
X469644Y968168D1*
X466412Y978114D1*
X464777Y988444D1*
Y998903D1*
X466412Y1009232D1*
X469644Y1019178D1*
X474392Y1028497D1*
X480539Y1036959D1*
X487169Y1043646D1*
X480394Y1050560D1*
X474520Y1058642D1*
X469920Y1067510D1*
X466698Y1076967D1*
X464927Y1086799D1*
X464643Y1096786D1*
X465857Y1106703D1*
X468539Y1116327D1*
X472629Y1125442D1*
X478035Y1133842D1*
X484638Y1141341D1*
X487157Y1143664D1*
X480539Y1150387D1*
X474392Y1158849D1*
X469644Y1168168D1*
X466412Y1178114D1*
X464777Y1188444D1*
Y1198903D1*
X466412Y1209232D1*
X469644Y1219178D1*
X474392Y1228497D1*
X480539Y1236959D1*
X487934Y1244354D1*
X496396Y1250501D1*
X505715Y1255249D1*
X515661Y1258482D1*
X525991Y1260117D1*
X536450D1*
X546780Y1258482D1*
X556726Y1255249D1*
X566045Y1250501D1*
X574507Y1244354D1*
X581902Y1236959D1*
X588049Y1228497D1*
X592797Y1219178D1*
X596029Y1209232D1*
X597664Y1198903D1*
Y1188444D1*
X596029Y1178114D1*
X592797Y1168168D1*
X588049Y1158849D1*
X581902Y1150387D1*
X575272Y1143701D1*
X582442Y1136316D1*
X588241Y1128181D1*
X592759Y1119270D1*
X595894Y1109783D1*
X597575Y1099936D1*
X597823Y1091173D1*
X596701Y1081247D1*
X594108Y1071598D1*
X590102Y1062446D1*
X584773Y1053996D1*
X578240Y1046437D1*
X575276Y1043674D1*
X581902Y1036959D1*
X588049Y1028497D1*
X592797Y1019178D1*
X596029Y1009232D1*
X597664Y998903D1*
Y988444D1*
X1989949Y1089182D2*
X1988507Y1080073D1*
X1985656Y1071302D1*
X1981469Y1063084D1*
X1976047Y1055622D1*
X1969526Y1049101D1*
X1962064Y1043680D1*
X1953846Y1039492D1*
X1945075Y1036642D1*
X1935966Y1035199D1*
X1926743D1*
X1917634Y1036642D1*
X1908862Y1039492D1*
X1900644Y1043680D1*
X1892745Y1049504D1*
X1893131Y1043789D1*
X1892601Y1037058D1*
X1891025Y1030492D1*
X1888441Y1024255D1*
X1884913Y1018497D1*
X1880529Y1013363D1*
X1875395Y1008979D1*
X1869638Y1005451D1*
X1863400Y1002867D1*
X1856835Y1001291D1*
X1850104Y1000761D1*
X1843373Y1001291D1*
X1836807Y1002867D1*
X1830570Y1005451D1*
X1824812Y1008979D1*
X1819678Y1013363D1*
X1815294Y1018497D1*
X1811766Y1024255D1*
X1809182Y1030492D1*
X1807606Y1037058D1*
X1807076Y1043789D1*
X1807606Y1050520D1*
X1809182Y1057085D1*
X1811766Y1063323D1*
X1815294Y1069080D1*
X1819678Y1074214D1*
X1824812Y1078598D1*
X1830570Y1082126D1*
X1836807Y1084710D1*
X1843373Y1086286D1*
X1850104Y1086816D1*
X1856835Y1086286D1*
X1863400Y1084710D1*
X1869638Y1082126D1*
X1874396Y1079266D1*
X1872760Y1089182D1*
Y1098405D1*
X1874202Y1107514D1*
X1877052Y1116286D1*
X1881240Y1124504D1*
X1886661Y1131966D1*
X1893182Y1138487D1*
X1900644Y1143908D1*
X1908862Y1148096D1*
X1917634Y1150946D1*
X1926743Y1152388D1*
X1935966D1*
X1945075Y1150946D1*
X1953846Y1148096D1*
X1962064Y1143908D1*
X1969526Y1138487D1*
X1976047Y1131966D1*
X1981469Y1124504D1*
X1985656Y1116286D1*
X1988507Y1107514D1*
X1989949Y1098405D1*
Y1089182D1*
Y895442D2*
X1988507Y886333D1*
X1985656Y877562D1*
X1981469Y869344D1*
X1976047Y861882D1*
X1969526Y855361D1*
X1962064Y849940D1*
X1954125Y845881D1*
X1959932Y842908D1*
X1965394Y838938D1*
X1970168Y834164D1*
X1974138Y828702D1*
X1977202Y822686D1*
X1979289Y816265D1*
X1980345Y809596D1*
Y802845D1*
X1979289Y796176D1*
X1977202Y789755D1*
X1974138Y783739D1*
X1970168Y778277D1*
X1965394Y773503D1*
X1959932Y769533D1*
X1953916Y766468D1*
X1947495Y764382D1*
X1940825Y763325D1*
X1934075D1*
X1927406Y764382D1*
X1920984Y766468D1*
X1914969Y769533D1*
X1909507Y773503D1*
X1904732Y778277D1*
X1900762Y783739D1*
X1897698Y789755D1*
X1895612Y796176D1*
X1894555Y802845D1*
Y809596D1*
X1895612Y816265D1*
X1897698Y822686D1*
X1900762Y828702D1*
X1904732Y834164D1*
X1909507Y838938D1*
X1915808Y843378D1*
X1908862Y845752D1*
X1900644Y849940D1*
X1893182Y855361D1*
X1886661Y861882D1*
X1881240Y869344D1*
X1880298Y871026D1*
X1879290Y864926D1*
X1877203Y858505D1*
X1874139Y852489D1*
X1870169Y847028D1*
X1865395Y842253D1*
X1859933Y838283D1*
X1853917Y835219D1*
X1847496Y833132D1*
X1840827Y832076D1*
X1834076D1*
X1827407Y833132D1*
X1820986Y835219D1*
X1814970Y838283D1*
X1809508Y842253D1*
X1804734Y847028D1*
X1800764Y852489D1*
X1797699Y858505D1*
X1795613Y864926D1*
X1794556Y871596D1*
Y878346D1*
X1795613Y885016D1*
X1797699Y891437D1*
X1800764Y897453D1*
X1804734Y902915D1*
X1809508Y907689D1*
X1814970Y911659D1*
X1820986Y914723D1*
X1827407Y916810D1*
X1834076Y917866D1*
X1840827D1*
X1847496Y916810D1*
X1853917Y914723D1*
X1859933Y911659D1*
X1865395Y907689D1*
X1870169Y902915D1*
X1872579Y900054D1*
X1873302Y909248D1*
X1875455Y918216D1*
X1878984Y926737D1*
X1883804Y934601D1*
X1889794Y941614D1*
X1896807Y947604D1*
X1904671Y952424D1*
X1913192Y955953D1*
X1922160Y958106D1*
X1931354Y958829D1*
X1940549Y958106D1*
X1949517Y955953D1*
X1958038Y952424D1*
X1965902Y947604D1*
X1972915Y941614D1*
X1978904Y934601D1*
X1983724Y926737D1*
X1987253Y918216D1*
X1989407Y909248D1*
X1990130Y900054D1*
X1989949Y895442D1*
X937478Y1094030D2*
X933159Y1087941D1*
X928080Y1082428D1*
X922343Y1077606D1*
X916037Y1073554D1*
X909268Y1070337D1*
X902144Y1068008D1*
X894782Y1066604D1*
X887301Y1066148D1*
X879823Y1066648D1*
X872469Y1068097D1*
X865360Y1070468D1*
X858609Y1073726D1*
X852328Y1077815D1*
X846619Y1082672D1*
X841575Y1088214D1*
X837276Y1094354D1*
X833794Y1100991D1*
X831185Y1108017D1*
X829491Y1115318D1*
X828740Y1122776D1*
X828944Y1130268D1*
X830100Y1137673D1*
X832189Y1144870D1*
X835177Y1151744D1*
X839016Y1158182D1*
X843642Y1164079D1*
X848980Y1169339D1*
X856587Y1174917D1*
X849304Y1180231D1*
X842783Y1186752D1*
X837362Y1194214D1*
X833175Y1202432D1*
X830324Y1211203D1*
X828882Y1220312D1*
Y1229535D1*
X830324Y1238644D1*
X833175Y1247416D1*
X837362Y1255634D1*
X842783Y1263096D1*
X849304Y1269617D1*
X856766Y1275038D1*
X864984Y1279226D1*
X873756Y1282076D1*
X882865Y1283518D1*
X892088D1*
X901197Y1282076D1*
X909969Y1279226D1*
X918186Y1275038D1*
X925648Y1269617D1*
X932169Y1263096D1*
X937480Y1255799D1*
X942783Y1263096D1*
X949304Y1269617D1*
X956766Y1275038D1*
X964984Y1279226D1*
X973756Y1282076D1*
X982865Y1283518D1*
X992088D1*
X1001197Y1282076D1*
X1009969Y1279226D1*
X1018186Y1275038D1*
X1025648Y1269617D1*
X1032169Y1263096D1*
X1037480Y1255799D1*
X1042783Y1263096D1*
X1049304Y1269617D1*
X1056766Y1275038D1*
X1064984Y1279226D1*
X1073756Y1282076D1*
X1082865Y1283518D1*
X1092088D1*
X1101197Y1282076D1*
X1109969Y1279226D1*
X1118186Y1275038D1*
X1125648Y1269617D1*
X1132169Y1263096D1*
X1137591Y1255634D1*
X1141778Y1247416D1*
X1144629Y1238644D1*
X1146071Y1229535D1*
Y1220312D1*
X1144629Y1211203D1*
X1141778Y1202432D1*
X1137591Y1194214D1*
X1132169Y1186752D1*
X1125648Y1180231D1*
X1118352Y1174920D1*
X1125648Y1169617D1*
X1132169Y1163096D1*
X1137591Y1155634D1*
X1141778Y1147416D1*
X1144629Y1138644D1*
X1146071Y1129535D1*
Y1120312D1*
X1144629Y1111203D1*
X1141778Y1102432D1*
X1137591Y1094214D1*
X1132169Y1086752D1*
X1125648Y1080231D1*
X1118186Y1074810D1*
X1109969Y1070622D1*
X1101197Y1067772D1*
X1092088Y1066329D1*
X1082865D1*
X1073756Y1067772D1*
X1064984Y1070622D1*
X1056766Y1074810D1*
X1049304Y1080231D1*
X1042783Y1086752D1*
X1037472Y1094049D1*
X1032169Y1086752D1*
X1025648Y1080231D1*
X1018186Y1074810D1*
X1009969Y1070622D1*
X1001197Y1067772D1*
X992088Y1066329D1*
X982865D1*
X973756Y1067772D1*
X964984Y1070622D1*
X956766Y1074810D1*
X949304Y1080231D1*
X942783Y1086752D1*
X937472Y1094049D1*
X1342820Y1071060D2*
X1341612Y1063426D1*
X1339223Y1056077D1*
X1335715Y1049192D1*
X1331173Y1042940D1*
X1325709Y1037475D1*
X1319457Y1032933D1*
X1312571Y1029425D1*
X1305222Y1027037D1*
X1297588Y1025828D1*
X1289861D1*
X1282227Y1027037D1*
X1274878Y1029425D1*
X1267992Y1032933D1*
X1261740Y1037475D1*
X1256276Y1042940D1*
X1251734Y1049192D1*
X1248226Y1056077D1*
X1245837Y1063426D1*
X1244629Y1071060D1*
Y1078787D1*
X1245837Y1086421D1*
X1248226Y1093770D1*
X1251734Y1100656D1*
X1256276Y1106908D1*
X1261740Y1112373D1*
X1267992Y1116915D1*
X1274878Y1120423D1*
X1282227Y1122811D1*
X1289861Y1124020D1*
X1297588D1*
X1305222Y1122811D1*
X1312571Y1120423D1*
X1319457Y1116915D1*
X1325709Y1112373D1*
X1331173Y1106908D1*
X1335715Y1100656D1*
X1339223Y1093770D1*
X1341612Y1086421D1*
X1342820Y1078787D1*
Y1071060D1*
X1566932Y745719D2*
X1564984Y739793D1*
X1561920Y733777D1*
X1557950Y728315D1*
X1553176Y723541D1*
X1547714Y719571D1*
X1541698Y716507D1*
X1535277Y714420D1*
X1528608Y713363D1*
X1521857D1*
X1515188Y714420D1*
X1508766Y716507D1*
X1502751Y719571D1*
X1497289Y723541D1*
X1492514Y728315D1*
X1488545Y733777D1*
X1485480Y739793D1*
X1483394Y746214D1*
X1482337Y752883D1*
Y759634D1*
X1483394Y766303D1*
X1485480Y772724D1*
X1488545Y778740D1*
X1492514Y784202D1*
X1497289Y788976D1*
X1502751Y792946D1*
X1508766Y796010D1*
X1515022Y798051D1*
X1516976Y803978D1*
X1520041Y809993D1*
X1524010Y815455D1*
X1528785Y820230D1*
X1534247Y824199D1*
X1540262Y827264D1*
X1546684Y829350D1*
X1553353Y830407D1*
X1560104D1*
X1566773Y829350D1*
X1573194Y827264D1*
X1579210Y824199D1*
X1584672Y820230D1*
X1589446Y815455D1*
X1593416Y809993D1*
X1596480Y803978D1*
X1598567Y797556D1*
X1599623Y790887D1*
Y784136D1*
X1598567Y777467D1*
X1596480Y771046D1*
X1593416Y765030D1*
X1589446Y759568D1*
X1584672Y754794D1*
X1579210Y750824D1*
X1573194Y747760D1*
X1566938Y745719D1*
X1661719Y971472D2*
X1660663Y964803D1*
X1658576Y958382D1*
X1656988Y955003D1*
X1663379Y953446D1*
X1669617Y950862D1*
X1675374Y947335D1*
X1680508Y942950D1*
X1684892Y937816D1*
X1688420Y932059D1*
X1691004Y925821D1*
X1692580Y919256D1*
X1693110Y912525D1*
X1692580Y905794D1*
X1691004Y899228D1*
X1688420Y892991D1*
X1684892Y887234D1*
X1680508Y882100D1*
X1675374Y877715D1*
X1669617Y874188D1*
X1663379Y871604D1*
X1656814Y870028D1*
X1650083Y869497D1*
X1643352Y870028D1*
X1636786Y871604D1*
X1630549Y874188D1*
X1624791Y877715D1*
X1619657Y882100D1*
X1615273Y887234D1*
X1611745Y892991D1*
X1609161Y899228D1*
X1607585Y905794D1*
X1607055Y912525D1*
X1607585Y919256D1*
X1609161Y925821D1*
X1611919Y932370D1*
X1605528Y933926D1*
X1599290Y936510D1*
X1593533Y940038D1*
X1588399Y944423D1*
X1584014Y949556D1*
X1580487Y955314D1*
X1577903Y961551D1*
X1576327Y968117D1*
X1575797Y974848D1*
X1576327Y981579D1*
X1577903Y988144D1*
X1580487Y994382D1*
X1584014Y1000139D1*
X1588399Y1005273D1*
X1593533Y1009657D1*
X1599290Y1013185D1*
X1605528Y1015769D1*
X1612093Y1017345D1*
X1618824Y1017875D1*
X1625555Y1017345D1*
X1632121Y1015769D1*
X1638358Y1013185D1*
X1644115Y1009657D1*
X1649249Y1005273D1*
X1653634Y1000139D1*
X1657161Y994382D1*
X1659745Y988144D1*
X1661322Y981579D1*
X1661852Y974848D1*
X1661719Y971472D1*
X1493714Y1183265D2*
X1487531Y1177747D1*
X1481774Y1174219D1*
X1475537Y1171635D1*
X1468971Y1170059D1*
X1462240Y1169529D1*
X1455509Y1170059D1*
X1448944Y1171635D1*
X1442706Y1174219D1*
X1436949Y1177747D1*
X1431815Y1182131D1*
X1427430Y1187265D1*
X1423903Y1193022D1*
X1421319Y1199260D1*
X1419743Y1205825D1*
X1419213Y1212556D1*
X1419743Y1219287D1*
X1421319Y1225853D1*
X1423903Y1232091D1*
X1427430Y1237848D1*
X1431815Y1242982D1*
X1436949Y1247366D1*
X1442706Y1250894D1*
X1448944Y1253478D1*
X1455509Y1255054D1*
X1458064Y1255357D1*
X1463311Y1261734D1*
X1468445Y1266118D1*
X1474202Y1269646D1*
X1480440Y1272230D1*
X1487005Y1273806D1*
X1493736Y1274336D1*
X1500467Y1273806D1*
X1507033Y1272230D1*
X1513270Y1269646D1*
X1519028Y1266118D1*
X1524161Y1261734D1*
X1529360Y1255382D1*
X1535277Y1254395D1*
X1541698Y1252308D1*
X1547714Y1249244D1*
X1553176Y1245274D1*
X1556760Y1241790D1*
X1562933Y1247234D1*
X1568690Y1250761D1*
X1574928Y1253345D1*
X1581493Y1254921D1*
X1588224Y1255451D1*
X1594955Y1254921D1*
X1601521Y1253345D1*
X1607759Y1250761D1*
X1613516Y1247234D1*
X1618650Y1242849D1*
X1623034Y1237715D1*
X1626562Y1231958D1*
X1629146Y1225720D1*
X1630722Y1219155D1*
X1631252Y1212424D1*
X1630722Y1205693D1*
X1629146Y1199127D1*
X1626562Y1192890D1*
X1623034Y1187132D1*
X1618650Y1181999D1*
X1613516Y1177614D1*
X1607759Y1174087D1*
X1601521Y1171503D1*
X1594955Y1169926D1*
X1588224Y1169396D1*
X1581493Y1169926D1*
X1574928Y1171503D1*
X1568690Y1174087D1*
X1562933Y1177614D1*
X1556697Y1183190D1*
X1550524Y1177747D1*
X1544766Y1174219D1*
X1538529Y1171635D1*
X1531963Y1170059D1*
X1525232Y1169529D1*
X1518501Y1170059D1*
X1511936Y1171635D1*
X1505698Y1174219D1*
X1499941Y1177747D1*
X1493759Y1183265D1*
X1487531Y1177747D1*
X1481774Y1174219D1*
X1475537Y1171635D1*
X1468971Y1170059D1*
X1462240Y1169529D1*
X1455509Y1170059D1*
X1448944Y1171635D1*
X1442706Y1174219D1*
X1436949Y1177747D1*
X1431815Y1182131D1*
X1427430Y1187265D1*
X1423903Y1193022D1*
X1421319Y1199260D1*
X1419743Y1205825D1*
X1419213Y1212556D1*
X1419743Y1219287D1*
X1421319Y1225853D1*
X1423903Y1232091D1*
X1427430Y1237848D1*
X1431815Y1242982D1*
X1436949Y1247366D1*
X1442706Y1250894D1*
X1448944Y1253478D1*
X1455509Y1255054D1*
X1458064Y1255357D1*
X1586596Y896594D2*
X1585539Y889925D1*
X1583453Y883504D1*
X1580388Y877488D1*
X1576419Y872026D1*
X1571644Y867252D1*
X1566182Y863282D1*
X1560167Y860218D1*
X1553745Y858131D1*
X1547076Y857075D1*
X1540325D1*
X1533656Y858131D1*
X1527235Y860218D1*
X1521219Y863282D1*
X1515757Y867252D1*
X1510983Y872026D1*
X1507013Y877488D1*
X1503949Y883504D1*
X1501862Y889925D1*
X1500806Y896594D1*
Y903345D1*
X1501862Y910014D1*
X1503949Y916436D1*
X1507013Y922451D1*
X1510983Y927913D1*
X1515757Y932688D1*
X1521219Y936657D1*
X1527235Y939722D1*
X1533656Y941808D1*
X1540325Y942865D1*
X1547076D1*
X1553745Y941808D1*
X1560167Y939722D1*
X1566182Y936657D1*
X1571644Y932688D1*
X1576419Y927913D1*
X1580388Y922451D1*
X1583453Y916436D1*
X1585539Y910014D1*
X1586596Y903345D1*
Y896594D1*
X2049070Y721060D2*
X2047861Y713426D1*
X2045472Y706077D1*
X2041965Y699192D1*
X2037423Y692940D1*
X2031958Y687475D1*
X2025706Y682933D1*
X2018820Y679425D1*
X2011471Y677037D1*
X2003837Y675828D1*
X1996110D1*
X1988476Y677037D1*
X1981127Y679425D1*
X1974241Y682933D1*
X1967990Y687475D1*
X1962525Y692940D1*
X1957983Y699192D1*
X1954475Y706077D1*
X1952087Y713426D1*
X1950878Y721060D1*
Y728787D1*
X1952087Y736421D1*
X1954475Y743770D1*
X1957983Y750656D1*
X1962525Y756908D1*
X1967990Y762373D1*
X1974241Y766915D1*
X1981127Y770423D1*
X1988476Y772811D1*
X1996110Y774020D1*
X2003837D1*
X2011471Y772811D1*
X2018820Y770423D1*
X2025706Y766915D1*
X2031958Y762373D1*
X2037423Y756908D1*
X2041965Y750656D1*
X2045472Y743770D1*
X2047861Y736421D1*
X2049070Y728787D1*
Y721060D1*
X1480369Y1015298D2*
X1479312Y1008629D1*
X1477226Y1002207D1*
X1474161Y996192D1*
X1470192Y990730D1*
X1465417Y985955D1*
X1459955Y981986D1*
X1453940Y978921D1*
X1447518Y976835D1*
X1440849Y975778D1*
X1434098D1*
X1427429Y976835D1*
X1421008Y978921D1*
X1414992Y981986D1*
X1409530Y985955D1*
X1404756Y990730D1*
X1400786Y996192D1*
X1397722Y1002207D1*
X1395635Y1008629D1*
X1394579Y1015298D1*
Y1022049D1*
X1395635Y1028718D1*
X1397722Y1035139D1*
X1400786Y1041155D1*
X1404756Y1046617D1*
X1409530Y1051391D1*
X1414992Y1055361D1*
X1421008Y1058425D1*
X1427429Y1060512D1*
X1434098Y1061568D1*
X1440849D1*
X1447518Y1060512D1*
X1453940Y1058425D1*
X1459955Y1055361D1*
X1465417Y1051391D1*
X1470192Y1046617D1*
X1474161Y1041155D1*
X1477226Y1035139D1*
X1479312Y1028718D1*
X1480369Y1022049D1*
Y1015298D1*
X1092915Y921651D2*
X1091858Y914982D1*
X1089772Y908560D1*
X1086707Y902545D1*
X1082738Y897083D1*
X1077963Y892308D1*
X1072501Y888339D1*
X1066486Y885274D1*
X1060064Y883188D1*
X1053395Y882131D1*
X1046644D1*
X1039975Y883188D1*
X1033554Y885274D1*
X1027538Y888339D1*
X1022076Y892308D1*
X1017302Y897083D1*
X1013332Y902545D1*
X1010268Y908560D1*
X1008181Y914982D1*
X1007125Y921651D1*
Y928402D1*
X1008181Y935071D1*
X1010268Y941492D1*
X1013332Y947508D1*
X1017302Y952970D1*
X1022076Y957744D1*
X1027538Y961714D1*
X1033554Y964778D1*
X1039975Y966865D1*
X1046644Y967921D1*
X1053395D1*
X1060064Y966865D1*
X1066486Y964778D1*
X1072501Y961714D1*
X1077963Y957744D1*
X1082738Y952970D1*
X1086707Y947508D1*
X1089772Y941492D1*
X1091858Y935071D1*
X1092915Y928402D1*
Y921651D1*
X2231399Y1131298D2*
D14*
Y1068634D1*
X2168735Y1131298D2*
X2294063D1*
X2231224Y512423D2*
Y449758D1*
X2168560Y512423D2*
X2293888D1*
X812487Y831403D2*
Y768739D1*
X749823D2*
X875151D1*
X2231224Y831173D2*
Y768509D1*
X2168560Y831173D2*
X2293888D1*
X464619Y1093673D2*
X597822D1*
X987475Y812121D2*
Y759921D1*
X926776D2*
X1048175D1*
X887476Y1124924D2*
Y1066197D1*
X828749Y1124924D2*
X887476D1*
D28*
X2231399Y1231298D3*
Y1131298D3*
X2231224Y512423D3*
Y612423D3*
X812487Y568739D3*
Y668739D3*
Y768739D3*
D32*
X593723Y474924D3*
X699972Y474979D3*
D16*
X1631223Y1306173D3*
X1731223D3*
X1831223D3*
X1931223D3*
X2031223D3*
X2131224D3*
D32*
X712484Y950029D3*
D16*
X2031373Y1206306D3*
D28*
X2231224Y831173D3*
Y931173D3*
D29*
X531220Y993673D3*
Y1093673D3*
Y1193673D3*
D16*
X2037474Y599921D3*
Y499921D3*
X1937474Y599921D3*
Y499921D3*
X1837474Y599921D3*
Y499921D3*
X1737474Y599921D3*
Y499921D3*
X1637474Y599921D3*
Y499921D3*
X1537474Y599921D3*
Y499921D3*
X1437474Y599921D3*
Y499921D3*
X1337474Y599921D3*
Y499921D3*
X1237474Y599921D3*
Y499921D3*
X1137474Y599921D3*
Y499921D3*
X1037474Y599921D3*
Y499921D3*
X937474Y599921D3*
Y499921D3*
D42*
X1193785Y775010D3*
Y715010D3*
D43*
Y745010D3*
D42*
X987475Y759921D3*
Y699921D3*
D43*
Y729921D3*
D16*
X1931354Y1093794D3*
Y900054D3*
X887476Y1124924D3*
X987476D3*
X1087476D3*
Y1224924D3*
X987476D3*
X887476D3*
M02*
