G04 DipTrace 3.0.0.2*
G04 TopSilk.gbr*
%MOIN*%
G04 #@! TF.FileFunction,Legend,Top*
G04 #@! TF.Part,Single*
%ADD10C,0.009843*%
%ADD44C,0.005*%
%ADD75C,0.00772*%
%ADD76C,0.006176*%
%ADD77C,0.003088*%
%ADD79C,0.003281*%
%ADD80C,0.009264*%
%ADD81C,0.010807*%
%FSLAX26Y26*%
G04*
G70*
G90*
G75*
G01*
G04 TopSilk*
%LPD*%
X693944Y1139366D2*
D10*
X631014D1*
X693944Y1131917D2*
X631014D1*
X693944D2*
Y1155476D1*
X631014Y1131917D2*
Y1155476D1*
X775559Y1071186D2*
X724417D1*
X2281404Y1281310D2*
X2181399D1*
Y1081286D1*
X2281404D1*
Y1281310D1*
X2181219Y462411D2*
X2281224D1*
Y662434D1*
X2181219D1*
Y462411D1*
X762484Y518758D2*
X862486D1*
Y818720D1*
X762484D1*
Y518758D1*
X2181219Y781161D2*
X2281224D1*
Y981185D1*
X2181219D1*
Y781161D1*
X424921Y896823D2*
X602087D1*
Y1290524D1*
X424921D1*
Y896823D1*
X460354D2*
Y1290524D1*
X887474Y649921D2*
Y449921D1*
X2087474Y649921D2*
Y449921D1*
X887474D1*
X2087474Y649921D2*
X887474D1*
X1757516Y1214294D2*
D44*
X1324445D1*
Y781223D1*
X1757516D1*
Y1214294D1*
G36*
Y781223D2*
X1690606D1*
Y848132D1*
X1757516D1*
Y781223D1*
G37*
X1619713Y879660D2*
D10*
X1422882D1*
Y1115857D1*
X1659079D1*
Y919026D1*
X1619713Y879660D1*
X1325506Y673077D2*
Y791198D1*
X1238872Y673077D2*
Y791198D1*
X1325506D2*
X1238872D1*
X1325506Y673077D2*
X1297945D1*
X1266433D2*
X1238872D1*
X1297945D2*
G03X1266433Y673077I-15756J-10D01*
G01*
X837469Y1274926D2*
X1137478D1*
Y1074924D1*
X837469D1*
Y1274926D1*
X1037475Y1299924D2*
X1162471D1*
Y1174914D1*
X1037475D1*
Y1299924D1*
X1803383Y915343D2*
D75*
X1801006Y920096D1*
X1796198Y924904D1*
X1791444Y927281D1*
X1781883D1*
X1777074Y924904D1*
X1772321Y920096D1*
X1769889Y915343D1*
X1767513Y908158D1*
Y896164D1*
X1769889Y889034D1*
X1772321Y884226D1*
X1777074Y879473D1*
X1781883Y877041D1*
X1791444D1*
X1796198Y879473D1*
X1801006Y884226D1*
X1803383Y889034D1*
X1818822Y917664D2*
X1823630Y920096D1*
X1830815Y927226D1*
Y877041D1*
X663924Y1283226D2*
X661547Y1287979D1*
X656739Y1292787D1*
X651986Y1295164D1*
X642424D1*
X637616Y1292787D1*
X632863Y1287979D1*
X630431Y1283226D1*
X628054Y1276041D1*
Y1264047D1*
X630431Y1256917D1*
X632863Y1252109D1*
X637616Y1247356D1*
X642424Y1244924D1*
X651986D1*
X656739Y1247356D1*
X661547Y1252109D1*
X663924Y1256917D1*
X681795Y1283170D2*
Y1285547D1*
X684172Y1290356D1*
X686548Y1292732D1*
X691357Y1295109D1*
X700918D1*
X705672Y1292732D1*
X708048Y1290356D1*
X710480Y1285547D1*
Y1280794D1*
X708048Y1275985D1*
X703295Y1268856D1*
X679363Y1244924D1*
X712857D1*
X944756Y1038387D2*
X942379Y1043140D1*
X937571Y1047949D1*
X932818Y1050325D1*
X923256D1*
X918448Y1047949D1*
X913695Y1043140D1*
X911263Y1038387D1*
X908886Y1031202D1*
Y1019209D1*
X911263Y1012079D1*
X913695Y1007270D1*
X918448Y1002517D1*
X923256Y1000085D1*
X932818D1*
X937571Y1002517D1*
X942379Y1007270D1*
X944756Y1012079D1*
X965004Y1050270D2*
X991257D1*
X976942Y1031147D1*
X984127D1*
X988880Y1028770D1*
X991257Y1026394D1*
X993689Y1019209D1*
Y1014455D1*
X991257Y1007270D1*
X986504Y1002462D1*
X979319Y1000085D1*
X972134D1*
X965004Y1002462D1*
X962627Y1004894D1*
X960195Y1009647D1*
X750245Y1047081D2*
X747868Y1051835D1*
X743060Y1056643D1*
X738307Y1059020D1*
X728745D1*
X723937Y1056643D1*
X719183Y1051835D1*
X716752Y1047081D1*
X714375Y1039896D1*
Y1027903D1*
X716752Y1020773D1*
X719183Y1015965D1*
X723937Y1011211D1*
X728745Y1008780D1*
X738307D1*
X743060Y1011211D1*
X747868Y1015965D1*
X750245Y1020773D1*
X789616Y1008780D2*
Y1058964D1*
X765684Y1025526D1*
X801554D1*
X964973Y741964D2*
Y691724D1*
X981719D1*
X988904Y694156D1*
X993713Y698910D1*
X996089Y703718D1*
X998466Y710848D1*
Y722841D1*
X996089Y730026D1*
X993713Y734779D1*
X988904Y739588D1*
X981719Y741964D1*
X964973D1*
X1013905Y732348D2*
X1018714Y734779D1*
X1025899Y741909D1*
Y691724D1*
X2240186Y1356391D2*
Y1306151D1*
X2256933D1*
X2264118Y1308583D1*
X2268926Y1313336D1*
X2271303Y1318144D1*
X2273679Y1325274D1*
Y1337268D1*
X2271303Y1344453D1*
X2268926Y1349206D1*
X2264118Y1354014D1*
X2256933Y1356391D1*
X2240186D1*
X2291550Y1344398D2*
Y1346774D1*
X2293927Y1351583D1*
X2296304Y1353959D1*
X2301112Y1356336D1*
X2310674D1*
X2315427Y1353959D1*
X2317803Y1351583D1*
X2320235Y1346774D1*
Y1342021D1*
X2317803Y1337212D1*
X2313050Y1330083D1*
X2289119Y1306151D1*
X2322612D1*
X2190011Y737516D2*
Y687276D1*
X2206758D1*
X2213943Y689708D1*
X2218752Y694461D1*
X2221128Y699269D1*
X2223505Y706399D1*
Y718392D1*
X2221128Y725577D1*
X2218752Y730331D1*
X2213943Y735139D1*
X2206758Y737516D1*
X2190011D1*
X2243752Y737460D2*
X2270006D1*
X2255691Y718337D1*
X2262876D1*
X2267629Y715961D1*
X2270006Y713584D1*
X2272437Y706399D1*
Y701646D1*
X2270006Y694461D1*
X2265252Y689652D1*
X2258067Y687276D1*
X2250882D1*
X2243752Y689652D1*
X2241376Y692084D1*
X2238944Y696837D1*
X894508Y852379D2*
X916008D1*
X923193Y854811D1*
X925625Y857188D1*
X928001Y861941D1*
Y866749D1*
X925625Y871503D1*
X923193Y873934D1*
X916008Y876311D1*
X894508D1*
Y826071D1*
X911255Y852379D2*
X928001Y826071D1*
X943441Y866694D2*
X948249Y869126D1*
X955434Y876256D1*
Y826071D1*
X2046164Y793900D2*
X2067664D1*
X2074849Y796332D1*
X2077280Y798709D1*
X2079657Y803462D1*
Y808270D1*
X2077280Y813024D1*
X2074849Y815455D1*
X2067664Y817832D1*
X2046164D1*
Y767592D1*
X2062910Y793900D2*
X2079657Y767592D1*
X2097528Y805838D2*
Y808215D1*
X2099905Y813024D1*
X2102281Y815400D1*
X2107090Y817777D1*
X2116651D1*
X2121405Y815400D1*
X2123781Y813024D1*
X2126213Y808215D1*
Y803462D1*
X2123781Y798653D1*
X2119028Y791524D1*
X2095096Y767592D1*
X2128590D1*
X1985487Y1097486D2*
X2006986D1*
X2014171Y1099917D1*
X2016603Y1102294D1*
X2018980Y1107047D1*
Y1111856D1*
X2016603Y1116609D1*
X2014171Y1119041D1*
X2006986Y1121417D1*
X1985487D1*
Y1071177D1*
X2002233Y1097486D2*
X2018980Y1071177D1*
X2039228Y1121362D2*
X2065481D1*
X2051166Y1102239D1*
X2058351D1*
X2063104Y1099862D1*
X2065481Y1097486D1*
X2067912Y1090301D1*
Y1085547D1*
X2065481Y1078362D1*
X2060727Y1073554D1*
X2053542Y1071177D1*
X2046357D1*
X2039228Y1073554D1*
X2036851Y1075986D1*
X2034419Y1080739D1*
X1150450Y976529D2*
X1171950D1*
X1179135Y978961D1*
X1181567Y981337D1*
X1183944Y986090D1*
Y990899D1*
X1181567Y995652D1*
X1179135Y998084D1*
X1171950Y1000461D1*
X1150450D1*
Y950221D1*
X1167197Y976529D2*
X1183944Y950221D1*
X1223315D2*
Y1000405D1*
X1199383Y966967D1*
X1235253D1*
X1076631Y845265D2*
X1098131D1*
X1105316Y847697D1*
X1107748Y850074D1*
X1110124Y854827D1*
Y859635D1*
X1107748Y864388D1*
X1105316Y866820D1*
X1098131Y869197D1*
X1076631D1*
Y818957D1*
X1093378Y845265D2*
X1110124Y818957D1*
X1154248Y869142D2*
X1130372D1*
X1127995Y847642D1*
X1130372Y850018D1*
X1137557Y852450D1*
X1144687D1*
X1151872Y850018D1*
X1156680Y845265D1*
X1159057Y838080D1*
Y833327D1*
X1156680Y826142D1*
X1151872Y821333D1*
X1144687Y818957D1*
X1137557D1*
X1130372Y821333D1*
X1127995Y823765D1*
X1125563Y828518D1*
X743456Y1325287D2*
X764956D1*
X772141Y1327719D1*
X774572Y1330096D1*
X776949Y1334849D1*
Y1339657D1*
X774572Y1344411D1*
X772141Y1346843D1*
X764956Y1349219D1*
X743456D1*
Y1298979D1*
X760202Y1325287D2*
X776949Y1298979D1*
X821073Y1342034D2*
X818697Y1346787D1*
X811512Y1349164D1*
X806758D1*
X799573Y1346787D1*
X794765Y1339602D1*
X792388Y1327664D1*
Y1315726D1*
X794765Y1306164D1*
X799573Y1301356D1*
X806758Y1298979D1*
X809135D1*
X816265Y1301356D1*
X821073Y1306164D1*
X823450Y1313349D1*
Y1315726D1*
X821073Y1322911D1*
X816265Y1327664D1*
X809135Y1330041D1*
X806758D1*
X799573Y1327664D1*
X794765Y1322911D1*
X792388Y1315726D1*
X2234255Y1049081D2*
X2229502Y1053890D1*
X2222316Y1056266D1*
X2212755D1*
X2205570Y1053890D1*
X2200761Y1049081D1*
Y1044328D1*
X2203193Y1039520D1*
X2205570Y1037143D1*
X2210323Y1034766D1*
X2224693Y1029958D1*
X2229502Y1027581D1*
X2231878Y1025150D1*
X2234255Y1020396D1*
Y1013211D1*
X2229502Y1008458D1*
X2222316Y1006026D1*
X2212755D1*
X2205570Y1008458D1*
X2200761Y1013211D1*
X2249694Y1046649D2*
X2254502Y1049081D1*
X2261687Y1056211D1*
Y1006026D1*
X483041Y1363747D2*
Y1327877D1*
X485417Y1320692D1*
X490226Y1315939D1*
X497411Y1313507D1*
X502164D1*
X509349Y1315939D1*
X514158Y1320692D1*
X516534Y1327877D1*
Y1363747D1*
X531973Y1354130D2*
X536782Y1356562D1*
X543967Y1363691D1*
Y1313507D1*
X1540021Y716894D2*
Y681024D1*
X1542397Y673839D1*
X1547206Y669085D1*
X1554391Y666654D1*
X1559144D1*
X1566329Y669085D1*
X1571137Y673839D1*
X1573514Y681024D1*
Y716894D1*
X1591385Y704900D2*
Y707277D1*
X1593762Y712085D1*
X1596138Y714462D1*
X1600947Y716838D1*
X1610508D1*
X1615262Y714462D1*
X1617638Y712085D1*
X1620070Y707277D1*
Y702524D1*
X1617638Y697715D1*
X1612885Y690585D1*
X1588953Y666654D1*
X1622447D1*
X1504830Y1306268D2*
Y1270398D1*
X1507206Y1263213D1*
X1512015Y1258460D1*
X1519200Y1256028D1*
X1523953D1*
X1531138Y1258460D1*
X1535946Y1263213D1*
X1538323Y1270398D1*
Y1306268D1*
X1577694Y1256028D2*
Y1306212D1*
X1553762Y1272774D1*
X1589632D1*
X1899347Y1026398D2*
Y990528D1*
X1901723Y983343D1*
X1906532Y978589D1*
X1913717Y976158D1*
X1918470D1*
X1925655Y978589D1*
X1930464Y983343D1*
X1932840Y990528D1*
Y1026398D1*
X1976964Y1019213D2*
X1974588Y1023966D1*
X1967403Y1026342D1*
X1962649D1*
X1955464Y1023966D1*
X1950656Y1016781D1*
X1948279Y1004842D1*
Y992904D1*
X1950656Y983343D1*
X1955464Y978534D1*
X1962649Y976158D1*
X1965026D1*
X1972156Y978534D1*
X1976964Y983343D1*
X1979341Y990528D1*
Y992904D1*
X1976964Y1000089D1*
X1972156Y1004842D1*
X1965026Y1007219D1*
X1962649D1*
X1955464Y1004842D1*
X1950656Y1000089D1*
X1948279Y992904D1*
X1240976Y858171D2*
Y822301D1*
X1243353Y815116D1*
X1248161Y810362D1*
X1255346Y807931D1*
X1260099D1*
X1267284Y810362D1*
X1272093Y815116D1*
X1274469Y822301D1*
Y858171D1*
X1299470Y807931D2*
X1323402Y858115D1*
X1289909D1*
X959945Y1373147D2*
Y1337277D1*
X962322Y1330092D1*
X967130Y1325339D1*
X974315Y1322907D1*
X979068D1*
X986253Y1325339D1*
X991062Y1330092D1*
X993438Y1337277D1*
Y1373147D1*
X1039994Y1356400D2*
X1037563Y1349215D1*
X1032809Y1344407D1*
X1025624Y1342030D1*
X1023248D1*
X1016063Y1344407D1*
X1011310Y1349215D1*
X1008878Y1356400D1*
Y1358777D1*
X1011310Y1365962D1*
X1016063Y1370715D1*
X1023248Y1373092D1*
X1025624D1*
X1032809Y1370715D1*
X1037563Y1365962D1*
X1039994Y1356400D1*
Y1344407D1*
X1037563Y1332469D1*
X1032809Y1325283D1*
X1025624Y1322907D1*
X1020871D1*
X1013686Y1325283D1*
X1011310Y1330092D1*
X749947Y495747D2*
D76*
X765246Y455555D1*
X780545Y495747D1*
X792896D2*
X794797Y493845D1*
X796743Y495747D1*
X794797Y497692D1*
X792896Y495747D1*
X794797Y482349D2*
Y455555D1*
X809094Y482349D2*
Y455555D1*
Y474700D2*
X814842Y480448D1*
X818689Y482349D1*
X824393D1*
X828240Y480448D1*
X830141Y474700D1*
Y455555D1*
X1986846Y1254772D2*
D77*
X1995446D1*
X1998320Y1255745D1*
X1999292Y1256696D1*
X2000243Y1258597D1*
Y1260520D1*
X1999292Y1262422D1*
X1998320Y1263394D1*
X1995446Y1264345D1*
X1986846D1*
Y1244249D1*
X1993544Y1254772D2*
X2000243Y1244249D1*
X2018843Y1264345D2*
X2006419D1*
Y1244249D1*
X2018843D1*
X2006419Y1254772D2*
X2014068D1*
X2038416Y1261471D2*
X2036515Y1263394D1*
X2033641Y1264345D1*
X2029816D1*
X2026942Y1263394D1*
X2025019Y1261471D1*
Y1259570D1*
X2025992Y1257646D1*
X2026942Y1256696D1*
X2028844Y1255745D1*
X2034592Y1253822D1*
X2036515Y1252871D1*
X2037466Y1251898D1*
X2038416Y1249997D1*
Y1247123D1*
X2036515Y1245222D1*
X2033641Y1244249D1*
X2029816D1*
X2026942Y1245222D1*
X2025019Y1247123D1*
X2057017Y1264345D2*
X2044592D1*
Y1244249D1*
X2057017D1*
X2044592Y1254772D2*
X2052241D1*
X2069891Y1264345D2*
Y1244249D1*
X2063192Y1264345D2*
X2076590D1*
X643727Y892164D2*
D79*
Y862020D1*
X656660D1*
X660971Y863479D1*
X662397Y864905D1*
X663823Y867757D1*
Y872068D1*
X662397Y874953D1*
X660971Y876379D1*
X656660Y877805D1*
X660971Y879264D1*
X662397Y880690D1*
X663823Y883542D1*
Y886427D1*
X662397Y889279D1*
X660971Y890738D1*
X656660Y892164D1*
X643727D1*
Y877805D2*
X656660D1*
X693366Y862020D2*
X681859Y892164D1*
X670385Y862020D1*
X674696Y872068D2*
X689055D1*
X709975Y892164D2*
Y862020D1*
X699927Y892164D2*
X720023D1*
X726585Y857046D2*
X753844D1*
X760406Y892164D2*
X771880Y862020D1*
X783354Y892164D1*
X1837602Y1258333D2*
D76*
Y1218141D1*
X1849954D2*
X1876748Y1258289D1*
X1900596Y1258333D2*
X1896749Y1256432D1*
X1892947Y1252585D1*
X1891001Y1248783D1*
X1889100Y1243035D1*
Y1233440D1*
X1891001Y1227736D1*
X1892947Y1223889D1*
X1896749Y1220087D1*
X1900596Y1218141D1*
X1908245D1*
X1912048Y1220087D1*
X1915894Y1223889D1*
X1917796Y1227736D1*
X1919697Y1233440D1*
Y1243035D1*
X1917796Y1248783D1*
X1915894Y1252585D1*
X1912048Y1256432D1*
X1908245Y1258333D1*
X1900596D1*
X680928Y555429D2*
D80*
X732594D1*
X706794Y529629D2*
X706795Y581295D1*
X679440Y622595D2*
D75*
X729680D1*
Y639342D1*
X727248Y646527D1*
X722495Y651335D1*
X717686Y653712D1*
X710557Y656088D1*
X698563D1*
X691378Y653712D1*
X686625Y651335D1*
X681817Y646527D1*
X679440Y639342D1*
Y622595D1*
Y671528D2*
X729680D1*
X679440Y720460D2*
X729680D1*
X679440Y686967D1*
X729680D1*
X708935Y755402D2*
D81*
Y794091D1*
M02*
