G04 DipTrace 3.1.0.0*
G04 Bottom[GND].gbr*
%MOIN*%
G04 #@! TF.FileFunction,Copper,L4,Bot*
G04 #@! TF.Part,Single*
%ADD30C,0.066929*%
%ADD31C,0.074803*%
%ADD32C,0.059055*%
%ADD35C,0.07874*%
%ADD38C,0.082677*%
G04 #@! TA.AperFunction,CopperBalancing*
%ADD14C,0.012992*%
G04 #@! TA.AperFunction,Conductor*
%ADD15C,0.03937*%
G04 #@! TA.AperFunction,CopperBalancing*
%ADD16C,0.015748*%
G04 #@! TA.AperFunction,Conductor*
%ADD17C,0.019685*%
G04 #@! TA.AperFunction,CopperBalancing*
%ADD21C,0.025*%
%ADD25R,0.03937X0.043307*%
%ADD46R,0.063X0.046*%
%ADD47R,0.008X0.025*%
%ADD51R,0.037402X0.084646*%
%ADD52R,0.127953X0.084646*%
G04 #@! TA.AperFunction,ViaPad*
%ADD54C,0.027559*%
%FSLAX26Y26*%
G04*
G70*
G90*
G75*
G01*
G04 Bottom_Plane*
%LPD*%
X805324Y350056D2*
D14*
Y362558D1*
X874081Y431315D1*
X1567904Y391983D2*
Y393811D1*
D16*
X1617909D1*
X149010Y781220D2*
D15*
X86367D1*
X61496Y756349D1*
Y710088D1*
X605257Y506323D2*
D14*
X617804D1*
X899084Y581331D2*
X889706Y571953D1*
X1373990Y618770D2*
X1377151Y615609D1*
X1461643Y556328D2*
Y575129D1*
X724066Y306300D2*
X720940Y309426D1*
X717815Y306302D1*
X1399136Y393812D2*
X1411636Y406312D1*
X605303Y806354D2*
X580301Y831357D1*
X992844Y775101D2*
D17*
X999094Y768850D1*
X149010Y581220D2*
D15*
X92860D1*
X61496Y612584D1*
Y650088D1*
X599014Y287468D2*
D14*
Y149971D1*
X549013Y99970D1*
X805324Y290056D2*
X799013D1*
Y181344D1*
X830322Y150035D1*
X1098948D1*
X1149013Y99970D1*
X1567904Y325054D2*
X1561654D1*
D16*
X1555403Y331304D1*
D17*
X1524150D1*
D14*
Y325054D1*
X1349131D1*
X1311627Y287550D1*
X1230369D1*
X1167862Y350056D1*
Y375059D1*
X1242762Y906222D2*
Y931475D1*
X1217867Y956370D1*
X1124108D1*
X980343Y812605D1*
X950917D1*
X949089Y810777D1*
X849079Y681341D2*
X899084Y731346D1*
Y775101D1*
X934760Y810777D1*
X949089D1*
X524045Y681341D2*
D17*
X561549D1*
D54*
X1461643Y650088D3*
X1042849Y287550D3*
X1261621Y375059D3*
X1617909Y393811D3*
X899084Y668840D3*
X605257Y506323D3*
X899084Y581331D3*
X1373990Y618770D3*
X1461643Y556328D3*
X724066Y306300D3*
X1399136Y393812D3*
X605303Y806354D3*
X992844Y775101D3*
X1136772Y362558D3*
X1224118Y581331D3*
X1073780Y825106D3*
X1361627Y387555D3*
X411533Y518824D3*
X1186614Y856360D3*
X1255371Y518824D3*
X1142860Y481320D3*
X717815Y362558D3*
X1105276Y837608D3*
X1136772Y825106D3*
X1611513Y331223D3*
X1524150Y331304D3*
X1199764Y825106D3*
X1042849Y637587D3*
X661559Y531325D3*
X1448991Y481270D3*
X561549Y681341D3*
X1105276Y581251D3*
X1074102Y593832D3*
X874081Y431315D3*
X1167862Y375059D3*
X49743Y915407D2*
D21*
X207878D1*
X531921D2*
X659929D1*
X1598132D2*
X1687419D1*
X1798132D2*
X1921061D1*
X46520Y890538D2*
X206755D1*
X531921D2*
X659929D1*
X1596569D2*
X1688933D1*
X1796569D2*
X1836491D1*
X1886853D2*
X1921989D1*
X46520Y865669D2*
X209880D1*
X531921D2*
X660173D1*
X1280407D2*
X1305144D1*
X1380407D2*
X1405144D1*
X1480407D2*
X1505144D1*
X1580407D2*
X1705144D1*
X1780407D2*
X1808903D1*
X46520Y840800D2*
X131120D1*
X166882D2*
X211784D1*
X528991D2*
X668620D1*
X1236755D2*
X1599284D1*
X1686560D2*
X1801677D1*
X202331Y815932D2*
X352214D1*
X523278D2*
X677653D1*
X1239050D2*
X1587614D1*
X1698229D2*
X1805827D1*
X212243Y791063D2*
X368034D1*
X517614D2*
X686686D1*
X1004577D2*
X1054606D1*
X1092956D2*
X1117595D1*
X1155944D2*
X1180583D1*
X1218933D2*
X1588981D1*
X1696862D2*
X1825261D1*
X1898132D2*
X1921989D1*
X211169Y766194D2*
X379313D1*
X511901D2*
X695720D1*
X995397D2*
X1604851D1*
X1680993D2*
X1809196D1*
X198376Y741325D2*
X297624D1*
X569372D2*
X622624D1*
X995397D2*
X1518571D1*
X1592224D2*
X1801726D1*
X201940Y716457D2*
X297624D1*
X578356D2*
X622624D1*
X995397D2*
X1501774D1*
X1609020D2*
X1805632D1*
X212145Y691588D2*
X297624D1*
X600524D2*
X622624D1*
X931921D2*
X1499919D1*
X1610876D2*
X1824528D1*
X1898815D2*
X1921989D1*
X211315Y666719D2*
X297624D1*
X599011D2*
X622624D1*
X939440D2*
X1016081D1*
X1069616D2*
X1425065D1*
X1498229D2*
X1510907D1*
X1599890D2*
X1921989D1*
X198815Y641850D2*
X297624D1*
X569372D2*
X622624D1*
X928210D2*
X1002702D1*
X1082995D2*
X1422136D1*
X1501159D2*
X1921989D1*
X201599Y616982D2*
X297624D1*
X570056D2*
X622624D1*
X894421D2*
X1008513D1*
X1120446D2*
X1208708D1*
X1239489D2*
X1440690D1*
X1482604D2*
X1621940D1*
X1751403D2*
X1921989D1*
X212048Y592113D2*
X309392D1*
X351159D2*
X421696D1*
X588952D2*
X1033708D1*
X1144079D2*
X1185270D1*
X1262976D2*
X1603044D1*
X1770300D2*
X1921989D1*
X211413Y567244D2*
X275407D1*
X385144D2*
X413054D1*
X597546D2*
X646940D1*
X676159D2*
X1044597D1*
X1143005D2*
X1186442D1*
X1261804D2*
X1594401D1*
X1778894D2*
X1819890D1*
X1903112D2*
X1921989D1*
X46520Y542375D2*
X70134D1*
X199206D2*
X265251D1*
X598864D2*
X622819D1*
X700329D2*
X1223161D1*
X1287585D2*
X1513103D1*
X1780212D2*
X1804118D1*
X46520Y517507D2*
X265788D1*
X593151D2*
X623747D1*
X699353D2*
X1129069D1*
X1156610D2*
X1215007D1*
X1295739D2*
X1435368D1*
X1462634D2*
X1500407D1*
X1774548D2*
X1801921D1*
X46520Y492638D2*
X277409D1*
X578845D2*
X1104167D1*
X1181530D2*
X1225456D1*
X1285290D2*
X1410319D1*
X1487634D2*
X1501034D1*
X1760241D2*
X1811345D1*
X46520Y467769D2*
X463151D1*
X547497D2*
X861198D1*
X886999D2*
X1104948D1*
X1180749D2*
X1411052D1*
X1486901D2*
X1515593D1*
X1595202D2*
X1644499D1*
X1728845D2*
X1820476D1*
X1902575D2*
X1921989D1*
X46520Y442900D2*
X835466D1*
X912683D2*
X1804265D1*
X179626Y418031D2*
X377507D1*
X470544D2*
X815007D1*
X912097D2*
X1336589D1*
X1386657D2*
X1521599D1*
X1649597D2*
X1801823D1*
X193395Y393163D2*
X362712D1*
X485339D2*
X692936D1*
X881726D2*
X1111882D1*
X1203649D2*
X1225798D1*
X1297448D2*
X1321647D1*
X1401599D2*
X1425749D1*
X1497497D2*
X1521599D1*
X1658337D2*
X1811003D1*
X193981Y368294D2*
X360368D1*
X487683D2*
X677849D1*
X863464D2*
X1096794D1*
X1207653D2*
X1221843D1*
X1301403D2*
X1326481D1*
X1396765D2*
X1415578D1*
X1648425D2*
X1848796D1*
X1874255D2*
X1921989D1*
X193981Y343425D2*
X368718D1*
X479333D2*
X568376D1*
X629626D2*
X682585D1*
X863464D2*
X1101530D1*
X1303698D2*
X1321696D1*
X1649890D2*
X1921989D1*
X193981Y318556D2*
X378044D1*
X470007D2*
X540886D1*
X657165D2*
X747185D1*
X863464D2*
X1018522D1*
X1067175D2*
X1153581D1*
X1649743D2*
X1921989D1*
X193981Y293688D2*
X362907D1*
X485144D2*
X540886D1*
X657165D2*
X747185D1*
X863464D2*
X1002946D1*
X1082751D2*
X1178435D1*
X1363561D2*
X1416374D1*
X1619323D2*
X1921989D1*
X193981Y268819D2*
X360319D1*
X487731D2*
X540886D1*
X657165D2*
X747185D1*
X863464D2*
X1007390D1*
X1078308D2*
X1203288D1*
X1338708D2*
X1418620D1*
X1504626D2*
X1830583D1*
X1892419D2*
X1921989D1*
X193981Y243950D2*
X368425D1*
X479626D2*
X515788D1*
X657165D2*
X715788D1*
X882263D2*
X915788D1*
X982263D2*
X1015788D1*
X1082263D2*
X1115788D1*
X1182263D2*
X1215788D1*
X1282263D2*
X1315788D1*
X1382263D2*
X1415788D1*
X1482263D2*
X1515788D1*
X1582263D2*
X1615788D1*
X1682263D2*
X1807243D1*
X193981Y219081D2*
X378581D1*
X469519D2*
X496354D1*
X632116D2*
X696354D1*
X1701647D2*
X1801433D1*
X193981Y194213D2*
X363054D1*
X632116D2*
X693181D1*
X1704870D2*
X1806901D1*
X193981Y169344D2*
X360270D1*
X487780D2*
X502463D1*
X632116D2*
X702458D1*
X1695593D2*
X1829362D1*
X1893640D2*
X1921989D1*
X193640Y144475D2*
X302800D1*
X320185D2*
X368132D1*
X479919D2*
X516520D1*
X681481D2*
X716520D1*
X1681481D2*
X1807487D1*
X181237Y119606D2*
X258366D1*
X364636D2*
X394792D1*
X453259D2*
X496599D1*
X1701452D2*
X1801433D1*
X46520Y94737D2*
X246940D1*
X376061D2*
X493132D1*
X1704919D2*
X1806657D1*
X49304Y69869D2*
X246550D1*
X376501D2*
X502116D1*
X1695935D2*
X1828532D1*
X1894519D2*
X1921110D1*
X80358Y45000D2*
X256901D1*
X366149D2*
X1895817D1*
X1919107Y833078D2*
X1917693Y824152D1*
X1914901Y815557D1*
X1910798Y807504D1*
X1905485Y800192D1*
X1899095Y793802D1*
X1891783Y788490D1*
X1890227Y787618D1*
X1897459Y782738D1*
X1903018Y777711D1*
X1907877Y772005D1*
X1911954Y765717D1*
X1915180Y758952D1*
X1917500Y751825D1*
X1918875Y744458D1*
X1919231Y735098D1*
X1918419Y727647D1*
X1916646Y720365D1*
X1913944Y713375D1*
X1910356Y706795D1*
X1905944Y700736D1*
X1900783Y695302D1*
X1894960Y690583D1*
X1888573Y686661D1*
X1881731Y683602D1*
X1874550Y681457D1*
X1867151Y680262D1*
X1859660Y680038D1*
X1852203Y680789D1*
X1844907Y682502D1*
X1837894Y685148D1*
X1831285Y688682D1*
X1825191Y693045D1*
X1819715Y698161D1*
X1814949Y703946D1*
X1810975Y710300D1*
X1807860Y717117D1*
X1805656Y724280D1*
X1804402Y731669D1*
X1804117Y739158D1*
X1804807Y746621D1*
X1806461Y753931D1*
X1809049Y760965D1*
X1812529Y767603D1*
X1816842Y773732D1*
X1821914Y779250D1*
X1827659Y784062D1*
X1833110Y787585D1*
X1824286Y793802D1*
X1817895Y800192D1*
X1812583Y807504D1*
X1808480Y815557D1*
X1805687Y824152D1*
X1804273Y833078D1*
Y842116D1*
X1805687Y851042D1*
X1808480Y859638D1*
X1812583Y867690D1*
X1817895Y875002D1*
X1824286Y881392D1*
X1831597Y886704D1*
X1839650Y890807D1*
X1848245Y893600D1*
X1857171Y895014D1*
X1866209D1*
X1875135Y893600D1*
X1883731Y890807D1*
X1891783Y886704D1*
X1899095Y881392D1*
X1905485Y875002D1*
X1910798Y867690D1*
X1914901Y859638D1*
X1917693Y851042D1*
X1919107Y842116D1*
Y833078D1*
X1919056Y216223D2*
X1918244Y208772D1*
X1916472Y201490D1*
X1913769Y194499D1*
X1910181Y187919D1*
X1905769Y181861D1*
X1900608Y176426D1*
X1894785Y171708D1*
X1890097Y168730D1*
X1898920Y162517D1*
X1905311Y156126D1*
X1910623Y148815D1*
X1914726Y140762D1*
X1917519Y132167D1*
X1918933Y123241D1*
Y114203D1*
X1917519Y105277D1*
X1914726Y96681D1*
X1910623Y88629D1*
X1905311Y81317D1*
X1898920Y74927D1*
X1891609Y69614D1*
X1883556Y65511D1*
X1874961Y62719D1*
X1866035Y61305D1*
X1856997D1*
X1848071Y62719D1*
X1839475Y65511D1*
X1831423Y69614D1*
X1824111Y74927D1*
X1817721Y81317D1*
X1812408Y88629D1*
X1808305Y96681D1*
X1805513Y105277D1*
X1804099Y114203D1*
Y123241D1*
X1805513Y132167D1*
X1808305Y140762D1*
X1812408Y148815D1*
X1817721Y156126D1*
X1824111Y162517D1*
X1831423Y167829D1*
X1832979Y168701D1*
X1825016Y174169D1*
X1819540Y179286D1*
X1814775Y185071D1*
X1810801Y191425D1*
X1807686Y198242D1*
X1805482Y205405D1*
X1804227Y212794D1*
X1803942Y220283D1*
X1804633Y227746D1*
X1806286Y235056D1*
X1808875Y242089D1*
X1812355Y248727D1*
X1816667Y254857D1*
X1821739Y260375D1*
X1827485Y265187D1*
X1833807Y269213D1*
X1840598Y272383D1*
X1847743Y274645D1*
X1855121Y275960D1*
X1862608Y276306D1*
X1870076Y275676D1*
X1877400Y274083D1*
X1884454Y271551D1*
X1891120Y268125D1*
X1897284Y263863D1*
X1902843Y258836D1*
X1907702Y253130D1*
X1911779Y246841D1*
X1915005Y240076D1*
X1917325Y232950D1*
X1918700Y225582D1*
X1919056Y216223D1*
X596392Y542908D2*
X594149Y528747D1*
X589718Y515111D1*
X583209Y502336D1*
X574781Y490736D1*
X564643Y480598D1*
X553043Y472170D1*
X540268Y465661D1*
X526632Y461231D1*
X512471Y458988D1*
X498133D1*
X483972Y461231D1*
X470336Y465661D1*
X457560Y472170D1*
X445961Y480598D1*
X436336Y490181D1*
X431340Y486501D1*
X426040Y483800D1*
X420383Y481962D1*
X414507Y481032D1*
X408558D1*
X402683Y481962D1*
X397025Y483800D1*
X391725Y486501D1*
X386913Y489998D1*
X382224Y494816D1*
X375176Y486424D1*
X367599Y479953D1*
X359103Y474746D1*
X349897Y470933D1*
X340208Y468607D1*
X330274Y467825D1*
X320341Y468607D1*
X310652Y470933D1*
X301446Y474746D1*
X292950Y479953D1*
X285373Y486424D1*
X278902Y494001D1*
X273695Y502497D1*
X269882Y511703D1*
X267556Y521392D1*
X266774Y531325D1*
X267556Y541259D1*
X269882Y550948D1*
X273695Y560154D1*
X278902Y568650D1*
X285373Y576227D1*
X292950Y582698D1*
X301446Y587904D1*
X310652Y591717D1*
X320341Y594044D1*
X330274Y594825D1*
X340208Y594044D1*
X349897Y591717D1*
X359103Y587904D1*
X367599Y582698D1*
X375176Y576227D1*
X381647Y568650D1*
X386853Y560154D1*
X390777Y550554D1*
X397025Y553848D1*
X402683Y555686D1*
X408558Y556617D1*
X414170Y556630D1*
X415055Y564371D1*
X418402Y578313D1*
X423889Y591559D1*
X431381Y603784D1*
X439570Y613473D1*
X407758Y613754D1*
X404678Y614464D1*
X401324Y614888D1*
X390663D1*
X390529Y625708D1*
X388336Y630940D1*
X387426Y636538D1*
X385773Y670294D1*
Y614888D1*
X300112D1*
Y747794D1*
X382602D1*
X381455Y773860D1*
X348250Y826028D1*
X234621Y826053D1*
X229058Y827160D1*
X223907Y829535D1*
X219452Y833046D1*
X215940Y837501D1*
X213566Y842652D1*
X212459Y848216D1*
X212384Y877990D1*
X210359Y884831D1*
X208752Y894978D1*
Y905251D1*
X210359Y915397D1*
X212400Y922097D1*
X212384Y940294D1*
X84411Y940275D1*
X71768Y938145D1*
X62975Y934204D1*
X55426Y928216D1*
X49585Y920551D1*
X45774Y911462D1*
X43983Y901516D1*
X43997Y800811D1*
X57912Y814538D1*
X63474Y818579D1*
X69600Y821700D1*
X76139Y823825D1*
X82930Y824900D1*
X105850Y825035D1*
X112843Y831000D1*
X121076Y836045D1*
X129996Y839740D1*
X139385Y841994D1*
X149010Y842752D1*
X158636Y841994D1*
X168025Y839740D1*
X176945Y836045D1*
X185178Y831000D1*
X192520Y824730D1*
X198791Y817388D1*
X203835Y809155D1*
X207530Y800235D1*
X209784Y790846D1*
X210542Y781220D1*
X209784Y771595D1*
X207530Y762206D1*
X203835Y753286D1*
X198791Y745053D1*
X192520Y737711D1*
X184848Y731220D1*
X191960Y725283D1*
X198523Y717753D1*
X203782Y709260D1*
X207597Y700028D1*
X209868Y690301D1*
X210542Y681220D1*
X209731Y671264D1*
X207320Y661571D1*
X203372Y652395D1*
X197992Y643979D1*
X191321Y636544D1*
X184865Y631229D1*
X192520Y624730D1*
X198791Y617388D1*
X203835Y609155D1*
X207530Y600235D1*
X209784Y590846D1*
X210542Y581220D1*
X209784Y571595D1*
X207530Y562206D1*
X203835Y553286D1*
X198791Y545053D1*
X192520Y537711D1*
X185178Y531440D1*
X176945Y526395D1*
X168025Y522700D1*
X158636Y520446D1*
X149010Y519689D1*
X139385Y520446D1*
X129996Y522700D1*
X121076Y526395D1*
X112843Y531440D1*
X105820Y537416D1*
X89422Y537540D1*
X82631Y538616D1*
X76092Y540741D1*
X69966Y543862D1*
X64404Y547903D1*
X43958Y568158D1*
X43997Y427959D1*
X51524Y428693D1*
X152340Y428562D1*
X158927Y427519D1*
X165269Y425458D1*
X171212Y422430D1*
X176607Y418510D1*
X181323Y413794D1*
X185243Y408399D1*
X188270Y402457D1*
X190331Y396114D1*
X191374Y389527D1*
X191505Y323693D1*
X191374Y146638D1*
X190331Y140051D1*
X188270Y133708D1*
X185243Y127766D1*
X181323Y122371D1*
X176607Y117655D1*
X171212Y113735D1*
X165269Y110707D1*
X158927Y108647D1*
X152340Y107603D1*
X86505Y107472D1*
X48189Y107603D1*
X44504Y108069D1*
X43996Y102715D1*
X44292Y81052D1*
X46402Y70726D1*
X50619Y62061D1*
X56842Y54702D1*
X64687Y49105D1*
X73990Y45568D1*
X84589Y44002D1*
X260088Y44016D1*
X254933Y52450D1*
X251120Y61656D1*
X248794Y71345D1*
X248012Y81278D1*
X248794Y91212D1*
X251120Y100901D1*
X254933Y110107D1*
X260139Y118603D1*
X266611Y126179D1*
X274187Y132651D1*
X282683Y137857D1*
X291889Y141670D1*
X301578Y143996D1*
X311512Y144778D1*
X321445Y143996D1*
X331134Y141670D1*
X340340Y137857D1*
X348836Y132651D1*
X356413Y126179D1*
X362884Y118603D1*
X368091Y110107D1*
X371904Y100901D1*
X374230Y91212D1*
X375012Y81278D1*
X374230Y71345D1*
X371904Y61656D1*
X368091Y52450D1*
X362917Y44002D1*
X1891887Y44260D1*
X1902096Y45604D1*
X1909669Y48892D1*
X1916065Y54112D1*
X1920805Y60873D1*
X1923581Y69276D1*
X1924522Y80718D1*
X1924308Y906167D1*
X1923264Y916821D1*
X1920223Y924497D1*
X1915214Y931058D1*
X1908611Y936014D1*
X1900405Y939051D1*
X1889639Y940288D1*
X1784278Y940274D1*
X1788514Y934258D1*
X1792337Y926756D1*
X1794939Y918748D1*
X1796256Y910432D1*
Y902012D1*
X1794939Y893696D1*
X1792337Y885688D1*
X1788514Y878186D1*
X1783565Y871374D1*
X1777612Y865420D1*
X1770800Y860471D1*
X1763298Y856649D1*
X1755290Y854047D1*
X1746974Y852730D1*
X1738554D1*
X1730238Y854047D1*
X1722230Y856649D1*
X1714728Y860471D1*
X1707916Y865420D1*
X1701962Y871374D1*
X1697013Y878186D1*
X1693191Y885688D1*
X1690589Y893696D1*
X1689272Y902012D1*
Y910432D1*
X1690589Y918748D1*
X1693191Y926756D1*
X1697013Y934258D1*
X1701341Y940281D1*
X1584278Y940274D1*
X1588513Y934258D1*
X1592336Y926756D1*
X1594937Y918748D1*
X1596255Y910432D1*
Y902012D1*
X1594937Y893696D1*
X1592336Y885688D1*
X1588513Y878186D1*
X1583564Y871374D1*
X1577610Y865420D1*
X1570798Y860471D1*
X1563296Y856649D1*
X1555289Y854047D1*
X1546972Y852730D1*
X1538553D1*
X1530236Y854047D1*
X1522229Y856649D1*
X1514727Y860471D1*
X1507915Y865420D1*
X1501961Y871374D1*
X1497012Y878186D1*
X1492785Y886784D1*
X1488513Y878186D1*
X1483564Y871374D1*
X1477610Y865420D1*
X1470798Y860471D1*
X1463296Y856649D1*
X1455289Y854047D1*
X1446972Y852730D1*
X1438553D1*
X1430236Y854047D1*
X1422229Y856649D1*
X1414727Y860471D1*
X1407915Y865420D1*
X1401961Y871374D1*
X1397012Y878186D1*
X1392785Y886784D1*
X1388513Y878186D1*
X1383564Y871374D1*
X1377610Y865420D1*
X1370798Y860471D1*
X1363296Y856649D1*
X1355289Y854047D1*
X1346972Y852730D1*
X1338553D1*
X1330236Y854047D1*
X1322229Y856649D1*
X1314727Y860471D1*
X1307915Y865420D1*
X1301961Y871374D1*
X1297012Y878186D1*
X1292785Y886784D1*
X1288513Y878186D1*
X1283564Y871374D1*
X1277610Y865420D1*
X1270798Y860471D1*
X1263296Y856649D1*
X1255289Y854047D1*
X1246972Y852730D1*
X1238553D1*
X1230236Y854047D1*
X1224529Y855800D1*
X1226570Y851912D1*
X1230433Y847389D1*
X1233541Y842317D1*
X1235818Y836821D1*
X1237207Y831037D1*
X1237673Y825106D1*
X1237207Y819176D1*
X1235818Y813392D1*
X1233541Y807896D1*
X1230433Y802824D1*
X1226570Y798300D1*
X1222046Y794437D1*
X1216974Y791329D1*
X1211478Y789052D1*
X1205694Y787664D1*
X1199764Y787197D1*
X1193833Y787664D1*
X1188049Y789052D1*
X1182553Y791329D1*
X1177481Y794437D1*
X1172958Y798300D1*
X1168287Y804032D1*
X1163578Y798300D1*
X1159054Y794437D1*
X1153982Y791329D1*
X1148486Y789052D1*
X1142702Y787664D1*
X1136772Y787197D1*
X1130841Y787664D1*
X1125057Y789052D1*
X1119561Y791329D1*
X1114489Y794437D1*
X1108537Y799846D1*
X1102036D1*
X1096062Y794437D1*
X1090990Y791329D1*
X1085494Y789052D1*
X1079710Y787664D1*
X1073780Y787197D1*
X1067849Y787664D1*
X1062065Y789052D1*
X1056569Y791329D1*
X1051497Y794437D1*
X1046973Y798300D1*
X1043110Y802824D1*
X1040002Y807896D1*
X1037725Y813392D1*
X1036337Y819176D1*
X1035881Y824839D1*
X1000233Y789317D1*
X994246Y785317D1*
X993880Y785148D1*
X994246Y785317D1*
X992904Y784631D1*
Y698064D1*
X923227D1*
X927911Y693460D1*
X931407Y688647D1*
X934108Y683347D1*
X935946Y677690D1*
X936877Y671814D1*
Y665866D1*
X935946Y659990D1*
X934108Y654333D1*
X931407Y649032D1*
X927911Y644220D1*
X923704Y640013D1*
X918892Y636517D1*
X913591Y633816D1*
X907934Y631978D1*
X902058Y631047D1*
X896110D1*
X891911Y631644D1*
X891910Y614888D1*
X806248D1*
Y720406D1*
X804452Y706345D1*
X804154Y633812D1*
X802615Y628352D1*
X801608Y626251D1*
X801359Y614888D1*
X787778Y614638D1*
X782215Y613531D1*
X734674D1*
X728701Y614789D1*
X729110Y614638D1*
X715697Y614888D1*
Y625484D1*
X713618Y630130D1*
X712511Y635693D1*
X712437Y727116D1*
X710807Y727794D1*
Y614888D1*
X625146D1*
Y747794D1*
X704921D1*
X662874Y864264D1*
X662432Y868861D1*
Y940296D1*
X529395Y940275D1*
X529348Y854466D1*
X528816Y850983D1*
X505239Y747832D1*
X566875Y747794D1*
Y718839D1*
X573263Y717395D1*
X578759Y715119D1*
X583831Y712011D1*
X588355Y708147D1*
X592218Y703624D1*
X595326Y698552D1*
X597603Y693056D1*
X598991Y687272D1*
X599458Y681341D1*
X598991Y675411D1*
X597603Y669626D1*
X595326Y664131D1*
X592218Y659059D1*
X588355Y654535D1*
X583831Y650672D1*
X578759Y647564D1*
X573263Y645287D1*
X566867Y643826D1*
X566875Y617575D1*
X574781Y609418D1*
X583209Y597819D1*
X589718Y585044D1*
X594149Y571408D1*
X596392Y557246D1*
Y542908D1*
X1777751D2*
X1775508Y528747D1*
X1771078Y515111D1*
X1764568Y502336D1*
X1756141Y490736D1*
X1746002Y480598D1*
X1734403Y472170D1*
X1721628Y465661D1*
X1707992Y461231D1*
X1693830Y458988D1*
X1679493D1*
X1665331Y461231D1*
X1651695Y465661D1*
X1638920Y472170D1*
X1627320Y480598D1*
X1617182Y490736D1*
X1608895Y502126D1*
X1607570Y493827D1*
X1604968Y485819D1*
X1601146Y478317D1*
X1596196Y471505D1*
X1590243Y465552D1*
X1583431Y460602D1*
X1575929Y456780D1*
X1567921Y454178D1*
X1559605Y452861D1*
X1551185D1*
X1542869Y454178D1*
X1534861Y456780D1*
X1527359Y460602D1*
X1520547Y465552D1*
X1514594Y471505D1*
X1509644Y478317D1*
X1505822Y485819D1*
X1503220Y493827D1*
X1501903Y502143D1*
Y510563D1*
X1503220Y518879D1*
X1505822Y526887D1*
X1509644Y534389D1*
X1514594Y541201D1*
X1520547Y547154D1*
X1527359Y552103D1*
X1534861Y555926D1*
X1542869Y558528D1*
X1551185Y559845D1*
X1559605D1*
X1567921Y558528D1*
X1575929Y555926D1*
X1583431Y552103D1*
X1590243Y547154D1*
X1595671Y541769D1*
X1595290Y550077D1*
X1596415Y564371D1*
X1599762Y578313D1*
X1605249Y591559D1*
X1612740Y603784D1*
X1622052Y614687D1*
X1632955Y623998D1*
X1645180Y631490D1*
X1658426Y636977D1*
X1672368Y640324D1*
X1686661Y641449D1*
X1700955Y640324D1*
X1714897Y636977D1*
X1728143Y631490D1*
X1740368Y623998D1*
X1751271Y614687D1*
X1760582Y603784D1*
X1768074Y591559D1*
X1773561Y578313D1*
X1776908Y564371D1*
X1778033Y550077D1*
X1777751Y542908D1*
X485368Y170210D2*
X483858Y160674D1*
X480874Y151491D1*
X476490Y142888D1*
X470815Y135076D1*
X463988Y128249D1*
X456176Y122574D1*
X447573Y118190D1*
X438390Y115207D1*
X428854Y113696D1*
X419199D1*
X409662Y115207D1*
X400479Y118190D1*
X391876Y122574D1*
X384065Y128249D1*
X377237Y135076D1*
X371562Y142888D1*
X367179Y151491D1*
X364195Y160674D1*
X362684Y170210D1*
Y179866D1*
X364195Y189402D1*
X367179Y198585D1*
X371562Y207188D1*
X377237Y215000D1*
X384065Y221827D1*
X388188Y225038D1*
X380517Y231529D1*
X374246Y238871D1*
X369201Y247103D1*
X365506Y256024D1*
X363252Y265412D1*
X362495Y275038D1*
X363252Y284664D1*
X365506Y294052D1*
X369201Y302973D1*
X374246Y311205D1*
X380517Y318547D1*
X388114Y325074D1*
X380503Y331543D1*
X374039Y339158D1*
X368892Y347719D1*
X365198Y357000D1*
X363055Y366756D1*
X362518Y376731D1*
X363602Y386661D1*
X366279Y396285D1*
X370478Y405348D1*
X376088Y413613D1*
X382961Y420861D1*
X390917Y426902D1*
X399745Y431576D1*
X409213Y434760D1*
X419071Y436370D1*
X429060Y436363D1*
X438917Y434741D1*
X448381Y431545D1*
X457203Y426859D1*
X465150Y420808D1*
X472014Y413551D1*
X477614Y405279D1*
X481801Y396210D1*
X484465Y386583D1*
X485537Y376652D1*
X485101Y367557D1*
X483086Y357773D1*
X479514Y348444D1*
X474480Y339817D1*
X468116Y332117D1*
X460590Y325549D1*
X459881Y325047D1*
X467536Y318547D1*
X473806Y311205D1*
X478851Y302973D1*
X482546Y294052D1*
X484800Y284664D1*
X485558Y275038D1*
X484800Y265412D1*
X482546Y256024D1*
X478851Y247103D1*
X473806Y238871D1*
X467536Y231529D1*
X459864Y225038D1*
X467536Y218547D1*
X473806Y211205D1*
X478851Y202973D1*
X482546Y194052D1*
X484800Y184664D1*
X485558Y175038D1*
X485368Y170210D1*
X1696404Y802144D2*
X1695087Y793828D1*
X1692485Y785820D1*
X1688663Y778318D1*
X1683714Y771507D1*
X1677760Y765553D1*
X1670948Y760604D1*
X1663446Y756781D1*
X1655438Y754179D1*
X1647122Y752862D1*
X1638702D1*
X1630386Y754179D1*
X1622378Y756781D1*
X1614876Y760604D1*
X1608064Y765553D1*
X1602111Y771507D1*
X1597162Y778318D1*
X1593339Y785820D1*
X1590737Y793828D1*
X1589420Y802144D1*
Y810564D1*
X1590737Y818880D1*
X1593339Y826888D1*
X1597162Y834390D1*
X1602111Y841202D1*
X1608064Y847156D1*
X1614876Y852105D1*
X1622378Y855927D1*
X1630386Y858529D1*
X1638702Y859846D1*
X1647122D1*
X1655438Y858529D1*
X1663446Y855927D1*
X1670948Y852105D1*
X1677760Y847156D1*
X1683714Y841202D1*
X1688663Y834390D1*
X1692485Y826888D1*
X1695087Y818880D1*
X1696404Y810564D1*
Y802144D1*
X1536589Y437766D2*
X1611719D1*
X1611979Y431254D1*
X1617909Y431720D1*
X1623840Y431254D1*
X1629624Y429865D1*
X1635120Y427589D1*
X1640192Y424480D1*
X1644715Y420617D1*
X1648579Y416094D1*
X1651687Y411022D1*
X1653963Y405526D1*
X1655352Y399741D1*
X1655819Y393811D1*
X1655352Y387881D1*
X1653963Y382096D1*
X1651687Y376600D1*
X1648579Y371528D1*
X1644715Y367005D1*
X1640192Y363142D1*
X1635739Y360380D1*
X1640340Y355843D1*
X1643836Y351031D1*
X1646537Y345730D1*
X1648375Y340073D1*
X1649306Y334197D1*
Y328249D1*
X1648375Y322373D1*
X1646537Y316716D1*
X1643836Y311415D1*
X1640340Y306603D1*
X1636133Y302396D1*
X1631321Y298900D1*
X1626020Y296199D1*
X1620363Y294361D1*
X1614487Y293430D1*
X1611711Y293321D1*
X1611719Y279270D1*
X1524089D1*
Y293382D1*
X1518219Y293862D1*
X1515311Y294440D1*
X1504277Y294428D1*
X1505265Y285051D1*
X1504728Y278225D1*
X1503129Y271566D1*
X1500509Y265240D1*
X1496931Y259401D1*
X1492484Y254195D1*
X1487277Y249747D1*
X1481438Y246170D1*
X1478485Y244808D1*
X1483861Y240771D1*
X1489815Y234818D1*
X1494764Y228006D1*
X1498991Y219407D1*
X1503263Y228006D1*
X1508212Y234818D1*
X1514165Y240771D1*
X1520977Y245720D1*
X1528479Y249543D1*
X1536487Y252145D1*
X1544803Y253462D1*
X1553223D1*
X1561539Y252145D1*
X1569547Y249543D1*
X1577049Y245720D1*
X1583861Y240771D1*
X1589815Y234818D1*
X1594764Y228006D1*
X1598991Y219407D1*
X1603263Y228006D1*
X1608212Y234818D1*
X1614165Y240771D1*
X1620977Y245720D1*
X1628479Y249543D1*
X1636487Y252145D1*
X1644803Y253462D1*
X1653223D1*
X1661539Y252145D1*
X1669547Y249543D1*
X1677049Y245720D1*
X1683861Y240771D1*
X1689815Y234818D1*
X1694764Y228006D1*
X1698586Y220504D1*
X1701188Y212496D1*
X1702505Y204180D1*
Y195760D1*
X1701188Y187444D1*
X1698586Y179436D1*
X1694764Y171934D1*
X1689815Y165122D1*
X1683861Y159168D1*
X1677049Y154219D1*
X1668451Y149992D1*
X1677049Y145720D1*
X1683861Y140771D1*
X1689815Y134818D1*
X1694764Y128006D1*
X1698586Y120504D1*
X1701188Y112496D1*
X1702505Y104180D1*
Y95760D1*
X1701188Y87444D1*
X1698586Y79436D1*
X1694764Y71934D1*
X1689815Y65122D1*
X1683861Y59168D1*
X1677049Y54219D1*
X1669547Y50397D1*
X1661539Y47795D1*
X1653223Y46478D1*
X1644803D1*
X1636487Y47795D1*
X1628479Y50397D1*
X1620977Y54219D1*
X1614165Y59168D1*
X1608212Y65122D1*
X1603263Y71934D1*
X1599036Y80532D1*
X1594764Y71934D1*
X1589815Y65122D1*
X1583861Y59168D1*
X1577049Y54219D1*
X1569547Y50397D1*
X1561539Y47795D1*
X1553223Y46478D1*
X1544803D1*
X1536487Y47795D1*
X1528479Y50397D1*
X1520977Y54219D1*
X1514165Y59168D1*
X1508212Y65122D1*
X1503263Y71934D1*
X1499036Y80532D1*
X1494764Y71934D1*
X1489815Y65122D1*
X1483861Y59168D1*
X1477049Y54219D1*
X1469547Y50397D1*
X1461539Y47795D1*
X1453223Y46478D1*
X1444803D1*
X1436487Y47795D1*
X1428479Y50397D1*
X1420977Y54219D1*
X1414165Y59168D1*
X1408212Y65122D1*
X1403263Y71934D1*
X1399036Y80532D1*
X1394764Y71934D1*
X1389815Y65122D1*
X1383861Y59168D1*
X1377049Y54219D1*
X1369547Y50397D1*
X1361539Y47795D1*
X1353223Y46478D1*
X1344803D1*
X1336487Y47795D1*
X1328479Y50397D1*
X1320977Y54219D1*
X1314165Y59168D1*
X1308212Y65122D1*
X1303263Y71934D1*
X1299036Y80532D1*
X1294764Y71934D1*
X1289815Y65122D1*
X1283861Y59168D1*
X1277049Y54219D1*
X1269547Y50397D1*
X1261539Y47795D1*
X1253223Y46478D1*
X1244803D1*
X1236487Y47795D1*
X1228479Y50397D1*
X1220977Y54219D1*
X1214165Y59168D1*
X1208212Y65122D1*
X1203263Y71934D1*
X1199036Y80532D1*
X1194764Y71934D1*
X1189815Y65122D1*
X1183861Y59168D1*
X1177049Y54219D1*
X1169547Y50397D1*
X1161539Y47795D1*
X1153223Y46478D1*
X1144803D1*
X1136487Y47795D1*
X1128479Y50397D1*
X1120977Y54219D1*
X1114165Y59168D1*
X1108212Y65122D1*
X1103263Y71934D1*
X1099036Y80532D1*
X1094764Y71934D1*
X1089815Y65122D1*
X1083861Y59168D1*
X1077049Y54219D1*
X1069547Y50397D1*
X1061539Y47795D1*
X1053223Y46478D1*
X1044803D1*
X1036487Y47795D1*
X1028479Y50397D1*
X1020977Y54219D1*
X1014165Y59168D1*
X1008212Y65122D1*
X1003263Y71934D1*
X999036Y80532D1*
X994764Y71934D1*
X989815Y65122D1*
X983861Y59168D1*
X977049Y54219D1*
X969547Y50397D1*
X961539Y47795D1*
X953223Y46478D1*
X944803D1*
X936487Y47795D1*
X928479Y50397D1*
X920977Y54219D1*
X914165Y59168D1*
X908212Y65122D1*
X903263Y71934D1*
X899036Y80532D1*
X894764Y71934D1*
X889815Y65122D1*
X883861Y59168D1*
X877049Y54219D1*
X869547Y50397D1*
X861539Y47795D1*
X853223Y46478D1*
X844803D1*
X836487Y47795D1*
X828479Y50397D1*
X820977Y54219D1*
X814165Y59168D1*
X808212Y65122D1*
X803263Y71934D1*
X799036Y80532D1*
X794764Y71934D1*
X789815Y65122D1*
X783861Y59168D1*
X777049Y54219D1*
X769547Y50397D1*
X761539Y47795D1*
X753223Y46478D1*
X744803D1*
X736487Y47795D1*
X728479Y50397D1*
X720977Y54219D1*
X714165Y59168D1*
X708212Y65122D1*
X703263Y71934D1*
X699036Y80532D1*
X694764Y71934D1*
X689815Y65122D1*
X683861Y59168D1*
X677049Y54219D1*
X669547Y50397D1*
X661539Y47795D1*
X653223Y46478D1*
X644803D1*
X636487Y47795D1*
X628479Y50397D1*
X620977Y54219D1*
X614165Y59168D1*
X608212Y65122D1*
X603263Y71934D1*
X599036Y80532D1*
X594764Y71934D1*
X589815Y65122D1*
X583861Y59168D1*
X577049Y54219D1*
X569547Y50397D1*
X561539Y47795D1*
X553223Y46478D1*
X544803D1*
X536487Y47795D1*
X528479Y50397D1*
X520977Y54219D1*
X514165Y59168D1*
X508212Y65122D1*
X503263Y71934D1*
X499440Y79436D1*
X496838Y87444D1*
X495521Y95760D1*
Y104180D1*
X496838Y112496D1*
X499440Y120504D1*
X503263Y128006D1*
X508212Y134818D1*
X514165Y140771D1*
X520977Y145720D1*
X529576Y149947D1*
X520977Y154219D1*
X514165Y159168D1*
X508212Y165122D1*
X503263Y171934D1*
X499440Y179436D1*
X496838Y187444D1*
X495521Y195760D1*
Y204180D1*
X496838Y212496D1*
X499440Y220504D1*
X503263Y228006D1*
X508212Y234818D1*
X514165Y240771D1*
X520977Y245720D1*
X528479Y249543D1*
X536487Y252145D1*
X543381Y253294D1*
X543385Y334598D1*
X570875D1*
X570885Y354098D1*
X627144D1*
Y334616D1*
X654644Y334598D1*
Y240338D1*
X629596D1*
X629640Y150020D1*
X636487Y152145D1*
X644803Y153462D1*
X653223D1*
X661539Y152145D1*
X669547Y149543D1*
X677049Y145720D1*
X683861Y140771D1*
X689815Y134818D1*
X694764Y128006D1*
X698991Y119407D1*
X703263Y128006D1*
X708212Y134818D1*
X714165Y140771D1*
X720977Y145720D1*
X729576Y149947D1*
X720977Y154219D1*
X714165Y159168D1*
X708212Y165122D1*
X703263Y171934D1*
X699440Y179436D1*
X696838Y187444D1*
X695521Y195760D1*
Y204180D1*
X696838Y212496D1*
X699440Y220504D1*
X703263Y228006D1*
X708212Y234818D1*
X714165Y240771D1*
X720977Y245720D1*
X728479Y249543D1*
X736487Y252145D1*
X744803Y253462D1*
X749687Y253601D1*
X749743Y337186D1*
X746642Y337937D1*
X742435Y333731D1*
X737623Y330235D1*
X732322Y327534D1*
X726665Y325696D1*
X720789Y324765D1*
X714841D1*
X708965Y325696D1*
X703308Y327534D1*
X698007Y330235D1*
X693195Y333731D1*
X688988Y337937D1*
X685492Y342750D1*
X682791Y348050D1*
X680953Y353708D1*
X680022Y359583D1*
Y365532D1*
X680953Y371407D1*
X682791Y377065D1*
X685492Y382365D1*
X688988Y387178D1*
X693195Y391384D1*
X698007Y394881D1*
X703308Y397581D1*
X708965Y399420D1*
X714841Y400350D1*
X720789D1*
X726665Y399420D1*
X732322Y397581D1*
X737623Y394881D1*
X742435Y391384D1*
X746642Y387178D1*
X749692Y383032D1*
X749694Y397186D1*
X796618D1*
X836639Y437245D1*
X838027Y443030D1*
X840304Y448525D1*
X843412Y453598D1*
X847275Y458121D1*
X851799Y461984D1*
X856871Y465092D1*
X862367Y467369D1*
X868151Y468758D1*
X874081Y469224D1*
X880012Y468758D1*
X885796Y467369D1*
X891292Y465092D1*
X896364Y461984D1*
X900887Y458121D1*
X904751Y453598D1*
X907859Y448525D1*
X910135Y443030D1*
X911524Y437245D1*
X911991Y431315D1*
X911524Y425385D1*
X910135Y419600D1*
X907859Y414104D1*
X904751Y409032D1*
X900887Y404509D1*
X896364Y400646D1*
X891292Y397537D1*
X885796Y395261D1*
X879931Y393863D1*
X860969Y374891D1*
X860954Y252274D1*
X869547Y249543D1*
X877049Y245720D1*
X883861Y240771D1*
X889815Y234818D1*
X894764Y228006D1*
X898991Y219407D1*
X903263Y228006D1*
X908212Y234818D1*
X914165Y240771D1*
X920977Y245720D1*
X928479Y249543D1*
X936487Y252145D1*
X944803Y253462D1*
X953223D1*
X961539Y252145D1*
X969547Y249543D1*
X977049Y245720D1*
X983861Y240771D1*
X989815Y234818D1*
X994764Y228006D1*
X998991Y219407D1*
X1003263Y228006D1*
X1008212Y234818D1*
X1014165Y240771D1*
X1020977Y245720D1*
X1028479Y249543D1*
X1032606Y251050D1*
X1025639Y253772D1*
X1020566Y256880D1*
X1016043Y260744D1*
X1012180Y265267D1*
X1009072Y270339D1*
X1006795Y275835D1*
X1005406Y281619D1*
X1004940Y287550D1*
X1005406Y293480D1*
X1006795Y299264D1*
X1009072Y304760D1*
X1012180Y309832D1*
X1016043Y314356D1*
X1020566Y318219D1*
X1025639Y321327D1*
X1031134Y323604D1*
X1036919Y324993D1*
X1042849Y325459D1*
X1048779Y324993D1*
X1054564Y323604D1*
X1060060Y321327D1*
X1065132Y318219D1*
X1069655Y314356D1*
X1073518Y309832D1*
X1076627Y304760D1*
X1078903Y299264D1*
X1080292Y293480D1*
X1080759Y287550D1*
X1080292Y281619D1*
X1078903Y275835D1*
X1076627Y270339D1*
X1073518Y265267D1*
X1069655Y260744D1*
X1065132Y256880D1*
X1058064Y252852D1*
X1065594Y251001D1*
X1073373Y247779D1*
X1080552Y243380D1*
X1086955Y237911D1*
X1092423Y231509D1*
X1096822Y224330D1*
X1098991Y219407D1*
X1103263Y228006D1*
X1108212Y234818D1*
X1114165Y240771D1*
X1120977Y245720D1*
X1128479Y249543D1*
X1136487Y252145D1*
X1144803Y253462D1*
X1153223D1*
X1161539Y252145D1*
X1169547Y249543D1*
X1177049Y245720D1*
X1183861Y240771D1*
X1189815Y234818D1*
X1194764Y228006D1*
X1198991Y219407D1*
X1203263Y228006D1*
X1208212Y234818D1*
X1214165Y240771D1*
X1220977Y245720D1*
X1228479Y249543D1*
X1236487Y252145D1*
X1244803Y253462D1*
X1253223D1*
X1261539Y252145D1*
X1269547Y249543D1*
X1277049Y245720D1*
X1283861Y240771D1*
X1289815Y234818D1*
X1294764Y228006D1*
X1298991Y219407D1*
X1303263Y228006D1*
X1308212Y234818D1*
X1314165Y240771D1*
X1320977Y245720D1*
X1328479Y249543D1*
X1336487Y252145D1*
X1344803Y253462D1*
X1353223D1*
X1361539Y252145D1*
X1369547Y249543D1*
X1377049Y245720D1*
X1383861Y240771D1*
X1389815Y234818D1*
X1394764Y228006D1*
X1398991Y219407D1*
X1403263Y228006D1*
X1408212Y234818D1*
X1414165Y240771D1*
X1420977Y245720D1*
X1428479Y249543D1*
X1433842Y251399D1*
X1428445Y256711D1*
X1424420Y262250D1*
X1421311Y268352D1*
X1419195Y274864D1*
X1418124Y281627D1*
Y288475D1*
X1419036Y294437D1*
X1361796Y294428D1*
X1331517Y264262D1*
X1325531Y260262D1*
X1318777Y257770D1*
X1311627Y256924D1*
X1311299Y256937D1*
X1227966Y257018D1*
X1220905Y258423D1*
X1214367Y261437D1*
X1208713Y265894D1*
X1208490Y266135D1*
X1148188Y326419D1*
X1142702Y325115D1*
X1136772Y324648D1*
X1130841Y325115D1*
X1125057Y326504D1*
X1119561Y328780D1*
X1114489Y331888D1*
X1109966Y335752D1*
X1106102Y340275D1*
X1102994Y345347D1*
X1100718Y350843D1*
X1099329Y356627D1*
X1098862Y362558D1*
X1099329Y368488D1*
X1100718Y374272D1*
X1102994Y379768D1*
X1106102Y384840D1*
X1109966Y389364D1*
X1114489Y393227D1*
X1119561Y396335D1*
X1125057Y398612D1*
X1130841Y400000D1*
X1136772Y400467D1*
X1139618Y400355D1*
X1145580Y405728D1*
X1150652Y408837D1*
X1156148Y411113D1*
X1161932Y412502D1*
X1167862Y412968D1*
X1173793Y412502D1*
X1179577Y411113D1*
X1185073Y408837D1*
X1190145Y405728D1*
X1194668Y401865D1*
X1198532Y397342D1*
X1201640Y392270D1*
X1203916Y386774D1*
X1205305Y380989D1*
X1205772Y375059D1*
X1205305Y369129D1*
X1203916Y363344D1*
X1202180Y359021D1*
X1220765Y340466D1*
X1224420Y347852D1*
X1229653Y354699D1*
X1226597Y360552D1*
X1224759Y366209D1*
X1223828Y372085D1*
Y378033D1*
X1224759Y383909D1*
X1226597Y389566D1*
X1229298Y394867D1*
X1232794Y399679D1*
X1237001Y403886D1*
X1241813Y407382D1*
X1247113Y410083D1*
X1252771Y411921D1*
X1258646Y412852D1*
X1264595D1*
X1270471Y411921D1*
X1276128Y410083D1*
X1281428Y407382D1*
X1286241Y403886D1*
X1290447Y399679D1*
X1293944Y394867D1*
X1296644Y389566D1*
X1298483Y383909D1*
X1299413Y378033D1*
Y372085D1*
X1298483Y366209D1*
X1296644Y360552D1*
X1293601Y354739D1*
X1298835Y347852D1*
X1301943Y341751D1*
X1304059Y335238D1*
X1305131Y328475D1*
X1305241Y324449D1*
X1329241Y348342D1*
X1335227Y352342D1*
X1341982Y354834D1*
X1342359Y354909D1*
X1341982Y354834D1*
X1342359Y354909D1*
X1337007Y358728D1*
X1332801Y362935D1*
X1329304Y367747D1*
X1326604Y373048D1*
X1324765Y378705D1*
X1323835Y384581D1*
Y390529D1*
X1324765Y396405D1*
X1326604Y402062D1*
X1329304Y407363D1*
X1332801Y412175D1*
X1337007Y416382D1*
X1341820Y419878D1*
X1347120Y422579D1*
X1352778Y424417D1*
X1358653Y425348D1*
X1364602D1*
X1370477Y424417D1*
X1376135Y422579D1*
X1381435Y419878D1*
X1386248Y416382D1*
X1390454Y412175D1*
X1393950Y407363D1*
X1396651Y402062D1*
X1398489Y396405D1*
X1399420Y390529D1*
Y384581D1*
X1398489Y378705D1*
X1396651Y373048D1*
X1393950Y367747D1*
X1390454Y362935D1*
X1386248Y358728D1*
X1382083Y355665D1*
X1419004Y355680D1*
X1418124Y361627D1*
Y368475D1*
X1419195Y375238D1*
X1421311Y381751D1*
X1424420Y387852D1*
X1428445Y393392D1*
X1433287Y398234D1*
X1438827Y402258D1*
X1444928Y405367D1*
X1451440Y407483D1*
X1458204Y408554D1*
X1465051D1*
X1471814Y407483D1*
X1478327Y405367D1*
X1484428Y402258D1*
X1489968Y398234D1*
X1494810Y393392D1*
X1498835Y387852D1*
X1501943Y381751D1*
X1504059Y375238D1*
X1505131Y368475D1*
X1505230Y364155D1*
X1512435Y367358D1*
X1518219Y368747D1*
X1524092Y369212D1*
X1524089Y437766D1*
X1536589D1*
X1919056Y522472D2*
X1918244Y515021D1*
X1916472Y507739D1*
X1913769Y500749D1*
X1910181Y494169D1*
X1905769Y488110D1*
X1900608Y482676D1*
X1894785Y477957D1*
X1890097Y474980D1*
X1898920Y468766D1*
X1905311Y462376D1*
X1910623Y455064D1*
X1914726Y447012D1*
X1917519Y438416D1*
X1918933Y429490D1*
Y420452D1*
X1917519Y411526D1*
X1914726Y402931D1*
X1910623Y394878D1*
X1905311Y387566D1*
X1898920Y381176D1*
X1891609Y375864D1*
X1883556Y371761D1*
X1874961Y368968D1*
X1866035Y367554D1*
X1856997D1*
X1848071Y368968D1*
X1839475Y371761D1*
X1831423Y375864D1*
X1824111Y381176D1*
X1817721Y387566D1*
X1812408Y394878D1*
X1808305Y402931D1*
X1805513Y411526D1*
X1804099Y420452D1*
Y429490D1*
X1805513Y438416D1*
X1808305Y447012D1*
X1812408Y455064D1*
X1817721Y462376D1*
X1824111Y468766D1*
X1831423Y474078D1*
X1832979Y474950D1*
X1825016Y480419D1*
X1819540Y485535D1*
X1814775Y491320D1*
X1810801Y497674D1*
X1807686Y504491D1*
X1805482Y511654D1*
X1804227Y519043D1*
X1803942Y526532D1*
X1804633Y533995D1*
X1806286Y541305D1*
X1808875Y548339D1*
X1812355Y554977D1*
X1816667Y561106D1*
X1821739Y566624D1*
X1827485Y571436D1*
X1833807Y575462D1*
X1840598Y578633D1*
X1847743Y580895D1*
X1855121Y582209D1*
X1862608Y582555D1*
X1870076Y581926D1*
X1877400Y580332D1*
X1884454Y577801D1*
X1891120Y574375D1*
X1897284Y570112D1*
X1902843Y565086D1*
X1907702Y559379D1*
X1911779Y553091D1*
X1915005Y546326D1*
X1917325Y539199D1*
X1918700Y531832D1*
X1919056Y522472D1*
X1608887Y695883D2*
X1607570Y687567D1*
X1604968Y679559D1*
X1601146Y672057D1*
X1596196Y665245D1*
X1590243Y659292D1*
X1583431Y654343D1*
X1575929Y650520D1*
X1567921Y647918D1*
X1559605Y646601D1*
X1551185D1*
X1542869Y647918D1*
X1534861Y650520D1*
X1527359Y654343D1*
X1520547Y659292D1*
X1514594Y665245D1*
X1509644Y672057D1*
X1505822Y679559D1*
X1503220Y687567D1*
X1501903Y695883D1*
Y704303D1*
X1503220Y712619D1*
X1505822Y720627D1*
X1509644Y728129D1*
X1514594Y734941D1*
X1520547Y740895D1*
X1527359Y745844D1*
X1534861Y749666D1*
X1542869Y752268D1*
X1551185Y753585D1*
X1559605D1*
X1567921Y752268D1*
X1575929Y749666D1*
X1583431Y745844D1*
X1590243Y740895D1*
X1596196Y734941D1*
X1601146Y728129D1*
X1604968Y720627D1*
X1607570Y712619D1*
X1608887Y704303D1*
Y695883D1*
X1499436Y647114D2*
X1498505Y641238D1*
X1496667Y635581D1*
X1493966Y630280D1*
X1490470Y625468D1*
X1486263Y621261D1*
X1481451Y617765D1*
X1476150Y615064D1*
X1470493Y613226D1*
X1464617Y612295D1*
X1458669D1*
X1452793Y613226D1*
X1447136Y615064D1*
X1441835Y617765D1*
X1437023Y621261D1*
X1432816Y625468D1*
X1429320Y630280D1*
X1426619Y635581D1*
X1424781Y641238D1*
X1423850Y647114D1*
Y653062D1*
X1424781Y658938D1*
X1426619Y664595D1*
X1429320Y669896D1*
X1432816Y674708D1*
X1437023Y678914D1*
X1441835Y682411D1*
X1447136Y685112D1*
X1452793Y686950D1*
X1458669Y687880D1*
X1464617D1*
X1470493Y686950D1*
X1476150Y685112D1*
X1481451Y682411D1*
X1486263Y678914D1*
X1490470Y674708D1*
X1493966Y669896D1*
X1496667Y664595D1*
X1498505Y658938D1*
X1499436Y653062D1*
Y647114D1*
X1261911Y578356D2*
X1260980Y572481D1*
X1259142Y566823D1*
X1256441Y561523D1*
X1252889Y556651D1*
X1258346Y556617D1*
X1264221Y555686D1*
X1269879Y553848D1*
X1275179Y551147D1*
X1279992Y547651D1*
X1284198Y543444D1*
X1287695Y538632D1*
X1290395Y533331D1*
X1292233Y527674D1*
X1293164Y521798D1*
Y515850D1*
X1292233Y509974D1*
X1290395Y504317D1*
X1287695Y499016D1*
X1284198Y494204D1*
X1279992Y489998D1*
X1275179Y486501D1*
X1269879Y483800D1*
X1264221Y481962D1*
X1258346Y481032D1*
X1252397D1*
X1246522Y481962D1*
X1240864Y483800D1*
X1235564Y486501D1*
X1230751Y489998D1*
X1226545Y494204D1*
X1223048Y499016D1*
X1220348Y504317D1*
X1218509Y509974D1*
X1217579Y515850D1*
Y521798D1*
X1218509Y527674D1*
X1220348Y533331D1*
X1223048Y538632D1*
X1226600Y543504D1*
X1221144Y543538D1*
X1215268Y544469D1*
X1209611Y546307D1*
X1204310Y549008D1*
X1199498Y552504D1*
X1195292Y556710D1*
X1191795Y561523D1*
X1189094Y566823D1*
X1187256Y572481D1*
X1186326Y578356D1*
Y584305D1*
X1187256Y590180D1*
X1189094Y595838D1*
X1191795Y601138D1*
X1195292Y605951D1*
X1199498Y610157D1*
X1204310Y613654D1*
X1209611Y616354D1*
X1215268Y618193D1*
X1221144Y619123D1*
X1227092D1*
X1232968Y618193D1*
X1238625Y616354D1*
X1243926Y613654D1*
X1248738Y610157D1*
X1252945Y605951D1*
X1256441Y601138D1*
X1259142Y595838D1*
X1260980Y590180D1*
X1261911Y584305D1*
Y578356D1*
X1180652Y478346D2*
X1179722Y472470D1*
X1177883Y466813D1*
X1175183Y461513D1*
X1171686Y456700D1*
X1167480Y452494D1*
X1162667Y448997D1*
X1157367Y446296D1*
X1151709Y444458D1*
X1145834Y443528D1*
X1139885D1*
X1134010Y444458D1*
X1128352Y446296D1*
X1123052Y448997D1*
X1118239Y452494D1*
X1114033Y456700D1*
X1110536Y461513D1*
X1107836Y466813D1*
X1105998Y472470D1*
X1105067Y478346D1*
Y484295D1*
X1105998Y490170D1*
X1107836Y495827D1*
X1110536Y501128D1*
X1114033Y505940D1*
X1118239Y510147D1*
X1123052Y513643D1*
X1128352Y516344D1*
X1134010Y518182D1*
X1139885Y519113D1*
X1145834D1*
X1151709Y518182D1*
X1157367Y516344D1*
X1162667Y513643D1*
X1167480Y510147D1*
X1171686Y505940D1*
X1175183Y501128D1*
X1177883Y495827D1*
X1179722Y490170D1*
X1180652Y484295D1*
Y478346D1*
X1080642Y634612D2*
X1080212Y631257D1*
X1085817Y629886D1*
X1091313Y627610D1*
X1096385Y624501D1*
X1102384Y619041D1*
X1108250Y619043D1*
X1114125Y618113D1*
X1119783Y616274D1*
X1125083Y613574D1*
X1129896Y610077D1*
X1134102Y605871D1*
X1137599Y601058D1*
X1140299Y595758D1*
X1142138Y590100D1*
X1143068Y584225D1*
Y578276D1*
X1142138Y572401D1*
X1140299Y566743D1*
X1137599Y561443D1*
X1134102Y556630D1*
X1129896Y552424D1*
X1125083Y548927D1*
X1119783Y546227D1*
X1114125Y544389D1*
X1108250Y543458D1*
X1102301D1*
X1096426Y544389D1*
X1090768Y546227D1*
X1085468Y548927D1*
X1080655Y552424D1*
X1076994Y556041D1*
X1071128Y556039D1*
X1065253Y556970D1*
X1059595Y558808D1*
X1054295Y561509D1*
X1049482Y565005D1*
X1045276Y569212D1*
X1041779Y574024D1*
X1039079Y579325D1*
X1037240Y584982D1*
X1036310Y590858D1*
Y596806D1*
X1036739Y600161D1*
X1031134Y601533D1*
X1025639Y603809D1*
X1020566Y606917D1*
X1016043Y610781D1*
X1012180Y615304D1*
X1009072Y620376D1*
X1006795Y625872D1*
X1005406Y631656D1*
X1004940Y637587D1*
X1005406Y643517D1*
X1006795Y649301D1*
X1009072Y654797D1*
X1012180Y659869D1*
X1016043Y664393D1*
X1020566Y668256D1*
X1025639Y671364D1*
X1031134Y673641D1*
X1036919Y675029D1*
X1042849Y675496D1*
X1048779Y675029D1*
X1054564Y673641D1*
X1060060Y671364D1*
X1065132Y668256D1*
X1069655Y664393D1*
X1073518Y659869D1*
X1076627Y654797D1*
X1078903Y649301D1*
X1080292Y643517D1*
X1080759Y637587D1*
X1080642Y634612D1*
X699352Y528351D2*
X698421Y522476D1*
X696583Y516818D1*
X693882Y511518D1*
X690386Y506705D1*
X686179Y502499D1*
X681367Y499002D1*
X676066Y496302D1*
X670409Y494463D1*
X664533Y493533D1*
X658585D1*
X652709Y494463D1*
X647052Y496302D1*
X641751Y499002D1*
X636939Y502499D1*
X632732Y506705D1*
X629236Y511518D1*
X626535Y516818D1*
X624697Y522476D1*
X623766Y528351D1*
Y534300D1*
X624697Y540175D1*
X626535Y545833D1*
X629236Y551133D1*
X632732Y555946D1*
X636939Y560152D1*
X641751Y563649D1*
X647052Y566349D1*
X652709Y568187D1*
X658585Y569118D1*
X664533D1*
X670409Y568187D1*
X676066Y566349D1*
X681367Y563649D1*
X686179Y560152D1*
X690386Y555946D1*
X693882Y551133D1*
X696583Y545833D1*
X698421Y540175D1*
X699352Y534300D1*
Y528351D1*
X1486783Y478296D2*
X1485853Y472421D1*
X1484015Y466763D1*
X1481314Y461463D1*
X1477817Y456650D1*
X1473611Y452444D1*
X1468798Y448947D1*
X1463498Y446247D1*
X1457841Y444408D1*
X1451965Y443478D1*
X1446016D1*
X1440141Y444408D1*
X1434483Y446247D1*
X1429183Y448947D1*
X1424371Y452444D1*
X1420164Y456650D1*
X1416668Y461463D1*
X1413967Y466763D1*
X1412129Y472421D1*
X1411198Y478296D1*
Y484245D1*
X1412129Y490120D1*
X1413967Y495778D1*
X1416668Y501078D1*
X1420164Y505891D1*
X1424371Y510097D1*
X1429183Y513593D1*
X1434483Y516294D1*
X1440141Y518132D1*
X1446016Y519063D1*
X1451965D1*
X1457841Y518132D1*
X1463498Y516294D1*
X1468798Y513593D1*
X1473611Y510097D1*
X1477817Y505891D1*
X1481314Y501078D1*
X1484015Y495778D1*
X1485853Y490120D1*
X1486783Y484245D1*
Y478296D1*
X1861690Y737597D2*
D14*
Y680051D1*
X1804145Y737597D2*
X1919236D1*
X1861516Y276267D2*
Y218722D1*
X1803970D2*
X1919061D1*
X424026Y436521D2*
Y375038D1*
X362544D2*
X485509D1*
X949089Y743848D2*
Y698113D1*
Y743848D2*
X992855D1*
X1861516Y582517D2*
Y524971D1*
X1803970D2*
X1919061D1*
X149010Y681220D2*
X210493D1*
X342942Y747745D2*
D16*
Y614937D1*
X300161Y681341D2*
X385724D1*
X667976Y747745D2*
Y614937D1*
X625195Y681341D2*
X710759D1*
X251514Y912751D2*
D21*
X490289D1*
X251514Y887882D2*
X490289D1*
X251514Y863013D2*
X490289D1*
X386451Y838144D2*
X485797D1*
X402271Y813276D2*
X480133D1*
X418092Y788407D2*
X474420D1*
X421070Y763538D2*
X468756D1*
X422144Y738669D2*
X463092D1*
X423219Y713800D2*
X457379D1*
X424293Y688932D2*
X451715D1*
X425416Y664063D2*
X446002D1*
X423496Y650087D2*
X445371D1*
X492806Y857829D1*
X492793Y937619D1*
X249014D1*
Y862609D1*
X363483Y862455D1*
X367202Y861247D1*
X370366Y858948D1*
X372073Y856820D1*
X416748Y786330D1*
X417725Y782543D1*
X423503Y650037D1*
X701562Y912751D2*
X952836D1*
X701562Y887882D2*
X952836D1*
X704467Y863013D2*
X952836D1*
X713549Y838144D2*
X804399D1*
X722582Y813276D2*
X796098D1*
X731615Y788407D2*
X787846D1*
X740649Y763538D2*
X779545D1*
X749682Y738669D2*
X771244D1*
X751586Y713800D2*
X765367D1*
X751586Y688932D2*
X765367D1*
X751586Y664063D2*
X765367D1*
X748111Y736140D2*
X749028Y732327D1*
X749067Y650087D1*
X767822D1*
X767975Y720801D1*
X772416Y734657D1*
X812982Y855868D1*
X815305Y859015D1*
X818486Y861289D1*
X822214Y862470D1*
X849076Y862609D1*
X955341D1*
Y937619D1*
X699062D1*
Y871037D1*
X748838Y733728D1*
X749054Y730786D1*
D30*
X1861690Y837597D3*
Y737597D3*
X1861516Y218722D3*
Y118722D3*
D35*
X205262Y81223D3*
D31*
X424026Y175038D3*
D35*
X311512Y81278D3*
D31*
X424026Y275038D3*
D32*
X1242762Y906222D3*
D31*
X424026Y375038D3*
D32*
X1342762Y906222D3*
X1442762D3*
X1542762D3*
X1642762D3*
X1742764D3*
D35*
X330274Y531325D3*
D32*
X1642912Y806354D3*
D38*
X274018Y900114D3*
X917836D3*
D32*
X1142860Y906365D3*
D25*
X1567904Y391983D3*
Y325054D3*
X949089Y810777D3*
Y743848D3*
D30*
X1861516Y531222D3*
Y431222D3*
D31*
X149010Y581220D3*
Y681220D3*
Y781220D3*
D32*
X1649013Y199970D3*
Y99970D3*
X1549013Y199970D3*
Y99970D3*
X1449013Y199970D3*
Y99970D3*
X1349013Y199970D3*
Y99970D3*
X1249013Y199970D3*
Y99970D3*
X1149013Y199970D3*
Y99970D3*
X1049013Y199970D3*
Y99970D3*
X949013Y199970D3*
Y99970D3*
X849013Y199970D3*
Y99970D3*
X749013Y199970D3*
Y99970D3*
X649013Y199970D3*
Y99970D3*
X549013Y199970D3*
Y99970D3*
D46*
X805324Y350056D3*
Y290056D3*
D47*
Y320056D3*
D46*
X599014Y347468D3*
Y287468D3*
D47*
Y317468D3*
D32*
X1555395Y700093D3*
Y506353D3*
D51*
X524045Y681341D3*
X433493D3*
X342942D3*
D52*
X433493Y909688D3*
D51*
X849079Y681341D3*
X758528D3*
X667976D3*
D52*
X758528Y909688D3*
D46*
X61496Y710088D3*
Y650088D3*
M02*
