G04 DipTrace 3.0.0.2*
G04 Inner2[+5v].gbr*
%MOIN*%
G04 #@! TF.FileFunction,Copper,L3,Inr*
G04 #@! TF.Part,Single*
%ADD16C,0.059055*%
%ADD28C,0.066929*%
%ADD29C,0.074803*%
%ADD32C,0.07874*%
G04 #@! TA.AperFunction,CopperBalancing*
%ADD14C,0.012992*%
G04 #@! TA.AperFunction,Conductor*
%ADD17C,0.062992*%
G04 #@! TA.AperFunction,CopperBalancing*
%ADD19C,0.025*%
G04 #@! TA.AperFunction,ViaPad*
%ADD46C,0.027559*%
%ADD48C,0.04*%
%FSLAX26Y26*%
G04*
G70*
G90*
G75*
G01*
G04 Inner2_Plane*
%LPD*%
X1850104Y1043789D2*
D14*
Y1031287D1*
X1293724Y1074924D2*
X1256224D1*
X1249975Y1081173D1*
X1431310Y681251D2*
X1400056D1*
X699972Y474979D2*
D17*
X793732Y568739D1*
X812487D1*
X531220Y993673D2*
X699972Y824921D1*
Y474979D1*
X1543701Y899970D2*
D14*
X1256238D1*
X1112526Y756258D1*
X1999974Y724924D2*
X2099978D1*
Y581088D1*
X2068877Y549987D1*
X1187408D1*
X1137474Y599921D1*
X1831223Y1306173D2*
Y1249923D1*
X1631224Y1049924D1*
X1468724D1*
X1437474Y1018673D1*
D46*
X1850104Y1043789D3*
D48*
X1293724Y1074924D3*
D46*
X1431310Y681251D3*
D48*
X993718Y900024D3*
X1287545Y975031D3*
D46*
X1762450Y1012471D3*
X1850104Y950029D3*
D48*
X1112526Y700001D3*
D46*
X1525232Y756258D3*
X1618824Y974848D3*
X1462240Y1212556D3*
D3*
X1650083Y912525D3*
X1543701Y899970D3*
X1112526Y756258D3*
X1493736Y1231308D3*
X1525232Y1212556D3*
D48*
X1999974Y724924D3*
D46*
X1556728Y787512D3*
D48*
X749988Y1281314D3*
D46*
X1937450Y806220D3*
X1588224Y1212424D3*
X1437474Y1018673D3*
X1050020Y925026D3*
X1837451Y874971D3*
D48*
X1268793Y831266D3*
X443444Y1309108D2*
D19*
X706852D1*
X793151D2*
X1570035D1*
X2192419D2*
X2314762D1*
X440222Y1284239D2*
X698307D1*
X801647D2*
X1574186D1*
X2267516D2*
X2315690D1*
X440222Y1259370D2*
X517496D1*
X544958D2*
X703386D1*
X796570D2*
X837370D1*
X1137584D2*
X1458610D1*
X1528844D2*
X1593180D1*
X1669274D2*
X1693180D1*
X1769274D2*
X1787614D1*
X1869470D2*
X1893180D1*
X1969274D2*
X1993180D1*
X2069274D2*
X2093180D1*
X2289978D2*
X2315690D1*
X440222Y1234501D2*
X476042D1*
X586412D2*
X732194D1*
X767760D2*
X826970D1*
X1147986D2*
X1422722D1*
X1627672D2*
X1762760D1*
X1865954D2*
X1977311D1*
X2085436D2*
X2166276D1*
X2296520D2*
X2315690D1*
X440222Y1209632D2*
X464030D1*
X598424D2*
X828239D1*
X1146715D2*
X1416814D1*
X1633678D2*
X1737907D1*
X1843982D2*
X1970182D1*
X2092566D2*
X2170035D1*
X2292760D2*
X2315690D1*
X440222Y1184764D2*
X462663D1*
X599791D2*
X842058D1*
X1132898D2*
X1426871D1*
X1623668D2*
X1713004D1*
X1819127D2*
X1974186D1*
X2088562D2*
X2186882D1*
X2275963D2*
X2315690D1*
X440222Y1159895D2*
X471256D1*
X591198D2*
X837760D1*
X1137194D2*
X1688151D1*
X1794226D2*
X1992790D1*
X2069958D2*
X2173063D1*
X2289734D2*
X2315690D1*
X440222Y1135026D2*
X476432D1*
X585974D2*
X827067D1*
X1147887D2*
X1663298D1*
X1769371D2*
X1886979D1*
X1975719D2*
X2166276D1*
X2296520D2*
X2315690D1*
X440222Y1110157D2*
X464127D1*
X598278D2*
X828092D1*
X1146862D2*
X1638395D1*
X1744518D2*
X1872379D1*
X1990319D2*
X2169840D1*
X2292955D2*
X2315690D1*
X440222Y1085289D2*
X462614D1*
X599840D2*
X841570D1*
X1133386D2*
X1461051D1*
X1719615D2*
X1870719D1*
X1992028D2*
X2186295D1*
X2276500D2*
X2315690D1*
X440222Y1060420D2*
X470963D1*
X591491D2*
X1424576D1*
X1694762D2*
X1880486D1*
X1982214D2*
X2315690D1*
X440222Y1035551D2*
X476871D1*
X585583D2*
X1395378D1*
X1669908D2*
X1723650D1*
X1801256D2*
X1920963D1*
X1941735D2*
X2315690D1*
X440222Y1010682D2*
X464274D1*
X602623D2*
X677898D1*
X747058D2*
X829020D1*
X958483D2*
X1251091D1*
X1324010D2*
X1392692D1*
X1482555D2*
X1592496D1*
X1645154D2*
X1716959D1*
X1807946D2*
X2010416D1*
X2139831D2*
X2315690D1*
X440222Y985814D2*
X462516D1*
X627478D2*
X651432D1*
X773522D2*
X810123D1*
X977379D2*
X1236979D1*
X1338122D2*
X1407194D1*
X1467760D2*
X1574723D1*
X1662927D2*
X1726188D1*
X1798718D2*
X1823698D1*
X1876500D2*
X1991471D1*
X2158727D2*
X2197966D1*
X2264488D2*
X2315690D1*
X440222Y960945D2*
X470671D1*
X782751D2*
X801530D1*
X986022D2*
X1023844D1*
X1076207D2*
X1237858D1*
X1337243D2*
X1575602D1*
X1662047D2*
X1805974D1*
X1894226D2*
X1982878D1*
X2288903D2*
X2315690D1*
X440222Y936076D2*
X495182D1*
X782164D2*
X800211D1*
X1094127D2*
X1254899D1*
X1320154D2*
X1517790D1*
X1569615D2*
X1597672D1*
X1688610D2*
X1806902D1*
X2296227D2*
X2315690D1*
X440222Y911207D2*
X525260D1*
X771570D2*
X805875D1*
X1093248D2*
X1214420D1*
X1587731D2*
X1604558D1*
X1695592D2*
X1811735D1*
X2293151D2*
X2315690D1*
X440222Y886339D2*
X550163D1*
X740514D2*
X820182D1*
X1071374D2*
X1189567D1*
X1586999D2*
X1613444D1*
X1686706D2*
X1793474D1*
X2148668D2*
X2184879D1*
X2277575D2*
X2315690D1*
X440222Y861470D2*
X575016D1*
X751012D2*
X851579D1*
X935924D2*
X960563D1*
X1026843D2*
X1164664D1*
X1270787D2*
X1521988D1*
X1565416D2*
X1794108D1*
X1978210D2*
X2032927D1*
X2117272D2*
X2173795D1*
X2288610D2*
X2315690D1*
X440222Y836601D2*
X599870D1*
X762096D2*
X1139811D1*
X1245934D2*
X1815495D1*
X1859411D2*
X1904459D1*
X1970398D2*
X2166227D1*
X2296178D2*
X2315690D1*
X549402Y811732D2*
X624772D1*
X860631D2*
X1114958D1*
X1221031D2*
X1518668D1*
X1594811D2*
X1892302D1*
X1982604D2*
X2169108D1*
X2293346D2*
X2315690D1*
X563171Y786863D2*
X636735D1*
X875035D2*
X1079802D1*
X1196178D2*
X1492496D1*
X1602234D2*
X1896500D1*
X1978356D2*
X2184343D1*
X2278112D2*
X2315690D1*
X563707Y761995D2*
X636735D1*
X877331D2*
X1067399D1*
X1171324D2*
X1480094D1*
X1593883D2*
X1965055D1*
X2034899D2*
X2315690D1*
X563707Y737126D2*
X636735D1*
X869127D2*
X1071500D1*
X1153551D2*
X1484196D1*
X1566295D2*
X1949772D1*
X2136071D2*
X2315690D1*
X563707Y712257D2*
X636735D1*
X860143D2*
X1062322D1*
X1162731D2*
X1949870D1*
X2138219D2*
X2315690D1*
X563707Y687388D2*
X636735D1*
X874840D2*
X1062419D1*
X1162634D2*
X1965592D1*
X2034362D2*
X2061735D1*
X2138219D2*
X2315690D1*
X563707Y662520D2*
X636735D1*
X877379D2*
X1078092D1*
X1146959D2*
X2061735D1*
X2138219D2*
X2190983D1*
X2271471D2*
X2315690D1*
X563707Y637651D2*
X636735D1*
X869470D2*
X889908D1*
X2138219D2*
X2171306D1*
X2291150D2*
X2315690D1*
X563707Y612782D2*
X636735D1*
X859655D2*
X877604D1*
X2138219D2*
X2166031D1*
X2296423D2*
X2315690D1*
X563707Y587913D2*
X636735D1*
X2138219D2*
X2171012D1*
X2291442D2*
X2315690D1*
X563707Y563045D2*
X636735D1*
X2133336D2*
X2190055D1*
X2272399D2*
X2315690D1*
X622839Y538176D2*
X636735D1*
X869762D2*
X890348D1*
X1084606D2*
X1146159D1*
X2110094D2*
X2171550D1*
X2290906D2*
X2315690D1*
X844323Y513307D2*
X877751D1*
X1097203D2*
X1177751D1*
X2097203D2*
X2166031D1*
X2296423D2*
X2315690D1*
X801843Y488438D2*
X877311D1*
X1097594D2*
X1177311D1*
X2097594D2*
X2170768D1*
X2291686D2*
X2315690D1*
X776988Y463570D2*
X888786D1*
X1086168D2*
X1188786D1*
X2086168D2*
X2189420D1*
X2273034D2*
X2314811D1*
X760730Y438701D2*
X2289518D1*
X2293919Y1226378D2*
X2292379Y1216657D1*
X2289337Y1207299D1*
X2284870Y1198530D1*
X2279087Y1190570D1*
X2272127Y1183610D1*
X2269213Y1181312D1*
X2275744Y1175643D1*
X2282134Y1168159D1*
X2287277Y1159769D1*
X2291042Y1150677D1*
X2293340Y1141109D1*
X2294112Y1131298D1*
X2293340Y1121487D1*
X2291042Y1111919D1*
X2287277Y1102827D1*
X2282134Y1094437D1*
X2275744Y1086953D1*
X2268260Y1080563D1*
X2259870Y1075420D1*
X2250778Y1071655D1*
X2241210Y1069357D1*
X2231399Y1068585D1*
X2221588Y1069357D1*
X2212020Y1071655D1*
X2202928Y1075420D1*
X2194538Y1080563D1*
X2187054Y1086953D1*
X2180664Y1094437D1*
X2175521Y1102827D1*
X2171756Y1111919D1*
X2169458Y1121487D1*
X2168686Y1131298D1*
X2169458Y1141109D1*
X2171756Y1150677D1*
X2175521Y1159769D1*
X2180664Y1168159D1*
X2187054Y1175643D1*
X2193585Y1181283D1*
X2187054Y1186953D1*
X2180664Y1194437D1*
X2175521Y1202827D1*
X2171756Y1211919D1*
X2169458Y1221487D1*
X2168686Y1231298D1*
X2169458Y1241109D1*
X2171756Y1250677D1*
X2175521Y1259769D1*
X2180664Y1268159D1*
X2187054Y1275643D1*
X2194538Y1282033D1*
X2202928Y1287176D1*
X2212020Y1290941D1*
X2221588Y1293239D1*
X2231399Y1294010D1*
X2241210Y1293239D1*
X2250778Y1290941D1*
X2259870Y1287176D1*
X2268260Y1282033D1*
X2275744Y1275643D1*
X2282134Y1268159D1*
X2287277Y1259769D1*
X2291042Y1250677D1*
X2293340Y1241109D1*
X2294112Y1231298D1*
X2293919Y1226378D1*
X2293744Y507503D2*
X2292205Y497782D1*
X2289163Y488424D1*
X2284696Y479655D1*
X2278912Y471694D1*
X2271953Y464735D1*
X2263992Y458951D1*
X2255223Y454484D1*
X2245865Y451442D1*
X2236144Y449903D1*
X2226304D1*
X2216584Y451442D1*
X2207226Y454484D1*
X2198457Y458951D1*
X2190496Y464735D1*
X2183537Y471694D1*
X2177753Y479655D1*
X2173286Y488424D1*
X2170244Y497782D1*
X2168705Y507503D1*
Y517342D1*
X2170244Y527063D1*
X2173286Y536421D1*
X2177753Y545190D1*
X2183537Y553151D1*
X2190496Y560110D1*
X2193411Y562408D1*
X2186879Y568077D1*
X2180490Y575562D1*
X2175346Y583951D1*
X2171581Y593043D1*
X2169283Y602612D1*
X2168512Y612423D1*
X2169283Y622234D1*
X2171581Y631802D1*
X2175346Y640894D1*
X2180490Y649283D1*
X2186879Y656768D1*
X2194364Y663157D1*
X2202753Y668300D1*
X2211845Y672066D1*
X2221413Y674363D1*
X2231224Y675135D1*
X2241035Y674363D1*
X2250604Y672066D1*
X2259696Y668300D1*
X2268085Y663157D1*
X2275570Y656768D1*
X2281959Y649283D1*
X2287102Y640894D1*
X2290867Y631802D1*
X2293165Y622234D1*
X2293937Y612423D1*
X2293165Y602612D1*
X2290867Y593043D1*
X2287102Y583951D1*
X2281959Y575562D1*
X2275570Y568077D1*
X2269038Y562437D1*
X2275570Y556768D1*
X2281959Y549283D1*
X2287102Y540894D1*
X2290867Y531802D1*
X2293165Y522234D1*
X2293937Y512423D1*
X2293744Y507503D1*
X952157Y873552D2*
X941504Y865871D1*
X928728Y859362D1*
X915093Y854932D1*
X900932Y852689D1*
X886593D1*
X872432Y854932D1*
X858797Y859362D1*
X846021Y865871D1*
X834421Y874299D1*
X824283Y884437D1*
X815856Y896037D1*
X809346Y908812D1*
X804916Y922447D1*
X802673Y936609D1*
Y950947D1*
X804916Y965109D1*
X809346Y978744D1*
X815856Y991520D1*
X824283Y1003119D1*
X834421Y1013257D1*
X846021Y1021685D1*
X858797Y1028194D1*
X872432Y1032625D1*
X886593Y1034867D1*
X900932D1*
X915093Y1032625D1*
X928728Y1028194D1*
X941504Y1021685D1*
X953104Y1013257D1*
X963241Y1003119D1*
X971669Y991520D1*
X978178Y978744D1*
X982609Y965109D1*
X984852Y950947D1*
X984948Y948510D1*
X993718Y949272D1*
X1001423Y948665D1*
X1008936Y946861D1*
X1012239Y945643D1*
X1017302Y952970D1*
X1022076Y957744D1*
X1027538Y961714D1*
X1033554Y964778D1*
X1039975Y966865D1*
X1046644Y967921D1*
X1053395D1*
X1060064Y966865D1*
X1066486Y964778D1*
X1072501Y961714D1*
X1077963Y957744D1*
X1082738Y952970D1*
X1086707Y947508D1*
X1089772Y941492D1*
X1091858Y935071D1*
X1092915Y928402D1*
Y921651D1*
X1091858Y914982D1*
X1089772Y908560D1*
X1086707Y902545D1*
X1082738Y897083D1*
X1077963Y892308D1*
X1072501Y888339D1*
X1066486Y885274D1*
X1060064Y883188D1*
X1053395Y882131D1*
X1046644D1*
X1039988Y883185D1*
X1037598Y877665D1*
X1033560Y871076D1*
X1028542Y865199D1*
X1022665Y860181D1*
X1016076Y856143D1*
X1008936Y853186D1*
X1001423Y851382D1*
X993718Y850776D1*
X986013Y851382D1*
X978500Y853186D1*
X971360Y856143D1*
X964770Y860181D1*
X958894Y865199D1*
X953875Y871076D1*
X952222Y873551D1*
X2166211Y936609D2*
X2163969Y922447D1*
X2159538Y908812D1*
X2153029Y896037D1*
X2144601Y884437D1*
X2134463Y874299D1*
X2122864Y865871D1*
X2110088Y859362D1*
X2096453Y854932D1*
X2082291Y852689D1*
X2067953D1*
X2053791Y854932D1*
X2040156Y859362D1*
X2027381Y865871D1*
X2015781Y874299D1*
X2005643Y884437D1*
X1997215Y896037D1*
X1990706Y908812D1*
X1986276Y922447D1*
X1984033Y936609D1*
Y950947D1*
X1986276Y965109D1*
X1990706Y978744D1*
X1997215Y991520D1*
X2005643Y1003119D1*
X2015781Y1013257D1*
X2027381Y1021685D1*
X2040156Y1028194D1*
X2053791Y1032625D1*
X2067953Y1034867D1*
X2082291D1*
X2096453Y1032625D1*
X2110088Y1028194D1*
X2122864Y1021685D1*
X2134463Y1013257D1*
X2144601Y1003119D1*
X2153029Y991520D1*
X2159538Y978744D1*
X2163969Y965109D1*
X2166211Y950947D1*
Y936609D1*
X875007Y563819D2*
X873467Y554098D1*
X870425Y544740D1*
X865958Y535971D1*
X860175Y528010D1*
X853215Y521051D1*
X845255Y515268D1*
X836486Y510800D1*
X827127Y507758D1*
X817119Y506209D1*
X765525Y454627D1*
X761112Y443827D1*
X757531Y437709D1*
X2283450Y437716D1*
X2295223Y439070D1*
X2302886Y442213D1*
X2309403Y447315D1*
X2314290Y453996D1*
X2317182Y461752D1*
X2318210Y474257D1*
X2318209Y1297438D1*
X2317180Y1309958D1*
X2314289Y1317699D1*
X2309400Y1324381D1*
X2302883Y1329482D1*
X2295223Y1332625D1*
X2283472Y1333974D1*
X2183056Y1333975D1*
X2186861Y1325126D1*
X2188820Y1317892D1*
X2189843Y1310467D1*
X2189787Y1301180D1*
X2188676Y1293768D1*
X2186630Y1286556D1*
X2183684Y1279665D1*
X2179883Y1273205D1*
X2175293Y1267281D1*
X2169984Y1261989D1*
X2164047Y1257416D1*
X2157575Y1253635D1*
X2150675Y1250710D1*
X2143459Y1248685D1*
X2136043Y1247596D1*
X2128550Y1247458D1*
X2121100Y1248277D1*
X2113814Y1250035D1*
X2106812Y1252707D1*
X2100206Y1256249D1*
X2094105Y1260602D1*
X2088608Y1265697D1*
X2083803Y1271449D1*
X2081230Y1275282D1*
X2075916Y1268001D1*
X2069395Y1261480D1*
X2062278Y1256289D1*
X2069545Y1250999D1*
X2076066Y1244478D1*
X2081487Y1237016D1*
X2085675Y1228798D1*
X2088525Y1220026D1*
X2089967Y1210917D1*
Y1201694D1*
X2088525Y1192585D1*
X2085675Y1183814D1*
X2081487Y1175596D1*
X2076066Y1168134D1*
X2069545Y1161613D1*
X2062083Y1156192D1*
X2053865Y1152004D1*
X2045093Y1149153D1*
X2035984Y1147711D1*
X2026761D1*
X2017652Y1149153D1*
X2008881Y1152004D1*
X2000663Y1156192D1*
X1993201Y1161613D1*
X1986680Y1168134D1*
X1981259Y1175596D1*
X1977071Y1183814D1*
X1974220Y1192585D1*
X1972778Y1201694D1*
Y1210917D1*
X1974220Y1220026D1*
X1977071Y1228798D1*
X1981259Y1237016D1*
X1986680Y1244478D1*
X1993201Y1250999D1*
X2000318Y1256190D1*
X1993051Y1261480D1*
X1986530Y1268001D1*
X1981219Y1275298D1*
X1975916Y1268001D1*
X1969395Y1261480D1*
X1961933Y1256059D1*
X1953715Y1251871D1*
X1944944Y1249021D1*
X1935835Y1247579D1*
X1926612D1*
X1917503Y1249021D1*
X1908731Y1251871D1*
X1900513Y1256059D1*
X1893051Y1261480D1*
X1886530Y1268001D1*
X1881219Y1275298D1*
X1875916Y1268001D1*
X1869395Y1261480D1*
X1866974Y1259571D1*
X1866857Y1247118D1*
X1865980Y1241579D1*
X1864247Y1236244D1*
X1861699Y1231247D1*
X1858403Y1226709D1*
X1750432Y1118581D1*
X1654438Y1022744D1*
X1649900Y1019447D1*
X1644903Y1016900D1*
X1639568Y1015167D1*
X1636806Y1014618D1*
X1641306Y1011535D1*
X1646768Y1007566D1*
X1651542Y1002791D1*
X1655512Y997329D1*
X1658576Y991314D1*
X1660663Y984892D1*
X1661719Y978223D1*
Y971472D1*
X1660663Y964803D1*
X1658576Y958382D1*
X1656988Y955003D1*
X1663379Y953446D1*
X1669617Y950862D1*
X1675374Y947335D1*
X1680508Y942950D1*
X1684892Y937816D1*
X1688420Y932059D1*
X1691004Y925821D1*
X1692580Y919256D1*
X1693110Y912525D1*
X1692580Y905794D1*
X1691004Y899228D1*
X1688420Y892991D1*
X1684892Y887234D1*
X1680508Y882100D1*
X1675374Y877715D1*
X1669617Y874188D1*
X1663379Y871604D1*
X1656814Y870028D1*
X1650083Y869497D1*
X1643352Y870028D1*
X1636786Y871604D1*
X1630549Y874188D1*
X1624791Y877715D1*
X1619657Y882100D1*
X1615273Y887234D1*
X1611745Y892991D1*
X1609161Y899228D1*
X1607585Y905794D1*
X1607055Y912525D1*
X1607585Y919256D1*
X1609161Y925821D1*
X1611919Y932370D1*
X1605528Y933926D1*
X1599290Y936510D1*
X1593533Y940038D1*
X1588399Y944423D1*
X1584014Y949556D1*
X1580487Y955314D1*
X1577903Y961551D1*
X1576327Y968117D1*
X1575797Y974848D1*
X1576327Y981579D1*
X1577903Y988144D1*
X1580487Y994382D1*
X1584014Y1000139D1*
X1588399Y1005273D1*
X1593533Y1009657D1*
X1599290Y1013185D1*
X1601436Y1014174D1*
X1483520Y1014180D1*
X1479312Y1008629D1*
X1477226Y1002207D1*
X1474161Y996192D1*
X1470192Y990730D1*
X1465417Y985955D1*
X1459955Y981986D1*
X1453940Y978921D1*
X1447518Y976835D1*
X1440849Y975778D1*
X1434098D1*
X1427429Y976835D1*
X1421008Y978921D1*
X1414992Y981986D1*
X1409530Y985955D1*
X1404756Y990730D1*
X1400786Y996192D1*
X1397722Y1002207D1*
X1395635Y1008629D1*
X1394579Y1015298D1*
Y1022049D1*
X1395635Y1028718D1*
X1397722Y1035139D1*
X1400786Y1041155D1*
X1404756Y1046617D1*
X1409530Y1051391D1*
X1414992Y1055361D1*
X1421008Y1058425D1*
X1429098Y1060844D1*
X1445510Y1077104D1*
X1450049Y1080400D1*
X1455046Y1082947D1*
X1460381Y1084681D1*
X1465920Y1085558D1*
X1616429Y1085668D1*
X1792635Y1261884D1*
X1786530Y1268001D1*
X1781219Y1275298D1*
X1775916Y1268001D1*
X1769395Y1261480D1*
X1761933Y1256059D1*
X1753715Y1251871D1*
X1744944Y1249021D1*
X1735835Y1247579D1*
X1726612D1*
X1717503Y1249021D1*
X1708731Y1251871D1*
X1700513Y1256059D1*
X1693051Y1261480D1*
X1686530Y1268001D1*
X1681219Y1275298D1*
X1675916Y1268001D1*
X1669395Y1261480D1*
X1661933Y1256059D1*
X1653715Y1251871D1*
X1644944Y1249021D1*
X1635835Y1247579D1*
X1626612D1*
X1617503Y1249021D1*
X1608731Y1251871D1*
X1600513Y1256059D1*
X1593051Y1261480D1*
X1586530Y1268001D1*
X1581109Y1275463D1*
X1576921Y1283681D1*
X1574071Y1292453D1*
X1572629Y1301562D1*
Y1310785D1*
X1574071Y1319894D1*
X1576921Y1328665D1*
X1579479Y1333974D1*
X478219Y1333976D1*
X466381Y1332228D1*
X457455Y1328496D1*
X449736Y1322682D1*
X443688Y1315144D1*
X439698Y1306377D1*
X437697Y1295289D1*
X437698Y822344D1*
X522059Y822262D1*
X528646Y821219D1*
X534988Y819159D1*
X540930Y816131D1*
X546325Y812211D1*
X551042Y807495D1*
X554962Y802100D1*
X557990Y796157D1*
X560050Y789815D1*
X561093Y783228D1*
X561224Y692394D1*
X561093Y540339D1*
X560698Y537012D1*
X562571Y536063D1*
X572518Y540184D1*
X582990Y542697D1*
X593723Y543542D1*
X604457Y542697D1*
X614928Y540184D1*
X624875Y536063D1*
X634056Y530437D1*
X639230Y526230D1*
X639228Y799735D1*
X507692Y931297D1*
X500962Y934287D1*
X492045Y939752D1*
X484092Y946545D1*
X477299Y954497D1*
X471835Y963415D1*
X467833Y973077D1*
X465391Y983247D1*
X464571Y993673D1*
X465391Y1004100D1*
X467833Y1014269D1*
X471835Y1023932D1*
X477299Y1032849D1*
X484092Y1040802D1*
X487169Y1043646D1*
X480539Y1050387D1*
X474392Y1058849D1*
X469644Y1068168D1*
X466412Y1078114D1*
X464777Y1088444D1*
Y1098903D1*
X466412Y1109232D1*
X469644Y1119178D1*
X474392Y1128497D1*
X480539Y1136959D1*
X487169Y1143646D1*
X480394Y1150560D1*
X474520Y1158642D1*
X469920Y1167510D1*
X466698Y1176967D1*
X464927Y1186799D1*
X464643Y1196786D1*
X465857Y1206703D1*
X468539Y1216327D1*
X472629Y1225442D1*
X478035Y1233842D1*
X484638Y1241341D1*
X492286Y1247769D1*
X500810Y1252980D1*
X510017Y1256860D1*
X519699Y1259320D1*
X529642Y1260304D1*
X539619Y1259791D1*
X549408Y1257794D1*
X558787Y1254354D1*
X567549Y1249552D1*
X575493Y1243493D1*
X582442Y1236316D1*
X588241Y1228181D1*
X592759Y1219270D1*
X595894Y1209783D1*
X597575Y1199936D1*
X597823Y1191173D1*
X596701Y1181247D1*
X594108Y1171598D1*
X590102Y1162446D1*
X584773Y1153996D1*
X578240Y1146437D1*
X575276Y1143674D1*
X581902Y1136959D1*
X588049Y1128497D1*
X592797Y1119178D1*
X596029Y1109232D1*
X597664Y1098903D1*
Y1088444D1*
X596029Y1078114D1*
X592797Y1068168D1*
X588049Y1058849D1*
X581902Y1050387D1*
X575272Y1043701D1*
X581902Y1036959D1*
X588049Y1028497D1*
X592797Y1019178D1*
X593483Y1017319D1*
X645539Y965258D1*
X649089Y976287D1*
X653978Y985882D1*
X660307Y994593D1*
X667920Y1002206D1*
X676631Y1008535D1*
X686226Y1013424D1*
X696466Y1016751D1*
X707101Y1018436D1*
X717867D1*
X728503Y1016751D1*
X738743Y1013424D1*
X748337Y1008535D1*
X757049Y1002206D1*
X764661Y994593D1*
X770991Y985882D1*
X775879Y976287D1*
X779206Y966047D1*
X780891Y955412D1*
Y944646D1*
X779206Y934010D1*
X775879Y923770D1*
X770991Y914176D1*
X764661Y905465D1*
X757049Y897852D1*
X748337Y891522D1*
X738743Y886634D1*
X727656Y883138D1*
X746163Y864371D1*
X751765Y856660D1*
X756093Y848167D1*
X759038Y839101D1*
X760529Y829688D1*
X760717Y804169D1*
X768142Y813084D1*
X775626Y819474D1*
X784016Y824617D1*
X793108Y828382D1*
X802676Y830680D1*
X812487Y831451D1*
X822298Y830680D1*
X831866Y828382D1*
X840958Y824617D1*
X849348Y819474D1*
X856832Y813084D1*
X863222Y805600D1*
X868365Y797210D1*
X872130Y788118D1*
X874428Y778550D1*
X875199Y768739D1*
X874428Y758928D1*
X872130Y749360D1*
X868365Y740268D1*
X863222Y731878D1*
X856832Y724394D1*
X850301Y718753D1*
X856832Y713084D1*
X863222Y705600D1*
X868365Y697210D1*
X872130Y688118D1*
X874428Y678550D1*
X875199Y668739D1*
X874428Y658928D1*
X872130Y649360D1*
X868365Y640268D1*
X863222Y631878D1*
X856832Y624394D1*
X850301Y618753D1*
X856832Y613084D1*
X863222Y605600D1*
X868365Y597210D1*
X872130Y588118D1*
X874428Y578550D1*
X875199Y568739D1*
X875007Y563819D1*
X2293744Y826253D2*
X2292205Y816533D1*
X2289163Y807174D1*
X2284696Y798405D1*
X2278912Y790445D1*
X2271953Y783486D1*
X2263992Y777702D1*
X2255223Y773235D1*
X2245865Y770193D1*
X2236144Y768653D1*
X2226304D1*
X2216584Y770193D1*
X2207226Y773235D1*
X2198457Y777702D1*
X2190496Y783486D1*
X2183537Y790445D1*
X2177753Y798405D1*
X2173286Y807174D1*
X2170244Y816533D1*
X2168705Y826253D1*
Y836093D1*
X2170244Y845814D1*
X2173286Y855172D1*
X2177753Y863941D1*
X2183537Y871902D1*
X2190496Y878861D1*
X2193411Y881159D1*
X2186879Y886828D1*
X2180490Y894312D1*
X2175346Y902702D1*
X2171581Y911794D1*
X2169283Y921362D1*
X2168512Y931173D1*
X2169283Y940984D1*
X2171581Y950552D1*
X2175346Y959644D1*
X2180490Y968034D1*
X2186879Y975518D1*
X2194364Y981908D1*
X2202753Y987051D1*
X2211845Y990816D1*
X2221413Y993114D1*
X2231224Y993886D1*
X2241035Y993114D1*
X2250604Y990816D1*
X2259696Y987051D1*
X2268085Y981908D1*
X2275570Y975518D1*
X2281959Y968034D1*
X2287102Y959644D1*
X2290867Y950552D1*
X2293165Y940984D1*
X2293937Y931173D1*
X2293165Y921362D1*
X2290867Y911794D1*
X2287102Y902702D1*
X2281959Y894312D1*
X2275570Y886828D1*
X2269038Y881188D1*
X2275570Y875518D1*
X2281959Y868034D1*
X2287102Y859644D1*
X2290867Y850552D1*
X2293165Y840984D1*
X2293937Y831173D1*
X2293744Y826253D1*
X1987470Y630797D2*
X1992781Y638093D1*
X1999302Y644614D1*
X2006764Y650035D1*
X2014982Y654223D1*
X2023753Y657073D1*
X2032862Y658516D1*
X2042085D1*
X2051194Y657073D1*
X2059966Y654223D1*
X2064236Y652247D1*
X2064234Y689144D1*
X2033815Y689180D1*
X2028921Y685081D1*
X2022332Y681043D1*
X2015192Y678087D1*
X2007678Y676282D1*
X1999974Y675676D1*
X1992269Y676282D1*
X1984756Y678087D1*
X1977615Y681043D1*
X1971026Y685081D1*
X1965150Y690100D1*
X1960131Y695976D1*
X1956093Y702566D1*
X1953136Y709706D1*
X1951332Y717219D1*
X1950726Y724924D1*
X1951332Y732629D1*
X1953136Y740142D1*
X1956093Y747282D1*
X1960131Y753871D1*
X1965150Y759748D1*
X1971026Y764766D1*
X1977615Y768804D1*
X1984756Y771761D1*
X1992269Y773566D1*
X1999974Y774172D1*
X2007678Y773566D1*
X2015192Y771761D1*
X2022332Y768804D1*
X2028921Y764766D1*
X2033810Y760660D1*
X2102782Y760558D1*
X2108322Y759681D1*
X2113656Y757947D1*
X2118654Y755400D1*
X2123192Y752104D1*
X2127157Y748138D1*
X2130454Y743600D1*
X2133001Y738602D1*
X2134735Y733268D1*
X2135612Y727728D1*
X2135722Y581088D1*
X2135282Y575496D1*
X2133972Y570042D1*
X2131825Y564861D1*
X2128895Y560077D1*
X2125253Y555812D1*
X2091776Y522413D1*
X2094626Y513642D1*
X2096068Y504533D1*
Y495310D1*
X2094626Y486201D1*
X2091776Y477429D1*
X2087588Y469211D1*
X2082167Y461749D1*
X2075646Y455228D1*
X2068184Y449807D1*
X2059966Y445619D1*
X2051194Y442769D1*
X2042085Y441327D1*
X2032862D1*
X2023753Y442769D1*
X2014982Y445619D1*
X2006764Y449807D1*
X1999302Y455228D1*
X1992781Y461749D1*
X1987470Y469046D1*
X1982167Y461749D1*
X1975646Y455228D1*
X1968184Y449807D1*
X1959966Y445619D1*
X1951194Y442769D1*
X1942085Y441327D1*
X1932862D1*
X1923753Y442769D1*
X1914982Y445619D1*
X1906764Y449807D1*
X1899302Y455228D1*
X1892781Y461749D1*
X1887470Y469046D1*
X1882167Y461749D1*
X1875646Y455228D1*
X1868184Y449807D1*
X1859966Y445619D1*
X1851194Y442769D1*
X1842085Y441327D1*
X1832862D1*
X1823753Y442769D1*
X1814982Y445619D1*
X1806764Y449807D1*
X1799302Y455228D1*
X1792781Y461749D1*
X1787470Y469046D1*
X1782167Y461749D1*
X1775646Y455228D1*
X1768184Y449807D1*
X1759966Y445619D1*
X1751194Y442769D1*
X1742085Y441327D1*
X1732862D1*
X1723753Y442769D1*
X1714982Y445619D1*
X1706764Y449807D1*
X1699302Y455228D1*
X1692781Y461749D1*
X1687470Y469046D1*
X1682167Y461749D1*
X1675646Y455228D1*
X1668184Y449807D1*
X1659966Y445619D1*
X1651194Y442769D1*
X1642085Y441327D1*
X1632862D1*
X1623753Y442769D1*
X1614982Y445619D1*
X1606764Y449807D1*
X1599302Y455228D1*
X1592781Y461749D1*
X1587470Y469046D1*
X1582167Y461749D1*
X1575646Y455228D1*
X1568184Y449807D1*
X1559966Y445619D1*
X1551194Y442769D1*
X1542085Y441327D1*
X1532862D1*
X1523753Y442769D1*
X1514982Y445619D1*
X1506764Y449807D1*
X1499302Y455228D1*
X1492781Y461749D1*
X1487470Y469046D1*
X1482167Y461749D1*
X1475646Y455228D1*
X1468184Y449807D1*
X1459966Y445619D1*
X1451194Y442769D1*
X1442085Y441327D1*
X1432862D1*
X1423753Y442769D1*
X1414982Y445619D1*
X1406764Y449807D1*
X1399302Y455228D1*
X1392781Y461749D1*
X1387470Y469046D1*
X1382167Y461749D1*
X1375646Y455228D1*
X1368184Y449807D1*
X1359966Y445619D1*
X1351194Y442769D1*
X1342085Y441327D1*
X1332862D1*
X1323753Y442769D1*
X1314982Y445619D1*
X1306764Y449807D1*
X1299302Y455228D1*
X1292781Y461749D1*
X1287470Y469046D1*
X1282167Y461749D1*
X1275646Y455228D1*
X1268184Y449807D1*
X1259966Y445619D1*
X1251194Y442769D1*
X1242085Y441327D1*
X1232862D1*
X1223753Y442769D1*
X1214982Y445619D1*
X1206764Y449807D1*
X1199302Y455228D1*
X1192781Y461749D1*
X1187360Y469211D1*
X1183172Y477429D1*
X1180322Y486201D1*
X1178879Y495310D1*
Y504533D1*
X1180322Y513642D1*
X1180669Y514874D1*
X1173730Y516963D1*
X1168732Y519510D1*
X1164194Y522807D1*
X1145181Y541664D1*
X1137474Y541146D1*
X1128280Y541869D1*
X1119311Y544022D1*
X1110790Y547551D1*
X1102927Y552371D1*
X1095913Y558361D1*
X1089924Y565374D1*
X1087470Y569046D1*
X1082167Y561749D1*
X1075646Y555228D1*
X1068349Y549917D1*
X1075646Y544614D1*
X1082167Y538093D1*
X1087588Y530631D1*
X1091776Y522413D1*
X1094626Y513642D1*
X1096068Y504533D1*
Y495310D1*
X1094626Y486201D1*
X1091776Y477429D1*
X1087588Y469211D1*
X1082167Y461749D1*
X1075646Y455228D1*
X1068184Y449807D1*
X1059966Y445619D1*
X1051194Y442769D1*
X1042085Y441327D1*
X1032862D1*
X1023753Y442769D1*
X1014982Y445619D1*
X1006764Y449807D1*
X999302Y455228D1*
X992781Y461749D1*
X987470Y469046D1*
X982167Y461749D1*
X975646Y455228D1*
X968184Y449807D1*
X959966Y445619D1*
X951194Y442769D1*
X942085Y441327D1*
X932862D1*
X923753Y442769D1*
X914982Y445619D1*
X906764Y449807D1*
X899302Y455228D1*
X892781Y461749D1*
X887360Y469211D1*
X883172Y477429D1*
X880322Y486201D1*
X878879Y495310D1*
Y504533D1*
X880322Y513642D1*
X883172Y522413D1*
X887360Y530631D1*
X892781Y538093D1*
X899302Y544614D1*
X906598Y549925D1*
X899302Y555228D1*
X892781Y561749D1*
X887360Y569211D1*
X883172Y577429D1*
X880322Y586201D1*
X878879Y595310D1*
Y604533D1*
X880322Y613642D1*
X883172Y622413D1*
X887360Y630631D1*
X892781Y638093D1*
X899302Y644614D1*
X906764Y650035D1*
X914982Y654223D1*
X923753Y657073D1*
X932862Y658516D1*
X942085D1*
X951194Y657073D1*
X959966Y654223D1*
X968184Y650035D1*
X975646Y644614D1*
X982167Y638093D1*
X987478Y630797D1*
X992781Y638093D1*
X999302Y644614D1*
X1006764Y650035D1*
X1014982Y654223D1*
X1023753Y657073D1*
X1032862Y658516D1*
X1042085D1*
X1051194Y657073D1*
X1059966Y654223D1*
X1068184Y650035D1*
X1075646Y644614D1*
X1082167Y638093D1*
X1087478Y630797D1*
X1092781Y638093D1*
X1099302Y644614D1*
X1106764Y650035D1*
X1108352Y650925D1*
X1101029Y652114D1*
X1093680Y654503D1*
X1086794Y658010D1*
X1080542Y662552D1*
X1075077Y668017D1*
X1070535Y674269D1*
X1067028Y681155D1*
X1064639Y688504D1*
X1063430Y696138D1*
Y703865D1*
X1064639Y711499D1*
X1067028Y718848D1*
X1070535Y725734D1*
X1076196Y733194D1*
X1072774Y739793D1*
X1070688Y746214D1*
X1069631Y752883D1*
Y759634D1*
X1070688Y766303D1*
X1072774Y772724D1*
X1075839Y778740D1*
X1079808Y784202D1*
X1084583Y788976D1*
X1090045Y792946D1*
X1096060Y796010D1*
X1104151Y798429D1*
X1233024Y927150D1*
X1237562Y930446D1*
X1242559Y932993D1*
X1247894Y934726D1*
X1253433Y935604D1*
X1257849Y935714D1*
X1252720Y940207D1*
X1247702Y946084D1*
X1243664Y952673D1*
X1240707Y959814D1*
X1238903Y967327D1*
X1238297Y975031D1*
X1238903Y982736D1*
X1240707Y990249D1*
X1243664Y997390D1*
X1247702Y1003979D1*
X1252720Y1009856D1*
X1258597Y1014874D1*
X1265186Y1018912D1*
X1272327Y1021869D1*
X1279840Y1023673D1*
X1287545Y1024279D1*
X1295249Y1023673D1*
X1302762Y1021869D1*
X1309903Y1018912D1*
X1316492Y1014874D1*
X1322369Y1009856D1*
X1327387Y1003979D1*
X1331425Y997390D1*
X1334382Y990249D1*
X1336186Y982736D1*
X1336793Y975031D1*
X1336186Y967327D1*
X1334382Y959814D1*
X1331425Y952673D1*
X1327387Y946084D1*
X1322369Y940207D1*
X1317168Y935722D1*
X1519762Y935714D1*
X1527235Y939722D1*
X1533656Y941808D1*
X1540325Y942865D1*
X1547076D1*
X1553745Y941808D1*
X1560167Y939722D1*
X1566182Y936657D1*
X1571644Y932688D1*
X1576419Y927913D1*
X1580388Y922451D1*
X1583453Y916436D1*
X1585539Y910014D1*
X1586596Y903345D1*
Y896594D1*
X1585539Y889925D1*
X1583453Y883504D1*
X1580388Y877488D1*
X1576419Y872026D1*
X1571644Y867252D1*
X1566182Y863282D1*
X1560167Y860218D1*
X1553745Y858131D1*
X1547076Y857075D1*
X1540325D1*
X1533656Y858131D1*
X1527235Y860218D1*
X1519803Y864228D1*
X1270996Y864226D1*
X1154765Y747947D1*
X1152278Y739793D1*
X1148854Y733239D1*
X1154517Y725734D1*
X1158025Y718848D1*
X1160413Y711499D1*
X1161622Y703865D1*
Y696138D1*
X1160413Y688504D1*
X1158025Y681155D1*
X1154517Y674269D1*
X1149975Y668017D1*
X1144510Y662552D1*
X1139251Y658673D1*
X1146668Y657974D1*
X1155636Y655820D1*
X1164157Y652291D1*
X1172021Y647471D1*
X1179034Y641482D1*
X1185024Y634468D1*
X1187478Y630797D1*
X1192781Y638093D1*
X1199302Y644614D1*
X1206764Y650035D1*
X1214982Y654223D1*
X1223753Y657073D1*
X1232862Y658516D1*
X1242085D1*
X1251194Y657073D1*
X1259966Y654223D1*
X1268184Y650035D1*
X1275646Y644614D1*
X1282167Y638093D1*
X1287478Y630797D1*
X1292781Y638093D1*
X1299302Y644614D1*
X1306764Y650035D1*
X1314982Y654223D1*
X1323753Y657073D1*
X1332862Y658516D1*
X1342085D1*
X1351194Y657073D1*
X1359966Y654223D1*
X1368184Y650035D1*
X1375646Y644614D1*
X1382167Y638093D1*
X1387478Y630797D1*
X1392781Y638093D1*
X1399302Y644614D1*
X1406764Y650035D1*
X1414982Y654223D1*
X1423753Y657073D1*
X1432862Y658516D1*
X1442085D1*
X1451194Y657073D1*
X1459966Y654223D1*
X1468184Y650035D1*
X1475646Y644614D1*
X1482167Y638093D1*
X1487478Y630797D1*
X1492781Y638093D1*
X1499302Y644614D1*
X1506764Y650035D1*
X1514982Y654223D1*
X1523753Y657073D1*
X1532862Y658516D1*
X1542085D1*
X1551194Y657073D1*
X1559966Y654223D1*
X1568184Y650035D1*
X1575646Y644614D1*
X1582167Y638093D1*
X1587478Y630797D1*
X1592781Y638093D1*
X1599302Y644614D1*
X1606764Y650035D1*
X1614982Y654223D1*
X1623753Y657073D1*
X1632862Y658516D1*
X1642085D1*
X1651194Y657073D1*
X1659966Y654223D1*
X1668184Y650035D1*
X1675646Y644614D1*
X1682167Y638093D1*
X1687478Y630797D1*
X1692781Y638093D1*
X1699302Y644614D1*
X1706764Y650035D1*
X1714982Y654223D1*
X1723753Y657073D1*
X1732862Y658516D1*
X1742085D1*
X1751194Y657073D1*
X1759966Y654223D1*
X1768184Y650035D1*
X1775646Y644614D1*
X1782167Y638093D1*
X1787478Y630797D1*
X1792781Y638093D1*
X1799302Y644614D1*
X1806764Y650035D1*
X1814982Y654223D1*
X1823753Y657073D1*
X1832862Y658516D1*
X1842085D1*
X1851194Y657073D1*
X1859966Y654223D1*
X1868184Y650035D1*
X1875646Y644614D1*
X1882167Y638093D1*
X1887478Y630797D1*
X1892781Y638093D1*
X1899302Y644614D1*
X1906764Y650035D1*
X1914982Y654223D1*
X1923753Y657073D1*
X1932862Y658516D1*
X1942085D1*
X1951194Y657073D1*
X1959966Y654223D1*
X1968184Y650035D1*
X1975646Y644614D1*
X1982167Y638093D1*
X1987478Y630797D1*
X1989949Y1089182D2*
X1988507Y1080073D1*
X1985656Y1071302D1*
X1981469Y1063084D1*
X1976047Y1055622D1*
X1969526Y1049101D1*
X1962064Y1043680D1*
X1953846Y1039492D1*
X1945075Y1036642D1*
X1935966Y1035199D1*
X1926743D1*
X1917634Y1036642D1*
X1908862Y1039492D1*
X1900644Y1043680D1*
X1893182Y1049101D1*
X1886661Y1055622D1*
X1881240Y1063084D1*
X1877052Y1071302D1*
X1874202Y1080073D1*
X1872760Y1089182D1*
Y1098405D1*
X1874202Y1107514D1*
X1877052Y1116286D1*
X1881240Y1124504D1*
X1886661Y1131966D1*
X1893182Y1138487D1*
X1900644Y1143908D1*
X1908862Y1148096D1*
X1917634Y1150946D1*
X1926743Y1152388D1*
X1935966D1*
X1945075Y1150946D1*
X1953846Y1148096D1*
X1962064Y1143908D1*
X1969526Y1138487D1*
X1976047Y1131966D1*
X1981469Y1124504D1*
X1985656Y1116286D1*
X1988507Y1107514D1*
X1989949Y1098405D1*
Y1089182D1*
Y895442D2*
X1988507Y886333D1*
X1985656Y877562D1*
X1981469Y869344D1*
X1976047Y861882D1*
X1969526Y855361D1*
X1962064Y849940D1*
X1954125Y845881D1*
X1959932Y842908D1*
X1965394Y838938D1*
X1970168Y834164D1*
X1974138Y828702D1*
X1977202Y822686D1*
X1979289Y816265D1*
X1980345Y809596D1*
Y802845D1*
X1979289Y796176D1*
X1977202Y789755D1*
X1974138Y783739D1*
X1970168Y778277D1*
X1965394Y773503D1*
X1959932Y769533D1*
X1953916Y766468D1*
X1947495Y764382D1*
X1940825Y763325D1*
X1934075D1*
X1927406Y764382D1*
X1920984Y766468D1*
X1914969Y769533D1*
X1909507Y773503D1*
X1904732Y778277D1*
X1900762Y783739D1*
X1897698Y789755D1*
X1895612Y796176D1*
X1894555Y802845D1*
Y809596D1*
X1895612Y816265D1*
X1897698Y822686D1*
X1900762Y828702D1*
X1904732Y834164D1*
X1909507Y838938D1*
X1915808Y843378D1*
X1908862Y845752D1*
X1900644Y849940D1*
X1893182Y855361D1*
X1886661Y861882D1*
X1881240Y869344D1*
X1880298Y871026D1*
X1879290Y864926D1*
X1877203Y858505D1*
X1874139Y852489D1*
X1870169Y847028D1*
X1865395Y842253D1*
X1859933Y838283D1*
X1853917Y835219D1*
X1847496Y833132D1*
X1840827Y832076D1*
X1834076D1*
X1827407Y833132D1*
X1820986Y835219D1*
X1814970Y838283D1*
X1809508Y842253D1*
X1804734Y847028D1*
X1800764Y852489D1*
X1797699Y858505D1*
X1795613Y864926D1*
X1794556Y871596D1*
Y878346D1*
X1795613Y885016D1*
X1797699Y891437D1*
X1800764Y897453D1*
X1804734Y902915D1*
X1809508Y907689D1*
X1814970Y911659D1*
X1820986Y914723D1*
X1823995Y915833D1*
X1819678Y919604D1*
X1815294Y924737D1*
X1811766Y930495D1*
X1809182Y936732D1*
X1807606Y943298D1*
X1807076Y950029D1*
X1807606Y956760D1*
X1809182Y963325D1*
X1811766Y969563D1*
X1815294Y975320D1*
X1819678Y980454D1*
X1824812Y984839D1*
X1830570Y988366D1*
X1836807Y990950D1*
X1843373Y992526D1*
X1850104Y993056D1*
X1856835Y992526D1*
X1863400Y990950D1*
X1869638Y988366D1*
X1875395Y984839D1*
X1880529Y980454D1*
X1884913Y975320D1*
X1888441Y969563D1*
X1891025Y963325D1*
X1892601Y956760D1*
X1893131Y950029D1*
X1892727Y944360D1*
X1900644Y950168D1*
X1908862Y954356D1*
X1917634Y957206D1*
X1926743Y958648D1*
X1935966D1*
X1945075Y957206D1*
X1953846Y954356D1*
X1962064Y950168D1*
X1969526Y944747D1*
X1976047Y938226D1*
X1981469Y930764D1*
X1985656Y922546D1*
X1988507Y913774D1*
X1989949Y904665D1*
Y895442D1*
X937480Y1094049D2*
X932169Y1086752D1*
X925648Y1080231D1*
X918186Y1074810D1*
X909969Y1070622D1*
X901197Y1067772D1*
X892088Y1066329D1*
X882865D1*
X873756Y1067772D1*
X864984Y1070622D1*
X856766Y1074810D1*
X849304Y1080231D1*
X842783Y1086752D1*
X837362Y1094214D1*
X833175Y1102432D1*
X830324Y1111203D1*
X828882Y1120312D1*
Y1129535D1*
X830324Y1138644D1*
X833175Y1147416D1*
X837362Y1155634D1*
X842783Y1163096D1*
X849304Y1169617D1*
X856601Y1174928D1*
X849304Y1180231D1*
X842783Y1186752D1*
X837362Y1194214D1*
X833175Y1202432D1*
X830324Y1211203D1*
X828882Y1220312D1*
Y1229535D1*
X830324Y1238644D1*
X833175Y1247416D1*
X837362Y1255634D1*
X842783Y1263096D1*
X849304Y1269617D1*
X856766Y1275038D1*
X864984Y1279226D1*
X873756Y1282076D1*
X882865Y1283518D1*
X892088D1*
X901197Y1282076D1*
X909969Y1279226D1*
X918186Y1275038D1*
X925648Y1269617D1*
X932169Y1263096D1*
X937480Y1255799D1*
X942783Y1263096D1*
X949304Y1269617D1*
X956766Y1275038D1*
X964984Y1279226D1*
X973756Y1282076D1*
X982865Y1283518D1*
X992088D1*
X1001197Y1282076D1*
X1009969Y1279226D1*
X1018186Y1275038D1*
X1025648Y1269617D1*
X1032169Y1263096D1*
X1037480Y1255799D1*
X1042783Y1263096D1*
X1049304Y1269617D1*
X1056766Y1275038D1*
X1064984Y1279226D1*
X1073756Y1282076D1*
X1082865Y1283518D1*
X1092088D1*
X1101197Y1282076D1*
X1109969Y1279226D1*
X1118186Y1275038D1*
X1125648Y1269617D1*
X1132169Y1263096D1*
X1137591Y1255634D1*
X1141778Y1247416D1*
X1144629Y1238644D1*
X1146071Y1229535D1*
Y1220312D1*
X1144629Y1211203D1*
X1141778Y1202432D1*
X1137591Y1194214D1*
X1132169Y1186752D1*
X1125648Y1180231D1*
X1118352Y1174920D1*
X1124867Y1170273D1*
X1130335Y1165146D1*
X1135104Y1159365D1*
X1139100Y1153024D1*
X1142256Y1146226D1*
X1144521Y1139081D1*
X1145860Y1131706D1*
X1146198Y1122425D1*
X1145403Y1114972D1*
X1143665Y1107681D1*
X1141014Y1100671D1*
X1137493Y1094055D1*
X1133159Y1087941D1*
X1128080Y1082428D1*
X1122343Y1077606D1*
X1116037Y1073554D1*
X1109268Y1070337D1*
X1102144Y1068008D1*
X1094782Y1066604D1*
X1087301Y1066148D1*
X1079823Y1066648D1*
X1072469Y1068097D1*
X1065360Y1070468D1*
X1058609Y1073726D1*
X1052328Y1077815D1*
X1046619Y1082672D1*
X1041575Y1088214D1*
X1037482Y1094033D1*
X1032169Y1086752D1*
X1025648Y1080231D1*
X1018186Y1074810D1*
X1009969Y1070622D1*
X1001197Y1067772D1*
X992088Y1066329D1*
X982865D1*
X973756Y1067772D1*
X964984Y1070622D1*
X956766Y1074810D1*
X949304Y1080231D1*
X942783Y1086752D1*
X937472Y1094049D1*
X1805345Y1009096D2*
X1804289Y1002426D1*
X1802202Y996005D1*
X1799138Y989989D1*
X1795168Y984528D1*
X1790394Y979753D1*
X1784932Y975783D1*
X1778916Y972719D1*
X1772495Y970632D1*
X1765825Y969576D1*
X1759075D1*
X1752406Y970632D1*
X1745984Y972719D1*
X1739969Y975783D1*
X1734507Y979753D1*
X1729732Y984528D1*
X1725762Y989989D1*
X1722698Y996005D1*
X1720612Y1002426D1*
X1719555Y1009096D1*
Y1015846D1*
X1720612Y1022516D1*
X1722698Y1028937D1*
X1725762Y1034953D1*
X1729732Y1040415D1*
X1734507Y1045189D1*
X1739969Y1049159D1*
X1745984Y1052223D1*
X1752406Y1054310D1*
X1759075Y1055366D1*
X1765825D1*
X1772495Y1054310D1*
X1778916Y1052223D1*
X1784932Y1049159D1*
X1790394Y1045189D1*
X1795168Y1040415D1*
X1799138Y1034953D1*
X1802202Y1028937D1*
X1804289Y1022516D1*
X1805345Y1015846D1*
Y1009096D1*
X1566932Y745719D2*
X1564984Y739793D1*
X1561920Y733777D1*
X1557950Y728315D1*
X1553176Y723541D1*
X1547714Y719571D1*
X1541698Y716507D1*
X1535277Y714420D1*
X1528608Y713363D1*
X1521857D1*
X1515188Y714420D1*
X1508766Y716507D1*
X1502751Y719571D1*
X1497289Y723541D1*
X1492514Y728315D1*
X1488545Y733777D1*
X1485480Y739793D1*
X1483394Y746214D1*
X1482337Y752883D1*
Y759634D1*
X1483394Y766303D1*
X1485480Y772724D1*
X1488545Y778740D1*
X1492514Y784202D1*
X1497289Y788976D1*
X1502751Y792946D1*
X1508766Y796010D1*
X1515022Y798051D1*
X1516976Y803978D1*
X1520041Y809993D1*
X1524010Y815455D1*
X1528785Y820230D1*
X1534247Y824199D1*
X1540262Y827264D1*
X1546684Y829350D1*
X1553353Y830407D1*
X1560104D1*
X1566773Y829350D1*
X1573194Y827264D1*
X1579210Y824199D1*
X1584672Y820230D1*
X1589446Y815455D1*
X1593416Y809993D1*
X1596480Y803978D1*
X1598567Y797556D1*
X1599623Y790887D1*
Y784136D1*
X1598567Y777467D1*
X1596480Y771046D1*
X1593416Y765030D1*
X1589446Y759568D1*
X1584672Y754794D1*
X1579210Y750824D1*
X1573194Y747760D1*
X1566938Y745719D1*
X1493714Y1183265D2*
X1487531Y1177747D1*
X1481774Y1174219D1*
X1475537Y1171635D1*
X1468971Y1170059D1*
X1462240Y1169529D1*
X1455509Y1170059D1*
X1448944Y1171635D1*
X1442706Y1174219D1*
X1436949Y1177747D1*
X1431815Y1182131D1*
X1427430Y1187265D1*
X1423903Y1193022D1*
X1421319Y1199260D1*
X1419743Y1205825D1*
X1419213Y1212556D1*
X1419743Y1219287D1*
X1421319Y1225853D1*
X1423903Y1232091D1*
X1427430Y1237848D1*
X1431815Y1242982D1*
X1436949Y1247366D1*
X1442706Y1250894D1*
X1448944Y1253478D1*
X1455509Y1255054D1*
X1458064Y1255357D1*
X1463311Y1261734D1*
X1468445Y1266118D1*
X1474202Y1269646D1*
X1480440Y1272230D1*
X1487005Y1273806D1*
X1493736Y1274336D1*
X1500467Y1273806D1*
X1507033Y1272230D1*
X1513270Y1269646D1*
X1519028Y1266118D1*
X1524161Y1261734D1*
X1529360Y1255382D1*
X1535277Y1254395D1*
X1541698Y1252308D1*
X1547714Y1249244D1*
X1553176Y1245274D1*
X1556760Y1241790D1*
X1562933Y1247234D1*
X1568690Y1250761D1*
X1574928Y1253345D1*
X1581493Y1254921D1*
X1588224Y1255451D1*
X1594955Y1254921D1*
X1601521Y1253345D1*
X1607759Y1250761D1*
X1613516Y1247234D1*
X1618650Y1242849D1*
X1623034Y1237715D1*
X1626562Y1231958D1*
X1629146Y1225720D1*
X1630722Y1219155D1*
X1631252Y1212424D1*
X1630722Y1205693D1*
X1629146Y1199127D1*
X1626562Y1192890D1*
X1623034Y1187132D1*
X1618650Y1181999D1*
X1613516Y1177614D1*
X1607759Y1174087D1*
X1601521Y1171503D1*
X1594955Y1169926D1*
X1588224Y1169396D1*
X1581493Y1169926D1*
X1574928Y1171503D1*
X1568690Y1174087D1*
X1562933Y1177614D1*
X1556697Y1183190D1*
X1550524Y1177747D1*
X1544766Y1174219D1*
X1538529Y1171635D1*
X1531963Y1170059D1*
X1525232Y1169529D1*
X1518501Y1170059D1*
X1511936Y1171635D1*
X1505698Y1174219D1*
X1499941Y1177747D1*
X1493759Y1183265D1*
X1487531Y1177747D1*
X1481774Y1174219D1*
X1475537Y1171635D1*
X1468971Y1170059D1*
X1462240Y1169529D1*
X1455509Y1170059D1*
X1448944Y1171635D1*
X1442706Y1174219D1*
X1436949Y1177747D1*
X1431815Y1182131D1*
X1427430Y1187265D1*
X1423903Y1193022D1*
X1421319Y1199260D1*
X1419743Y1205825D1*
X1419213Y1212556D1*
X1419743Y1219287D1*
X1421319Y1225853D1*
X1423903Y1232091D1*
X1427430Y1237848D1*
X1431815Y1242982D1*
X1436949Y1247366D1*
X1442706Y1250894D1*
X1448944Y1253478D1*
X1455509Y1255054D1*
X1458064Y1255357D1*
X799084Y1277450D2*
X797875Y1269816D1*
X795487Y1262467D1*
X791979Y1255581D1*
X787437Y1249329D1*
X781972Y1243865D1*
X775720Y1239323D1*
X768835Y1235815D1*
X761486Y1233426D1*
X753852Y1232218D1*
X746125D1*
X738491Y1233426D1*
X731142Y1235815D1*
X724256Y1239323D1*
X718004Y1243865D1*
X712539Y1249329D1*
X707997Y1255581D1*
X704490Y1262467D1*
X702101Y1269816D1*
X700892Y1277450D1*
Y1285177D1*
X702101Y1292811D1*
X704490Y1300160D1*
X707997Y1307046D1*
X712539Y1313298D1*
X718004Y1318762D1*
X724256Y1323304D1*
X731142Y1326812D1*
X738491Y1329201D1*
X746125Y1330409D1*
X753852D1*
X761486Y1329201D1*
X768835Y1326812D1*
X775720Y1323304D1*
X781972Y1318762D1*
X787437Y1313298D1*
X791979Y1307046D1*
X795487Y1300160D1*
X797875Y1292811D1*
X799084Y1285177D1*
Y1277450D1*
X2131224Y1306173D2*
D14*
X2172751Y1264647D1*
X2131224Y1306173D2*
X2089698Y1264647D1*
X484126Y1240768D2*
X578315Y1146579D1*
Y1240768D2*
X484126Y1146579D1*
X1087476Y1124924D2*
X1129003Y1083398D1*
Y1166450D2*
X1045950Y1083398D1*
D28*
X2231399Y1231298D3*
Y1131298D3*
X2231224Y512423D3*
Y612423D3*
X812487Y568739D3*
Y668739D3*
Y768739D3*
D32*
X593723Y474924D3*
X699972Y474979D3*
D16*
X1631223Y1306173D3*
X1731223D3*
X1831223D3*
X1931223D3*
X2031223D3*
X2131224D3*
D32*
X712484Y950029D3*
D16*
X2031373Y1206306D3*
D28*
X2231224Y831173D3*
Y931173D3*
D29*
X531220Y993673D3*
Y1093673D3*
Y1193673D3*
D16*
X2037474Y599921D3*
Y499921D3*
X1937474Y599921D3*
Y499921D3*
X1837474Y599921D3*
Y499921D3*
X1737474Y599921D3*
Y499921D3*
X1637474Y599921D3*
Y499921D3*
X1537474Y599921D3*
Y499921D3*
X1437474Y599921D3*
Y499921D3*
X1337474Y599921D3*
Y499921D3*
X1237474Y599921D3*
Y499921D3*
X1137474Y599921D3*
Y499921D3*
X1037474Y599921D3*
Y499921D3*
X937474Y599921D3*
Y499921D3*
X1931354Y1093794D3*
Y900054D3*
X887476Y1124924D3*
X987476D3*
X1087476D3*
Y1224924D3*
X987476D3*
X887476D3*
M02*
