G04 DipTrace 3.1.0.0*
G04 Inner2[+5v].gbr*
%MOIN*%
G04 #@! TF.FileFunction,Copper,L3,Inr*
G04 #@! TF.Part,Single*
%ADD30C,0.066929*%
%ADD31C,0.074803*%
%ADD32C,0.059055*%
%ADD35C,0.07874*%
%ADD38C,0.082677*%
G04 #@! TA.AperFunction,CopperBalancing*
%ADD14C,0.012992*%
G04 #@! TA.AperFunction,Conductor*
%ADD18C,0.062992*%
G04 #@! TA.AperFunction,CopperBalancing*
%ADD21C,0.025*%
G04 #@! TA.AperFunction,ViaPad*
%ADD54C,0.027559*%
%FSLAX26Y26*%
G04*
G70*
G90*
G75*
G01*
G04 Inner2_Plane*
%LPD*%
X1461643Y650088D2*
D14*
Y637587D1*
X1042849Y287550D2*
X1011596D1*
X1261621Y375059D2*
X1264747Y378185D1*
X1617909Y393811D2*
Y412563D1*
X899084Y668840D2*
X830327D1*
X874081Y712594D1*
X311512Y81278D2*
D18*
X405272Y175038D1*
X424026D1*
X149010Y581220D2*
X311512Y418719D1*
Y81278D1*
X1611513Y331223D2*
D14*
X1636743D1*
X1705419Y262547D1*
Y181289D1*
X1674165Y150035D1*
X798948D1*
X749013Y199970D1*
X1442762Y906222D2*
Y862482D1*
X1224118Y643837D1*
X1049100D1*
X1042849Y637587D1*
X1105276Y581251D2*
X1142860Y618835D1*
X1242870D1*
X1530257Y906222D1*
X1542762D1*
X1142860Y906365D2*
X1180364D1*
X1292875Y793853D1*
Y750098D1*
X1211617Y668840D1*
X1036598D1*
X1011596Y643837D1*
Y625085D1*
X1042849Y593832D1*
X1074102D1*
D54*
X1461643Y650088D3*
X1042849Y287550D3*
X1261621Y375059D3*
X1617909Y393811D3*
X899084Y668840D3*
X605257Y506323D3*
X899084Y581331D3*
X1373990Y618770D3*
X1461643Y556328D3*
X724066Y306300D3*
X1399136Y393812D3*
X605303Y806354D3*
X992844Y775101D3*
X1136772Y362558D3*
X1224118Y581331D3*
X1073780Y825106D3*
X1361627Y387555D3*
X411533Y518824D3*
X1186614Y856360D3*
X1255371Y518824D3*
X1142860Y481320D3*
X717815Y362558D3*
X1105276Y837608D3*
X1136772Y825106D3*
X1611513Y331223D3*
X1524150Y331304D3*
X1199764Y825106D3*
X1042849Y637587D3*
X661559Y531325D3*
X1448991Y481270D3*
X561549Y681341D3*
X1105276Y581251D3*
X1074102Y593832D3*
X874081Y431315D3*
X1167862Y375059D3*
X49743Y915407D2*
D21*
X207878D1*
X340173D2*
X851677D1*
X983972D2*
X1087468D1*
X1798132D2*
X1921061D1*
X46520Y890538D2*
X206755D1*
X341296D2*
X850554D1*
X985095D2*
X1089079D1*
X1796569D2*
X1836491D1*
X1886853D2*
X1921989D1*
X46520Y865669D2*
X215837D1*
X332214D2*
X859685D1*
X976013D2*
X1077311D1*
X1580407D2*
X1605144D1*
X1680407D2*
X1705144D1*
X1780407D2*
X1808903D1*
X46520Y840800D2*
X131120D1*
X166882D2*
X243815D1*
X304235D2*
X586979D1*
X623620D2*
X887614D1*
X948034D2*
X1036784D1*
X1510632D2*
X1599284D1*
X1686560D2*
X1801677D1*
X46520Y815932D2*
X95720D1*
X202331D2*
X566130D1*
X644470D2*
X1034489D1*
X1485778D2*
X1587614D1*
X1698229D2*
X1805827D1*
X46520Y791063D2*
X85759D1*
X212243D2*
X568132D1*
X642468D2*
X955974D1*
X1029724D2*
X1054606D1*
X1092956D2*
X1117595D1*
X1155944D2*
X1180583D1*
X1218933D2*
X1249870D1*
X1460876D2*
X1588981D1*
X1696862D2*
X1825261D1*
X1898132D2*
X1921989D1*
X46520Y766194D2*
X86833D1*
X211169D2*
X953483D1*
X1032214D2*
X1259782D1*
X1436022D2*
X1604851D1*
X1680993D2*
X1809196D1*
X46520Y741325D2*
X99675D1*
X198376D2*
X973112D1*
X1012536D2*
X1238298D1*
X1411169D2*
X1518571D1*
X1592224D2*
X1801726D1*
X46520Y716457D2*
X96061D1*
X201940D2*
X544743D1*
X578356D2*
X1213444D1*
X1386267D2*
X1501774D1*
X1609020D2*
X1805632D1*
X46520Y691588D2*
X85856D1*
X212145D2*
X522526D1*
X600524D2*
X1013591D1*
X1361413D2*
X1499919D1*
X1610876D2*
X1824528D1*
X1898815D2*
X1921989D1*
X46520Y666719D2*
X86735D1*
X211315D2*
X524089D1*
X599011D2*
X988688D1*
X1336560D2*
X1510856D1*
X1599890D2*
X1921989D1*
X46520Y641850D2*
X99235D1*
X198815D2*
X978483D1*
X1311657D2*
X1341423D1*
X1406579D2*
X1921989D1*
X46520Y616982D2*
X96452D1*
X201599D2*
X440593D1*
X570056D2*
X883708D1*
X914489D2*
X979558D1*
X1286804D2*
X1333610D1*
X1414343D2*
X1621940D1*
X1751403D2*
X1921989D1*
X46520Y592113D2*
X85954D1*
X219274D2*
X309392D1*
X351159D2*
X421696D1*
X588952D2*
X860222D1*
X937927D2*
X998796D1*
X1262976D2*
X1344548D1*
X1403454D2*
X1446647D1*
X1476647D2*
X1603044D1*
X1770300D2*
X1921989D1*
X46520Y567244D2*
X86589D1*
X244128D2*
X275407D1*
X385144D2*
X413054D1*
X597546D2*
X646940D1*
X676159D2*
X861394D1*
X936755D2*
X1025163D1*
X1143005D2*
X1186442D1*
X1261804D2*
X1422819D1*
X1500427D2*
X1594401D1*
X1778894D2*
X1819890D1*
X1903112D2*
X1921989D1*
X46520Y542375D2*
X98796D1*
X700329D2*
X1223161D1*
X1287585D2*
X1423894D1*
X1499401D2*
X1513087D1*
X1780212D2*
X1804118D1*
X46520Y517507D2*
X131560D1*
X699353D2*
X1129069D1*
X1156610D2*
X1215007D1*
X1295739D2*
X1435368D1*
X1462634D2*
X1500407D1*
X1774548D2*
X1801921D1*
X46520Y492638D2*
X156462D1*
X643103D2*
X1104167D1*
X1181530D2*
X1225456D1*
X1285290D2*
X1410319D1*
X1487634D2*
X1501034D1*
X1760241D2*
X1811345D1*
X46520Y467769D2*
X181315D1*
X343591D2*
X463151D1*
X547497D2*
X1104948D1*
X1180749D2*
X1411052D1*
X1486901D2*
X1515593D1*
X1595202D2*
X1644499D1*
X1728845D2*
X1820476D1*
X1902575D2*
X1921989D1*
X46520Y442900D2*
X206169D1*
X364099D2*
X1804265D1*
X179626Y418031D2*
X231071D1*
X470544D2*
X1336589D1*
X1430798D2*
X1801823D1*
X193395Y393163D2*
X253386D1*
X485339D2*
X692936D1*
X742663D2*
X1111882D1*
X1203649D2*
X1321647D1*
X1497497D2*
X1811003D1*
X193981Y368294D2*
X253386D1*
X487683D2*
X677849D1*
X757800D2*
X1096794D1*
X1207653D2*
X1253288D1*
X1269974D2*
X1326481D1*
X1534948D2*
X1601091D1*
X1621960D2*
X1848796D1*
X1874255D2*
X1921989D1*
X193981Y343425D2*
X253386D1*
X479333D2*
X682585D1*
X753063D2*
X1101530D1*
X1191247D2*
X1219548D1*
X1303698D2*
X1421208D1*
X1670349D2*
X1921989D1*
X193981Y318556D2*
X253386D1*
X470007D2*
X685710D1*
X762438D2*
X1215983D1*
X1307263D2*
X1431169D1*
X1695202D2*
X1921989D1*
X193981Y293688D2*
X253386D1*
X485144D2*
X685808D1*
X762292D2*
X1228776D1*
X1294470D2*
X1416374D1*
X1506921D2*
X1603679D1*
X1720056D2*
X1921989D1*
X193981Y268819D2*
X253386D1*
X487731D2*
X715886D1*
X732229D2*
X1418620D1*
X1504626D2*
X1653337D1*
X1737878D2*
X1830583D1*
X1892419D2*
X1921989D1*
X193981Y243950D2*
X253386D1*
X479626D2*
X515788D1*
X582263D2*
X615788D1*
X682263D2*
X715788D1*
X782263D2*
X815788D1*
X882263D2*
X915788D1*
X982263D2*
X1015788D1*
X1082263D2*
X1115788D1*
X1182263D2*
X1215788D1*
X1282263D2*
X1315788D1*
X1382263D2*
X1415788D1*
X1482263D2*
X1515788D1*
X1582263D2*
X1615788D1*
X1738513D2*
X1807243D1*
X193981Y219081D2*
X253386D1*
X469519D2*
X496354D1*
X1738513D2*
X1801433D1*
X193981Y194213D2*
X253386D1*
X1738513D2*
X1806901D1*
X193981Y169344D2*
X253386D1*
X487780D2*
X502463D1*
X1736120D2*
X1829362D1*
X1893640D2*
X1921989D1*
X213363Y144475D2*
X253386D1*
X479919D2*
X516520D1*
X681481D2*
X758708D1*
X1714392D2*
X1807487D1*
X453259Y119606D2*
X496599D1*
X701452D2*
X793083D1*
X1701452D2*
X1801433D1*
X406140Y94737D2*
X493132D1*
X704919D2*
X793132D1*
X1704919D2*
X1806657D1*
X381237Y69869D2*
X502116D1*
X695935D2*
X802116D1*
X1695935D2*
X1828532D1*
X1894519D2*
X1921110D1*
X366149Y45000D2*
X1895817D1*
X1919107Y833078D2*
X1917693Y824152D1*
X1914901Y815557D1*
X1910798Y807504D1*
X1905485Y800192D1*
X1899095Y793802D1*
X1891783Y788490D1*
X1890227Y787618D1*
X1895543Y784192D1*
X1902416Y778323D1*
X1908285Y771450D1*
X1913007Y763744D1*
X1916466Y755395D1*
X1918576Y746607D1*
X1919285Y737597D1*
X1918576Y728587D1*
X1916466Y719799D1*
X1913007Y711450D1*
X1908285Y703744D1*
X1902416Y696872D1*
X1895543Y691002D1*
X1887838Y686280D1*
X1879488Y682821D1*
X1870700Y680712D1*
X1861690Y680003D1*
X1852681Y680712D1*
X1843893Y682821D1*
X1835543Y686280D1*
X1827837Y691002D1*
X1820965Y696872D1*
X1815095Y703744D1*
X1810373Y711450D1*
X1806915Y719799D1*
X1804805Y728587D1*
X1804096Y737597D1*
X1804805Y746607D1*
X1806915Y755395D1*
X1810373Y763744D1*
X1815095Y771450D1*
X1820965Y778323D1*
X1827837Y784192D1*
X1833154Y787576D1*
X1827837Y791002D1*
X1820965Y796872D1*
X1815095Y803744D1*
X1810373Y811450D1*
X1806915Y819799D1*
X1804805Y828587D1*
X1804096Y837597D1*
X1804805Y846607D1*
X1806915Y855395D1*
X1810373Y863744D1*
X1815095Y871450D1*
X1820965Y878323D1*
X1827837Y884192D1*
X1835543Y888914D1*
X1843893Y892373D1*
X1852681Y894482D1*
X1861690Y895192D1*
X1870700Y894482D1*
X1879488Y892373D1*
X1887838Y888914D1*
X1895543Y884192D1*
X1902416Y878323D1*
X1908285Y871450D1*
X1913007Y863744D1*
X1916466Y855395D1*
X1918576Y846607D1*
X1919285Y837597D1*
X1919107Y833078D1*
X1918933Y214203D2*
X1917519Y205277D1*
X1914726Y196681D1*
X1910623Y188629D1*
X1905311Y181317D1*
X1898920Y174927D1*
X1891609Y169614D1*
X1890052Y168743D1*
X1895369Y165317D1*
X1902241Y159447D1*
X1908111Y152575D1*
X1912833Y144869D1*
X1916291Y136519D1*
X1918401Y127731D1*
X1919110Y118722D1*
X1918401Y109712D1*
X1916291Y100924D1*
X1912833Y92574D1*
X1908111Y84869D1*
X1902241Y77996D1*
X1895369Y72127D1*
X1887663Y67405D1*
X1879313Y63946D1*
X1870526Y61836D1*
X1861516Y61127D1*
X1852506Y61836D1*
X1843718Y63946D1*
X1835368Y67405D1*
X1827663Y72127D1*
X1820790Y77996D1*
X1814921Y84869D1*
X1810199Y92574D1*
X1806740Y100924D1*
X1804630Y109712D1*
X1803921Y118722D1*
X1804630Y127731D1*
X1806740Y136519D1*
X1810199Y144869D1*
X1814921Y152575D1*
X1820790Y159447D1*
X1827663Y165317D1*
X1832979Y168701D1*
X1827663Y172127D1*
X1820790Y177996D1*
X1814921Y184869D1*
X1810199Y192574D1*
X1806740Y200924D1*
X1804630Y209712D1*
X1803921Y218722D1*
X1804630Y227731D1*
X1806740Y236519D1*
X1810199Y244869D1*
X1814921Y252575D1*
X1820790Y259447D1*
X1827663Y265317D1*
X1835368Y270039D1*
X1843718Y273497D1*
X1852506Y275607D1*
X1861516Y276316D1*
X1870526Y275607D1*
X1879313Y273497D1*
X1887663Y270039D1*
X1895369Y265317D1*
X1902241Y259447D1*
X1908111Y252575D1*
X1912833Y244869D1*
X1916291Y236519D1*
X1918401Y227731D1*
X1919110Y218722D1*
X1918933Y214203D1*
X572137Y487876D2*
X564643Y480598D1*
X553043Y472170D1*
X540268Y465661D1*
X526632Y461231D1*
X512471Y458988D1*
X498133D1*
X483972Y461231D1*
X470336Y465661D1*
X457560Y472170D1*
X445961Y480598D1*
X436336Y490181D1*
X431340Y486501D1*
X426040Y483800D1*
X420383Y481962D1*
X414507Y481032D1*
X408558D1*
X402683Y481962D1*
X397025Y483800D1*
X391725Y486501D1*
X386913Y489998D1*
X382224Y494816D1*
X375176Y486424D1*
X367599Y479953D1*
X359103Y474746D1*
X349897Y470933D1*
X340265Y468619D1*
X353810Y454845D1*
X358941Y447784D1*
X362904Y440006D1*
X365601Y431705D1*
X366966Y423083D1*
X367179Y398585D1*
X371562Y407188D1*
X377237Y415000D1*
X384065Y421827D1*
X391876Y427502D1*
X400479Y431886D1*
X409662Y434869D1*
X419199Y436380D1*
X428854D1*
X438390Y434869D1*
X447573Y431886D1*
X456176Y427502D1*
X463988Y421827D1*
X470815Y415000D1*
X476490Y407188D1*
X480874Y398585D1*
X483858Y389402D1*
X485368Y379866D1*
Y370210D1*
X483858Y360674D1*
X480874Y351491D1*
X476490Y342888D1*
X470815Y335076D1*
X463988Y328249D1*
X459864Y325038D1*
X467536Y318547D1*
X473806Y311205D1*
X478851Y302973D1*
X482546Y294052D1*
X484800Y284664D1*
X485558Y275038D1*
X484800Y265412D1*
X482546Y256024D1*
X478851Y247103D1*
X473806Y238871D1*
X467536Y231529D1*
X459864Y225038D1*
X467536Y218547D1*
X473806Y211205D1*
X478851Y202973D1*
X482546Y194052D1*
X484800Y184664D1*
X485558Y175038D1*
X484800Y165412D1*
X482546Y156024D1*
X478851Y147103D1*
X473806Y138871D1*
X467536Y131529D1*
X460194Y125258D1*
X451961Y120213D1*
X443041Y116518D1*
X433652Y114264D1*
X424026Y113507D1*
X422461Y113568D1*
X372479Y63578D1*
X370178Y56978D1*
X365654Y48100D1*
X362917Y44002D1*
X1891887Y44260D1*
X1902096Y45604D1*
X1909669Y48892D1*
X1916065Y54112D1*
X1920804Y60873D1*
X1923581Y69276D1*
X1924522Y80718D1*
X1924307Y906167D1*
X1923264Y916821D1*
X1920223Y924497D1*
X1915214Y931058D1*
X1908611Y936015D1*
X1900405Y939051D1*
X1889639Y940288D1*
X1784278Y940274D1*
X1789703Y932219D1*
X1792867Y925426D1*
X1795054Y918258D1*
X1796221Y910856D1*
X1796363Y903723D1*
X1795492Y896280D1*
X1793593Y889030D1*
X1790702Y882116D1*
X1786876Y875673D1*
X1782190Y869825D1*
X1776734Y864687D1*
X1770616Y860359D1*
X1763955Y856926D1*
X1756881Y854455D1*
X1749531Y852993D1*
X1742049Y852569D1*
X1734581Y853192D1*
X1727272Y854849D1*
X1720266Y857508D1*
X1713699Y861118D1*
X1707698Y865607D1*
X1702382Y870889D1*
X1697853Y876859D1*
X1694200Y883403D1*
X1692771Y886773D1*
X1688513Y878186D1*
X1683564Y871374D1*
X1677610Y865420D1*
X1670798Y860471D1*
X1662447Y856335D1*
X1670948Y852105D1*
X1677760Y847156D1*
X1683714Y841202D1*
X1688663Y834390D1*
X1692485Y826888D1*
X1695087Y818880D1*
X1696404Y810564D1*
Y802144D1*
X1695087Y793828D1*
X1692485Y785820D1*
X1688663Y778318D1*
X1683714Y771507D1*
X1677760Y765553D1*
X1670948Y760604D1*
X1663446Y756781D1*
X1655438Y754179D1*
X1647122Y752862D1*
X1638702D1*
X1630386Y754179D1*
X1622378Y756781D1*
X1614876Y760604D1*
X1608064Y765553D1*
X1602111Y771507D1*
X1597162Y778318D1*
X1593339Y785820D1*
X1590737Y793828D1*
X1589420Y802144D1*
Y810564D1*
X1590737Y818880D1*
X1593339Y826888D1*
X1597162Y834390D1*
X1602111Y841202D1*
X1608064Y847156D1*
X1614876Y852105D1*
X1623227Y856241D1*
X1614727Y860471D1*
X1607915Y865420D1*
X1601961Y871374D1*
X1597012Y878186D1*
X1592785Y886784D1*
X1588513Y878186D1*
X1583564Y871374D1*
X1577610Y865420D1*
X1570798Y860471D1*
X1563296Y856649D1*
X1555289Y854047D1*
X1546972Y852730D1*
X1538553D1*
X1530236Y854047D1*
X1523510Y856176D1*
X1262760Y595546D1*
X1260536Y593833D1*
X1260172Y593045D1*
X1261561Y587261D1*
X1262028Y581331D1*
X1261561Y575400D1*
X1260172Y569616D1*
X1257896Y564120D1*
X1254787Y559048D1*
X1252889Y556651D1*
X1258346Y556617D1*
X1264221Y555686D1*
X1269879Y553848D1*
X1275179Y551147D1*
X1279992Y547651D1*
X1284198Y543444D1*
X1287695Y538632D1*
X1290395Y533331D1*
X1292233Y527674D1*
X1293164Y521798D1*
Y515850D1*
X1292233Y509974D1*
X1290395Y504317D1*
X1287695Y499016D1*
X1284198Y494204D1*
X1279992Y489998D1*
X1275179Y486501D1*
X1269879Y483800D1*
X1264221Y481962D1*
X1258346Y481032D1*
X1252397D1*
X1246522Y481962D1*
X1240864Y483800D1*
X1235564Y486501D1*
X1230751Y489998D1*
X1226545Y494204D1*
X1223048Y499016D1*
X1220348Y504317D1*
X1218509Y509974D1*
X1217579Y515850D1*
Y521798D1*
X1218509Y527674D1*
X1220348Y533331D1*
X1223048Y538632D1*
X1226600Y543504D1*
X1221144Y543538D1*
X1215268Y544469D1*
X1209611Y546307D1*
X1204310Y549008D1*
X1199498Y552504D1*
X1195292Y556710D1*
X1191795Y561523D1*
X1189094Y566823D1*
X1187256Y572481D1*
X1186326Y578356D1*
Y584305D1*
X1186868Y588230D1*
X1155517Y588208D1*
X1142718Y575320D1*
X1141330Y569536D1*
X1139053Y564040D1*
X1135945Y558968D1*
X1132082Y554445D1*
X1127558Y550581D1*
X1122486Y547473D1*
X1116990Y545197D1*
X1111206Y543808D1*
X1105276Y543341D1*
X1099345Y543808D1*
X1093561Y545197D1*
X1088065Y547473D1*
X1082993Y550581D1*
X1076994Y556041D1*
X1071128Y556039D1*
X1065253Y556970D1*
X1059595Y558808D1*
X1054295Y561509D1*
X1051756Y563213D1*
X1038058Y563583D1*
X1031129Y565537D1*
X1024848Y569055D1*
X1021193Y572176D1*
X988308Y605195D1*
X984308Y611181D1*
X981816Y617936D1*
X980970Y625085D1*
X980983Y625414D1*
X981064Y646240D1*
X982469Y653301D1*
X985483Y659839D1*
X989940Y665493D1*
X990181Y665716D1*
X1016708Y692128D1*
X1022694Y696128D1*
X1029449Y698620D1*
X1036598Y699466D1*
X1036927Y699453D1*
X1198952Y699466D1*
X1262294Y762829D1*
X1262249Y781202D1*
X1234172Y809244D1*
X1230433Y802824D1*
X1226570Y798300D1*
X1222046Y794437D1*
X1216974Y791329D1*
X1211478Y789052D1*
X1205694Y787664D1*
X1199764Y787197D1*
X1193833Y787664D1*
X1188049Y789052D1*
X1182553Y791329D1*
X1177481Y794437D1*
X1172958Y798300D1*
X1168287Y804032D1*
X1163578Y798300D1*
X1159054Y794437D1*
X1153982Y791329D1*
X1148486Y789052D1*
X1142702Y787664D1*
X1136772Y787197D1*
X1130841Y787664D1*
X1125057Y789052D1*
X1119561Y791329D1*
X1114489Y794437D1*
X1108537Y799846D1*
X1102036D1*
X1096062Y794437D1*
X1090990Y791329D1*
X1085494Y789052D1*
X1079710Y787664D1*
X1073780Y787197D1*
X1067849Y787664D1*
X1062065Y789052D1*
X1056569Y791329D1*
X1051497Y794437D1*
X1046973Y798300D1*
X1043110Y802824D1*
X1040002Y807896D1*
X1037725Y813392D1*
X1036337Y819176D1*
X1035870Y825106D1*
X1036337Y831037D1*
X1037725Y836821D1*
X1040002Y842317D1*
X1043110Y847389D1*
X1046973Y851912D1*
X1051497Y855776D1*
X1056569Y858884D1*
X1062065Y861160D1*
X1067849Y862549D1*
X1073780Y863016D1*
X1077019Y862867D1*
X1082993Y868277D1*
X1088065Y871385D1*
X1093561Y873662D1*
X1099288Y875039D1*
X1095050Y882005D1*
X1091828Y889784D1*
X1089863Y897971D1*
X1089202Y906365D1*
X1089863Y914759D1*
X1091828Y922946D1*
X1095050Y930725D1*
X1099450Y937904D1*
X1101335Y940295D1*
X969532Y940275D1*
X973657Y934321D1*
X978321Y925168D1*
X981496Y915397D1*
X983103Y905251D1*
Y894978D1*
X981496Y884831D1*
X978321Y875060D1*
X973657Y865907D1*
X967619Y857596D1*
X960354Y850331D1*
X952043Y844293D1*
X942890Y839629D1*
X933119Y836455D1*
X922973Y834847D1*
X912699D1*
X902553Y836455D1*
X892782Y839629D1*
X883629Y844293D1*
X875318Y850331D1*
X868053Y857596D1*
X862015Y865907D1*
X857351Y875060D1*
X854176Y884831D1*
X852569Y894978D1*
Y905251D1*
X854176Y915397D1*
X857351Y925168D1*
X862015Y934321D1*
X866201Y940283D1*
X325684Y940275D1*
X329839Y934321D1*
X334503Y925168D1*
X337678Y915397D1*
X339285Y905251D1*
Y894978D1*
X337678Y884831D1*
X334503Y875060D1*
X329839Y865907D1*
X323801Y857596D1*
X316537Y850331D1*
X308226Y844293D1*
X299072Y839629D1*
X289302Y836455D1*
X279155Y834847D1*
X268882D1*
X258735Y836455D1*
X248965Y839629D1*
X239811Y844293D1*
X231500Y850331D1*
X224236Y857596D1*
X218197Y865907D1*
X213533Y875060D1*
X210359Y884831D1*
X208752Y894978D1*
Y905251D1*
X210359Y915397D1*
X213533Y925168D1*
X218197Y934321D1*
X222383Y940283D1*
X82551Y939988D1*
X71768Y938145D1*
X62975Y934204D1*
X55426Y928217D1*
X49585Y920551D1*
X45774Y911462D1*
X43983Y901516D1*
X43997Y427959D1*
X51524Y428693D1*
X152340Y428562D1*
X158927Y427519D1*
X165269Y425458D1*
X171211Y422430D1*
X176607Y418510D1*
X181323Y413794D1*
X185242Y408399D1*
X188270Y402457D1*
X190331Y396114D1*
X191374Y389527D1*
X191505Y323693D1*
X191374Y146638D1*
X190934Y143081D1*
X200280Y144527D1*
X210245D1*
X220086Y142969D1*
X229563Y139889D1*
X238441Y135366D1*
X246502Y129509D1*
X253548Y122463D1*
X255900Y119480D1*
X255886Y395682D1*
X128306Y523258D1*
X121076Y526395D1*
X112843Y531440D1*
X105501Y537711D1*
X99230Y545053D1*
X94186Y553286D1*
X90491Y562206D1*
X88237Y571595D1*
X87479Y581220D1*
X88237Y590846D1*
X90491Y600235D1*
X94186Y609155D1*
X99230Y617388D1*
X105501Y624730D1*
X113173Y631221D1*
X105501Y637711D1*
X99230Y645053D1*
X94186Y653286D1*
X90491Y662206D1*
X88237Y671595D1*
X87479Y681220D1*
X88237Y690846D1*
X90491Y700235D1*
X94186Y709155D1*
X99230Y717388D1*
X105501Y724730D1*
X113098Y731256D1*
X105487Y737725D1*
X99023Y745340D1*
X93876Y753901D1*
X90182Y763182D1*
X88039Y772939D1*
X87502Y782913D1*
X88587Y792843D1*
X91264Y802467D1*
X95462Y811531D1*
X101072Y819796D1*
X107945Y827044D1*
X115901Y833085D1*
X124729Y837758D1*
X134197Y840942D1*
X144056Y842552D1*
X154045Y842546D1*
X163901Y840923D1*
X173365Y837727D1*
X182187Y833042D1*
X190135Y826991D1*
X196999Y819734D1*
X202598Y811462D1*
X206785Y802392D1*
X209449Y792765D1*
X210521Y782834D1*
X210085Y773739D1*
X208070Y763955D1*
X204498Y754627D1*
X199464Y745999D1*
X193100Y738300D1*
X185575Y731731D1*
X184865Y731229D1*
X192520Y724730D1*
X198791Y717388D1*
X203835Y709155D1*
X207530Y700235D1*
X209784Y690846D1*
X210542Y681220D1*
X209784Y671595D1*
X207530Y662206D1*
X203835Y653286D1*
X198791Y645053D1*
X192520Y637711D1*
X184848Y631220D1*
X192520Y624730D1*
X198791Y617388D1*
X203835Y609155D1*
X206884Y601988D1*
X267583Y541315D1*
X269882Y550948D1*
X273695Y560154D1*
X278902Y568650D1*
X285373Y576227D1*
X292950Y582698D1*
X301446Y587904D1*
X310652Y591717D1*
X320341Y594044D1*
X330274Y594825D1*
X340208Y594044D1*
X349897Y591717D1*
X359103Y587904D1*
X367599Y582698D1*
X375176Y576227D1*
X381647Y568650D1*
X386853Y560154D1*
X390777Y550554D1*
X397025Y553848D1*
X402683Y555686D1*
X408558Y556617D1*
X414170Y556630D1*
X415055Y564371D1*
X418402Y578313D1*
X423889Y591559D1*
X431381Y603784D1*
X440693Y614687D1*
X451595Y623998D1*
X463820Y631490D1*
X477067Y636977D1*
X491008Y640324D1*
X505302Y641449D1*
X519595Y640324D1*
X533537Y636977D1*
X546784Y631490D1*
X559009Y623998D1*
X569911Y614687D1*
X579223Y603784D1*
X586714Y591559D1*
X592201Y578313D1*
X595548Y564371D1*
X596673Y550077D1*
X596401Y543160D1*
X602283Y544115D1*
X608232D1*
X614107Y543185D1*
X619765Y541347D1*
X624426Y539004D1*
X626535Y545833D1*
X629236Y551133D1*
X632732Y555946D1*
X636939Y560152D1*
X641751Y563649D1*
X647052Y566349D1*
X652709Y568187D1*
X658585Y569118D1*
X664533D1*
X670409Y568187D1*
X676066Y566349D1*
X681367Y563649D1*
X686179Y560152D1*
X690386Y555946D1*
X693882Y551133D1*
X696583Y545833D1*
X698421Y540175D1*
X699352Y534300D1*
Y528351D1*
X698421Y522476D1*
X696583Y516818D1*
X693882Y511518D1*
X690386Y506705D1*
X686179Y502499D1*
X681367Y499002D1*
X676066Y496302D1*
X670409Y494463D1*
X664533Y493533D1*
X658585D1*
X652709Y494463D1*
X647052Y496302D1*
X642391Y498644D1*
X640281Y491815D1*
X637580Y486515D1*
X634084Y481703D1*
X629877Y477496D1*
X625065Y474000D1*
X619765Y471299D1*
X614107Y469461D1*
X608232Y468530D1*
X602283D1*
X596407Y469461D1*
X590750Y471299D1*
X585450Y474000D1*
X580637Y477496D1*
X576431Y481703D1*
X572190Y487844D1*
X1777751Y542908D2*
X1775508Y528747D1*
X1771078Y515111D1*
X1764568Y502336D1*
X1756141Y490736D1*
X1746002Y480598D1*
X1734403Y472170D1*
X1721628Y465661D1*
X1707992Y461231D1*
X1693830Y458988D1*
X1679493D1*
X1665331Y461231D1*
X1651695Y465661D1*
X1638920Y472170D1*
X1627320Y480598D1*
X1617182Y490736D1*
X1608895Y502126D1*
X1607570Y493827D1*
X1604968Y485819D1*
X1601146Y478317D1*
X1596196Y471505D1*
X1590243Y465552D1*
X1583431Y460602D1*
X1575929Y456780D1*
X1567921Y454178D1*
X1559605Y452861D1*
X1551185D1*
X1542869Y454178D1*
X1534861Y456780D1*
X1527359Y460602D1*
X1520547Y465552D1*
X1514594Y471505D1*
X1509644Y478317D1*
X1505822Y485819D1*
X1503220Y493827D1*
X1501903Y502143D1*
Y510563D1*
X1503220Y518879D1*
X1505822Y526887D1*
X1509644Y534389D1*
X1514594Y541201D1*
X1520547Y547154D1*
X1527359Y552103D1*
X1534861Y555926D1*
X1542869Y558528D1*
X1551185Y559845D1*
X1559605D1*
X1567921Y558528D1*
X1575929Y555926D1*
X1583431Y552103D1*
X1590243Y547154D1*
X1595671Y541769D1*
X1595290Y550077D1*
X1596415Y564371D1*
X1599762Y578313D1*
X1605249Y591559D1*
X1612740Y603784D1*
X1622052Y614687D1*
X1632955Y623998D1*
X1645180Y631490D1*
X1658426Y636977D1*
X1672368Y640324D1*
X1686661Y641449D1*
X1700955Y640324D1*
X1714897Y636977D1*
X1728143Y631490D1*
X1740368Y623998D1*
X1751271Y614687D1*
X1760582Y603784D1*
X1768074Y591559D1*
X1773561Y578313D1*
X1776908Y564371D1*
X1778033Y550077D1*
X1777751Y542908D1*
X1918933Y520452D2*
X1917519Y511526D1*
X1914726Y502931D1*
X1910623Y494878D1*
X1905311Y487566D1*
X1898920Y481176D1*
X1891609Y475864D1*
X1890052Y474992D1*
X1895369Y471566D1*
X1902241Y465697D1*
X1908111Y458824D1*
X1912833Y451118D1*
X1916291Y442769D1*
X1918401Y433981D1*
X1919110Y424971D1*
X1918401Y415961D1*
X1916291Y407173D1*
X1912833Y398824D1*
X1908111Y391118D1*
X1902241Y384246D1*
X1895369Y378376D1*
X1887663Y373654D1*
X1879313Y370195D1*
X1870526Y368086D1*
X1861516Y367377D1*
X1852506Y368086D1*
X1843718Y370195D1*
X1835368Y373654D1*
X1827663Y378376D1*
X1820790Y384246D1*
X1814921Y391118D1*
X1810199Y398824D1*
X1806740Y407173D1*
X1804630Y415961D1*
X1803921Y424971D1*
X1804630Y433981D1*
X1806740Y442769D1*
X1810199Y451118D1*
X1814921Y458824D1*
X1820790Y465697D1*
X1827663Y471566D1*
X1832979Y474950D1*
X1827663Y478376D1*
X1820790Y484246D1*
X1814921Y491118D1*
X1810199Y498824D1*
X1806740Y507173D1*
X1804630Y515961D1*
X1803921Y524971D1*
X1804630Y533981D1*
X1806740Y542769D1*
X1810199Y551118D1*
X1814921Y558824D1*
X1820790Y565697D1*
X1827663Y571566D1*
X1835368Y576288D1*
X1843718Y579747D1*
X1852506Y581856D1*
X1861516Y582566D1*
X1870526Y581856D1*
X1879313Y579747D1*
X1887663Y576288D1*
X1895369Y571566D1*
X1902241Y565697D1*
X1908111Y558824D1*
X1912833Y551118D1*
X1916291Y542769D1*
X1918401Y533981D1*
X1919110Y524971D1*
X1918933Y520452D1*
X1205655Y372085D2*
X1204724Y366209D1*
X1202886Y360552D1*
X1200185Y355251D1*
X1196689Y350439D1*
X1192482Y346232D1*
X1187670Y342736D1*
X1182370Y340035D1*
X1176712Y338197D1*
X1170837Y337266D1*
X1165016Y337261D1*
X1159054Y331888D1*
X1153982Y328780D1*
X1148486Y326504D1*
X1142702Y325115D1*
X1136772Y324648D1*
X1130841Y325115D1*
X1125057Y326504D1*
X1119561Y328780D1*
X1114489Y331888D1*
X1109966Y335752D1*
X1106102Y340275D1*
X1102994Y345347D1*
X1100718Y350843D1*
X1099329Y356627D1*
X1098862Y362558D1*
X1099329Y368488D1*
X1100718Y374272D1*
X1102994Y379768D1*
X1106102Y384840D1*
X1109966Y389364D1*
X1114489Y393227D1*
X1119561Y396335D1*
X1125057Y398612D1*
X1130841Y400000D1*
X1136772Y400467D1*
X1139618Y400355D1*
X1145580Y405728D1*
X1150652Y408837D1*
X1156148Y411113D1*
X1161932Y412502D1*
X1167862Y412968D1*
X1173793Y412502D1*
X1179577Y411113D1*
X1185073Y408837D1*
X1190145Y405728D1*
X1194668Y401865D1*
X1198532Y397342D1*
X1201640Y392270D1*
X1203916Y386774D1*
X1205305Y380989D1*
X1205772Y375059D1*
X1205655Y372085D1*
X1599036Y219407D2*
X1603263Y228006D1*
X1608212Y234818D1*
X1614165Y240771D1*
X1620977Y245720D1*
X1628479Y249543D1*
X1636487Y252145D1*
X1644803Y253462D1*
X1653223D1*
X1661539Y252145D1*
X1669547Y249543D1*
X1674795Y246983D1*
X1666085Y258569D1*
X1627726Y296928D1*
X1620363Y294361D1*
X1614487Y293430D1*
X1608539D1*
X1602663Y294361D1*
X1597006Y296199D1*
X1591705Y298900D1*
X1586893Y302396D1*
X1582687Y306603D1*
X1579190Y311415D1*
X1576489Y316716D1*
X1574651Y322373D1*
X1573721Y328249D1*
Y334197D1*
X1574651Y340073D1*
X1576489Y345730D1*
X1579190Y351031D1*
X1582687Y355843D1*
X1586893Y360050D1*
X1591705Y363546D1*
X1597006Y366247D1*
X1602663Y368085D1*
X1608539Y369016D1*
X1614487D1*
X1620363Y368085D1*
X1626020Y366247D1*
X1631321Y363546D1*
X1633860Y361842D1*
X1641534Y361472D1*
X1648463Y359518D1*
X1654744Y356000D1*
X1658399Y352879D1*
X1728707Y282437D1*
X1732707Y276451D1*
X1735198Y269697D1*
X1736045Y262547D1*
X1736032Y262219D1*
X1735950Y178886D1*
X1734546Y171825D1*
X1731532Y165287D1*
X1727075Y159633D1*
X1726833Y159410D1*
X1695525Y128105D1*
X1700044Y116551D1*
X1702010Y108364D1*
X1702671Y99970D1*
X1702010Y91576D1*
X1700044Y83389D1*
X1696822Y75610D1*
X1692423Y68431D1*
X1686955Y62028D1*
X1680552Y56560D1*
X1673373Y52161D1*
X1665594Y48938D1*
X1657407Y46973D1*
X1649013Y46312D1*
X1640619Y46973D1*
X1632432Y48938D1*
X1624653Y52161D1*
X1617474Y56560D1*
X1611072Y62028D1*
X1605603Y68431D1*
X1601204Y75610D1*
X1599036Y80532D1*
X1594764Y71934D1*
X1589815Y65122D1*
X1583861Y59168D1*
X1577049Y54219D1*
X1569547Y50397D1*
X1561539Y47795D1*
X1553223Y46478D1*
X1544803D1*
X1536487Y47795D1*
X1528479Y50397D1*
X1520977Y54219D1*
X1514165Y59168D1*
X1508212Y65122D1*
X1503263Y71934D1*
X1499036Y80532D1*
X1494764Y71934D1*
X1489815Y65122D1*
X1483861Y59168D1*
X1477049Y54219D1*
X1469547Y50397D1*
X1461539Y47795D1*
X1453223Y46478D1*
X1444803D1*
X1436487Y47795D1*
X1428479Y50397D1*
X1420977Y54219D1*
X1414165Y59168D1*
X1408212Y65122D1*
X1403263Y71934D1*
X1399036Y80532D1*
X1394764Y71934D1*
X1389815Y65122D1*
X1383861Y59168D1*
X1377049Y54219D1*
X1369547Y50397D1*
X1361539Y47795D1*
X1353223Y46478D1*
X1344803D1*
X1336487Y47795D1*
X1328479Y50397D1*
X1320977Y54219D1*
X1314165Y59168D1*
X1308212Y65122D1*
X1303263Y71934D1*
X1299036Y80532D1*
X1294764Y71934D1*
X1289815Y65122D1*
X1283861Y59168D1*
X1277049Y54219D1*
X1269547Y50397D1*
X1261539Y47795D1*
X1253223Y46478D1*
X1244803D1*
X1236487Y47795D1*
X1228479Y50397D1*
X1220977Y54219D1*
X1214165Y59168D1*
X1208212Y65122D1*
X1203263Y71934D1*
X1199036Y80532D1*
X1194764Y71934D1*
X1189815Y65122D1*
X1183861Y59168D1*
X1177049Y54219D1*
X1169547Y50397D1*
X1161539Y47795D1*
X1153223Y46478D1*
X1144803D1*
X1136487Y47795D1*
X1128479Y50397D1*
X1120977Y54219D1*
X1114165Y59168D1*
X1108212Y65122D1*
X1103263Y71934D1*
X1099036Y80532D1*
X1094764Y71934D1*
X1089815Y65122D1*
X1083861Y59168D1*
X1077049Y54219D1*
X1069547Y50397D1*
X1061539Y47795D1*
X1053223Y46478D1*
X1044803D1*
X1036487Y47795D1*
X1028479Y50397D1*
X1020977Y54219D1*
X1014165Y59168D1*
X1008212Y65122D1*
X1003263Y71934D1*
X999036Y80532D1*
X994764Y71934D1*
X989815Y65122D1*
X983861Y59168D1*
X977049Y54219D1*
X969547Y50397D1*
X961539Y47795D1*
X953223Y46478D1*
X944803D1*
X936487Y47795D1*
X928479Y50397D1*
X920977Y54219D1*
X914165Y59168D1*
X908212Y65122D1*
X903263Y71934D1*
X899036Y80532D1*
X894764Y71934D1*
X889815Y65122D1*
X883861Y59168D1*
X877049Y54219D1*
X869547Y50397D1*
X861539Y47795D1*
X853223Y46478D1*
X844803D1*
X836487Y47795D1*
X828479Y50397D1*
X820977Y54219D1*
X814165Y59168D1*
X808212Y65122D1*
X803263Y71934D1*
X799440Y79436D1*
X796838Y87444D1*
X795521Y95760D1*
Y104180D1*
X796838Y112496D1*
X798948Y119409D1*
X791798Y120255D1*
X785044Y122747D1*
X779057Y126747D1*
X758544Y147127D1*
X749013Y146312D1*
X740619Y146973D1*
X732432Y148938D1*
X724653Y152161D1*
X717474Y156560D1*
X711072Y162028D1*
X705603Y168431D1*
X701204Y175610D1*
X699036Y180532D1*
X694764Y171934D1*
X689815Y165122D1*
X683861Y159168D1*
X677049Y154219D1*
X668451Y149992D1*
X677049Y145720D1*
X683861Y140771D1*
X689815Y134818D1*
X694764Y128006D1*
X698586Y120504D1*
X701188Y112496D1*
X702505Y104180D1*
Y95760D1*
X701188Y87444D1*
X698586Y79436D1*
X694764Y71934D1*
X689815Y65122D1*
X683861Y59168D1*
X677049Y54219D1*
X669547Y50397D1*
X661539Y47795D1*
X653223Y46478D1*
X644803D1*
X636487Y47795D1*
X628479Y50397D1*
X620977Y54219D1*
X614165Y59168D1*
X608212Y65122D1*
X603263Y71934D1*
X599036Y80532D1*
X594764Y71934D1*
X589815Y65122D1*
X583861Y59168D1*
X577049Y54219D1*
X569547Y50397D1*
X561539Y47795D1*
X553223Y46478D1*
X544803D1*
X536487Y47795D1*
X528479Y50397D1*
X520977Y54219D1*
X514165Y59168D1*
X508212Y65122D1*
X503263Y71934D1*
X499440Y79436D1*
X496838Y87444D1*
X495521Y95760D1*
Y104180D1*
X496838Y112496D1*
X499440Y120504D1*
X503263Y128006D1*
X508212Y134818D1*
X514165Y140771D1*
X520977Y145720D1*
X529576Y149947D1*
X520977Y154219D1*
X514165Y159168D1*
X508212Y165122D1*
X503263Y171934D1*
X499440Y179436D1*
X496838Y187444D1*
X495521Y195760D1*
Y204180D1*
X496838Y212496D1*
X499440Y220504D1*
X503263Y228006D1*
X508212Y234818D1*
X514165Y240771D1*
X520977Y245720D1*
X528479Y249543D1*
X536487Y252145D1*
X544803Y253462D1*
X553223D1*
X561539Y252145D1*
X569547Y249543D1*
X577049Y245720D1*
X583861Y240771D1*
X589815Y234818D1*
X594764Y228006D1*
X598991Y219407D1*
X603263Y228006D1*
X608212Y234818D1*
X614165Y240771D1*
X620977Y245720D1*
X628479Y249543D1*
X636487Y252145D1*
X644803Y253462D1*
X653223D1*
X661539Y252145D1*
X669547Y249543D1*
X677049Y245720D1*
X683861Y240771D1*
X689815Y234818D1*
X694764Y228006D1*
X698991Y219407D1*
X703263Y228006D1*
X708212Y234818D1*
X714165Y240771D1*
X720977Y245720D1*
X728479Y249543D1*
X736487Y252145D1*
X744803Y253462D1*
X753223D1*
X761539Y252145D1*
X769547Y249543D1*
X777049Y245720D1*
X783861Y240771D1*
X789815Y234818D1*
X794764Y228006D1*
X798991Y219407D1*
X803263Y228006D1*
X808212Y234818D1*
X814165Y240771D1*
X820977Y245720D1*
X828479Y249543D1*
X836487Y252145D1*
X844803Y253462D1*
X853223D1*
X861539Y252145D1*
X869547Y249543D1*
X877049Y245720D1*
X883861Y240771D1*
X889815Y234818D1*
X894764Y228006D1*
X898991Y219407D1*
X903263Y228006D1*
X908212Y234818D1*
X914165Y240771D1*
X920977Y245720D1*
X928479Y249543D1*
X936487Y252145D1*
X944803Y253462D1*
X953223D1*
X961539Y252145D1*
X969547Y249543D1*
X977049Y245720D1*
X983861Y240771D1*
X989815Y234818D1*
X994764Y228006D1*
X998991Y219407D1*
X1003263Y228006D1*
X1008212Y234818D1*
X1014165Y240771D1*
X1020977Y245720D1*
X1028479Y249543D1*
X1036487Y252145D1*
X1044803Y253462D1*
X1053223D1*
X1061539Y252145D1*
X1069547Y249543D1*
X1077049Y245720D1*
X1083861Y240771D1*
X1089815Y234818D1*
X1094764Y228006D1*
X1098991Y219407D1*
X1103263Y228006D1*
X1108212Y234818D1*
X1114165Y240771D1*
X1120977Y245720D1*
X1128479Y249543D1*
X1136487Y252145D1*
X1144803Y253462D1*
X1153223D1*
X1161539Y252145D1*
X1169547Y249543D1*
X1177049Y245720D1*
X1183861Y240771D1*
X1189815Y234818D1*
X1194764Y228006D1*
X1198991Y219407D1*
X1203263Y228006D1*
X1208212Y234818D1*
X1214165Y240771D1*
X1220977Y245720D1*
X1228479Y249543D1*
X1236487Y252145D1*
X1244803Y253462D1*
X1253223D1*
X1261539Y252145D1*
X1269547Y249543D1*
X1277049Y245720D1*
X1283861Y240771D1*
X1289815Y234818D1*
X1294764Y228006D1*
X1298991Y219407D1*
X1303263Y228006D1*
X1308212Y234818D1*
X1314165Y240771D1*
X1320977Y245720D1*
X1328479Y249543D1*
X1336487Y252145D1*
X1344803Y253462D1*
X1353223D1*
X1361539Y252145D1*
X1369547Y249543D1*
X1377049Y245720D1*
X1383861Y240771D1*
X1389815Y234818D1*
X1394764Y228006D1*
X1398991Y219407D1*
X1403263Y228006D1*
X1408212Y234818D1*
X1414165Y240771D1*
X1420977Y245720D1*
X1428479Y249543D1*
X1433842Y251399D1*
X1428445Y256711D1*
X1424420Y262250D1*
X1421311Y268352D1*
X1419195Y274864D1*
X1418124Y281627D1*
Y288475D1*
X1419195Y295238D1*
X1421311Y301751D1*
X1424420Y307852D1*
X1428445Y313392D1*
X1433287Y318234D1*
X1438827Y322258D1*
X1444211Y325037D1*
X1438827Y327844D1*
X1433287Y331869D1*
X1428445Y336711D1*
X1424420Y342250D1*
X1421311Y348352D1*
X1419195Y354864D1*
X1418195Y361029D1*
X1410851Y357758D1*
X1405067Y356370D1*
X1399136Y355903D1*
X1393206Y356370D1*
X1385796Y358358D1*
X1378838Y353778D1*
X1373342Y351501D1*
X1367558Y350112D1*
X1361627Y349646D1*
X1355697Y350112D1*
X1349913Y351501D1*
X1344417Y353778D1*
X1339345Y356886D1*
X1334821Y360749D1*
X1330958Y365272D1*
X1327850Y370345D1*
X1325573Y375840D1*
X1324185Y381625D1*
X1323718Y387555D1*
X1324185Y393485D1*
X1325573Y399270D1*
X1327850Y404766D1*
X1330958Y409838D1*
X1334821Y414361D1*
X1339345Y418224D1*
X1344417Y421333D1*
X1349913Y423609D1*
X1355697Y424998D1*
X1361627Y425465D1*
X1367558Y424998D1*
X1374967Y423009D1*
X1381926Y427590D1*
X1387422Y429866D1*
X1393206Y431255D1*
X1399136Y431722D1*
X1405067Y431255D1*
X1410851Y429866D1*
X1416347Y427590D1*
X1421419Y424482D1*
X1425943Y420618D1*
X1429806Y416095D1*
X1432914Y411023D1*
X1435191Y405527D1*
X1436395Y400666D1*
X1441816Y403933D1*
X1448142Y406553D1*
X1454801Y408152D1*
X1461627Y408689D1*
X1468454Y408152D1*
X1475112Y406553D1*
X1481438Y403933D1*
X1487277Y400355D1*
X1492484Y395908D1*
X1496931Y390701D1*
X1500509Y384862D1*
X1503129Y378536D1*
X1504728Y371878D1*
X1505230Y364155D1*
X1512435Y367358D1*
X1518219Y368747D1*
X1524150Y369214D1*
X1530080Y368747D1*
X1535864Y367358D1*
X1541360Y365082D1*
X1546432Y361974D1*
X1550956Y358110D1*
X1554819Y353587D1*
X1557927Y348515D1*
X1560204Y343019D1*
X1561592Y337235D1*
X1562059Y331304D1*
X1561592Y325374D1*
X1560204Y319590D1*
X1557927Y314094D1*
X1554819Y309022D1*
X1550956Y304498D1*
X1546432Y300635D1*
X1541360Y297527D1*
X1535864Y295250D1*
X1530080Y293862D1*
X1524150Y293395D1*
X1518219Y293862D1*
X1512435Y295250D1*
X1506939Y297527D1*
X1502553Y300176D1*
X1504728Y291878D1*
X1505265Y285051D1*
X1504728Y278225D1*
X1503129Y271566D1*
X1500509Y265240D1*
X1496931Y259401D1*
X1492484Y254195D1*
X1487277Y249747D1*
X1481438Y246170D1*
X1478485Y244808D1*
X1483861Y240771D1*
X1489815Y234818D1*
X1494764Y228006D1*
X1498991Y219407D1*
X1503263Y228006D1*
X1508212Y234818D1*
X1514165Y240771D1*
X1520977Y245720D1*
X1528479Y249543D1*
X1536487Y252145D1*
X1544803Y253462D1*
X1553223D1*
X1561539Y252145D1*
X1569547Y249543D1*
X1577049Y245720D1*
X1583861Y240771D1*
X1589815Y234818D1*
X1594764Y228006D1*
X1598991Y219407D1*
X1608887Y695883D2*
X1607570Y687567D1*
X1604968Y679559D1*
X1601146Y672057D1*
X1596196Y665245D1*
X1590243Y659292D1*
X1583431Y654343D1*
X1575929Y650520D1*
X1567921Y647918D1*
X1559605Y646601D1*
X1551185D1*
X1542869Y647918D1*
X1534861Y650520D1*
X1527359Y654343D1*
X1520547Y659292D1*
X1514594Y665245D1*
X1509644Y672057D1*
X1505822Y679559D1*
X1503220Y687567D1*
X1501903Y695883D1*
Y704303D1*
X1503220Y712619D1*
X1505822Y720627D1*
X1509644Y728129D1*
X1514594Y734941D1*
X1520547Y740895D1*
X1527359Y745844D1*
X1534861Y749666D1*
X1542869Y752268D1*
X1551185Y753585D1*
X1559605D1*
X1567921Y752268D1*
X1575929Y749666D1*
X1583431Y745844D1*
X1590243Y740895D1*
X1596196Y734941D1*
X1601146Y728129D1*
X1604968Y720627D1*
X1607570Y712619D1*
X1608887Y704303D1*
Y695883D1*
X1305131Y321627D2*
X1304059Y314864D1*
X1301943Y308352D1*
X1298835Y302250D1*
X1294810Y296711D1*
X1289968Y291869D1*
X1284428Y287844D1*
X1278327Y284735D1*
X1271814Y282619D1*
X1265051Y281548D1*
X1258204D1*
X1251440Y282619D1*
X1244928Y284735D1*
X1238827Y287844D1*
X1233287Y291869D1*
X1228445Y296711D1*
X1224420Y302250D1*
X1221311Y308352D1*
X1219195Y314864D1*
X1218124Y321627D1*
Y328475D1*
X1219195Y335238D1*
X1221311Y341751D1*
X1224420Y347852D1*
X1228445Y353392D1*
X1233287Y358234D1*
X1238827Y362258D1*
X1244928Y365367D1*
X1251440Y367483D1*
X1258204Y368554D1*
X1265051D1*
X1271814Y367483D1*
X1278327Y365367D1*
X1284428Y362258D1*
X1289968Y358234D1*
X1294810Y353392D1*
X1298835Y347852D1*
X1301943Y341751D1*
X1304059Y335238D1*
X1305131Y328475D1*
Y321627D1*
X936877Y578356D2*
X935946Y572481D1*
X934108Y566823D1*
X931407Y561523D1*
X927911Y556710D1*
X923704Y552504D1*
X918892Y549008D1*
X913591Y546307D1*
X907934Y544469D1*
X902058Y543538D1*
X896110D1*
X890234Y544469D1*
X884577Y546307D1*
X879276Y549008D1*
X874464Y552504D1*
X870257Y556710D1*
X866761Y561523D1*
X864060Y566823D1*
X862222Y572481D1*
X861291Y578356D1*
Y584305D1*
X862222Y590180D1*
X864060Y595838D1*
X866761Y601138D1*
X870257Y605951D1*
X874464Y610157D1*
X879276Y613654D1*
X884577Y616354D1*
X890234Y618193D1*
X896110Y619123D1*
X902058D1*
X907934Y618193D1*
X913591Y616354D1*
X918892Y613654D1*
X923704Y610157D1*
X927911Y605951D1*
X931407Y601138D1*
X934108Y595838D1*
X935946Y590180D1*
X936877Y584305D1*
Y578356D1*
X1411782Y615796D2*
X1410852Y609921D1*
X1409013Y604263D1*
X1406313Y598963D1*
X1402816Y594150D1*
X1398610Y589944D1*
X1393797Y586447D1*
X1388497Y583747D1*
X1382839Y581908D1*
X1376964Y580978D1*
X1371015D1*
X1365140Y581908D1*
X1359482Y583747D1*
X1354182Y586447D1*
X1349369Y589944D1*
X1345163Y594150D1*
X1341666Y598963D1*
X1338966Y604263D1*
X1337127Y609921D1*
X1336197Y615796D1*
Y621745D1*
X1337127Y627620D1*
X1338966Y633278D1*
X1341666Y638578D1*
X1345163Y643391D1*
X1349369Y647597D1*
X1354182Y651093D1*
X1359482Y653794D1*
X1365140Y655632D1*
X1371015Y656563D1*
X1376964D1*
X1382839Y655632D1*
X1388497Y653794D1*
X1393797Y651093D1*
X1398610Y647597D1*
X1402816Y643391D1*
X1406313Y638578D1*
X1409013Y633278D1*
X1410852Y627620D1*
X1411782Y621745D1*
Y615796D1*
X1499436Y553354D2*
X1498505Y547478D1*
X1496667Y541821D1*
X1493966Y536520D1*
X1490470Y531708D1*
X1486263Y527501D1*
X1481451Y524005D1*
X1476150Y521304D1*
X1470493Y519466D1*
X1464617Y518535D1*
X1458669D1*
X1452793Y519466D1*
X1447136Y521304D1*
X1441835Y524005D1*
X1437023Y527501D1*
X1432816Y531708D1*
X1429320Y536520D1*
X1426619Y541821D1*
X1424781Y547478D1*
X1423850Y553354D1*
Y559302D1*
X1424781Y565178D1*
X1426619Y570835D1*
X1429320Y576136D1*
X1432816Y580948D1*
X1437023Y585155D1*
X1441835Y588651D1*
X1447136Y591352D1*
X1452793Y593190D1*
X1458669Y594121D1*
X1464617D1*
X1470493Y593190D1*
X1476150Y591352D1*
X1481451Y588651D1*
X1486263Y585155D1*
X1490470Y580948D1*
X1493966Y576136D1*
X1496667Y570835D1*
X1498505Y565178D1*
X1499436Y559302D1*
Y553354D1*
X761858Y303326D2*
X760928Y297451D1*
X759089Y291793D1*
X756389Y286493D1*
X752892Y281680D1*
X748686Y277474D1*
X743873Y273977D1*
X738573Y271277D1*
X732915Y269438D1*
X727040Y268508D1*
X721091D1*
X715216Y269438D1*
X709558Y271277D1*
X704258Y273977D1*
X699445Y277474D1*
X695239Y281680D1*
X691742Y286493D1*
X689042Y291793D1*
X687204Y297451D1*
X686273Y303326D1*
Y309275D1*
X687204Y315150D1*
X689042Y320808D1*
X691742Y326108D1*
X695894Y331629D1*
X691009Y335752D1*
X687146Y340275D1*
X684037Y345347D1*
X681761Y350843D1*
X680372Y356627D1*
X679906Y362558D1*
X680372Y368488D1*
X681761Y374272D1*
X684037Y379768D1*
X687146Y384840D1*
X691009Y389364D1*
X695532Y393227D1*
X700604Y396335D1*
X706100Y398612D1*
X711885Y400000D1*
X717815Y400467D1*
X723745Y400000D1*
X729530Y398612D1*
X735025Y396335D1*
X740098Y393227D1*
X744621Y389364D1*
X748484Y384840D1*
X751593Y379768D1*
X753869Y374272D1*
X755258Y368488D1*
X755724Y362558D1*
X755258Y356627D1*
X753869Y350843D1*
X751593Y345347D1*
X748484Y340275D1*
X745986Y337229D1*
X750872Y333107D1*
X754735Y328583D1*
X757843Y323511D1*
X760120Y318015D1*
X761508Y312231D1*
X761975Y306300D1*
X761858Y303326D1*
X643096Y803380D2*
X642165Y797504D1*
X640327Y791847D1*
X637626Y786547D1*
X634130Y781734D1*
X629923Y777528D1*
X625111Y774031D1*
X619810Y771331D1*
X614153Y769492D1*
X608277Y768562D1*
X602329D1*
X596453Y769492D1*
X590796Y771331D1*
X585496Y774031D1*
X580683Y777528D1*
X576477Y781734D1*
X572980Y786547D1*
X570279Y791847D1*
X568441Y797504D1*
X567511Y803380D1*
Y809329D1*
X568441Y815204D1*
X570279Y820862D1*
X572980Y826162D1*
X576477Y830975D1*
X580683Y835181D1*
X585496Y838677D1*
X590796Y841378D1*
X596453Y843216D1*
X602329Y844147D1*
X608277D1*
X614153Y843216D1*
X619810Y841378D1*
X625111Y838677D1*
X629923Y835181D1*
X634130Y830975D1*
X637626Y826162D1*
X640327Y820862D1*
X642165Y815204D1*
X643096Y809329D1*
Y803380D1*
X1030636Y772127D2*
X1029706Y766251D1*
X1027868Y760594D1*
X1025167Y755293D1*
X1021670Y750481D1*
X1017464Y746274D1*
X1012651Y742778D1*
X1007351Y740077D1*
X1001694Y738239D1*
X995818Y737308D1*
X989869D1*
X983994Y738239D1*
X978337Y740077D1*
X973036Y742778D1*
X968224Y746274D1*
X964017Y750481D1*
X960521Y755293D1*
X957820Y760594D1*
X955982Y766251D1*
X955051Y772127D1*
Y778075D1*
X955982Y783951D1*
X957820Y789608D1*
X960521Y794909D1*
X964017Y799721D1*
X968224Y803928D1*
X973036Y807424D1*
X978337Y810125D1*
X983994Y811963D1*
X989869Y812894D1*
X995818D1*
X1001694Y811963D1*
X1007351Y810125D1*
X1012651Y807424D1*
X1017464Y803928D1*
X1021670Y799721D1*
X1025167Y794909D1*
X1027868Y789608D1*
X1029706Y783951D1*
X1030636Y778075D1*
Y772127D1*
X1180652Y478346D2*
X1179722Y472470D1*
X1177883Y466813D1*
X1175183Y461513D1*
X1171686Y456700D1*
X1167480Y452494D1*
X1162667Y448997D1*
X1157367Y446296D1*
X1151709Y444458D1*
X1145834Y443528D1*
X1139885D1*
X1134010Y444458D1*
X1128352Y446296D1*
X1123052Y448997D1*
X1118239Y452494D1*
X1114033Y456700D1*
X1110536Y461513D1*
X1107836Y466813D1*
X1105998Y472470D1*
X1105067Y478346D1*
Y484295D1*
X1105998Y490170D1*
X1107836Y495827D1*
X1110536Y501128D1*
X1114033Y505940D1*
X1118239Y510147D1*
X1123052Y513643D1*
X1128352Y516344D1*
X1134010Y518182D1*
X1139885Y519113D1*
X1145834D1*
X1151709Y518182D1*
X1157367Y516344D1*
X1162667Y513643D1*
X1167480Y510147D1*
X1171686Y505940D1*
X1175183Y501128D1*
X1177883Y495827D1*
X1179722Y490170D1*
X1180652Y484295D1*
Y478346D1*
X1486783Y478296D2*
X1485853Y472421D1*
X1484015Y466763D1*
X1481314Y461463D1*
X1477817Y456650D1*
X1473611Y452444D1*
X1468798Y448947D1*
X1463498Y446247D1*
X1457841Y444408D1*
X1451965Y443478D1*
X1446016D1*
X1440141Y444408D1*
X1434483Y446247D1*
X1429183Y448947D1*
X1424371Y452444D1*
X1420164Y456650D1*
X1416668Y461463D1*
X1413967Y466763D1*
X1412129Y472421D1*
X1411198Y478296D1*
Y484245D1*
X1412129Y490120D1*
X1413967Y495778D1*
X1416668Y501078D1*
X1420164Y505891D1*
X1424371Y510097D1*
X1429183Y513593D1*
X1434483Y516294D1*
X1440141Y518132D1*
X1446016Y519063D1*
X1451965D1*
X1457841Y518132D1*
X1463498Y516294D1*
X1468798Y513593D1*
X1473611Y510097D1*
X1477817Y505891D1*
X1481314Y501078D1*
X1484015Y495778D1*
X1485853Y490120D1*
X1486783Y484245D1*
Y478296D1*
X599341Y678367D2*
X598411Y672491D1*
X596572Y666834D1*
X593872Y661534D1*
X590375Y656721D1*
X586169Y652515D1*
X581356Y649018D1*
X576056Y646317D1*
X570398Y644479D1*
X564523Y643549D1*
X558574D1*
X552699Y644479D1*
X547041Y646317D1*
X541741Y649018D1*
X536928Y652515D1*
X532722Y656721D1*
X529225Y661534D1*
X526525Y666834D1*
X524687Y672491D1*
X523756Y678367D1*
Y684316D1*
X524687Y690191D1*
X526525Y695848D1*
X529225Y701149D1*
X532722Y705961D1*
X536928Y710168D1*
X541741Y713664D1*
X547041Y716365D1*
X552699Y718203D1*
X558574Y719134D1*
X564523D1*
X570398Y718203D1*
X576056Y716365D1*
X581356Y713664D1*
X586169Y710168D1*
X590375Y705961D1*
X593872Y701149D1*
X596572Y695848D1*
X598411Y690191D1*
X599341Y684316D1*
Y678367D1*
X1742764Y906222D2*
D14*
X1780671Y868315D1*
Y944129D2*
X1704857Y868315D1*
X105536Y824695D2*
X192485Y737746D1*
Y824695D2*
X105536Y737746D1*
D30*
X1861690Y837597D3*
Y737597D3*
X1861516Y218722D3*
Y118722D3*
D35*
X205262Y81223D3*
D31*
X424026Y175038D3*
D35*
X311512Y81278D3*
D31*
X424026Y275038D3*
D32*
X1242762Y906222D3*
D31*
X424026Y375038D3*
D32*
X1342762Y906222D3*
X1442762D3*
X1542762D3*
X1642762D3*
X1742764D3*
D35*
X330274Y531325D3*
D32*
X1642912Y806354D3*
D38*
X274018Y900114D3*
X917836D3*
D32*
X1142860Y906365D3*
D30*
X1861516Y531222D3*
Y431222D3*
D31*
X149010Y581220D3*
Y681220D3*
Y781220D3*
D32*
X1649013Y199970D3*
Y99970D3*
X1549013Y199970D3*
Y99970D3*
X1449013Y199970D3*
Y99970D3*
X1349013Y199970D3*
Y99970D3*
X1249013Y199970D3*
Y99970D3*
X1149013Y199970D3*
Y99970D3*
X1049013Y199970D3*
Y99970D3*
X949013Y199970D3*
Y99970D3*
X849013Y199970D3*
Y99970D3*
X749013Y199970D3*
Y99970D3*
X649013Y199970D3*
Y99970D3*
X549013Y199970D3*
Y99970D3*
X1555395Y700093D3*
Y506353D3*
M02*
