M48
INCH
T01C0.0138
T02C0.0354
T03C0.039
T04C0.0433
T05C0.0472
T06C0.1181
%
T01
X+008741Y+004313
X+008991Y+005813
X+008991Y+006688
X+009928Y+007751
X+010738Y+008251
X+011053Y+008376
X+011368Y+008251
X+011866Y+008564
X+011998Y+008251
X+010428Y+006376
X+010741Y+005938
X+011053Y+005813
X+011429Y+004813
X+011679Y+003751
X+011368Y+003626
X+010428Y+002875
X+012616Y+003751
X+013616Y+003876
X+013991Y+003938
X+014490Y+004813
X+014616Y+005563
X+014616Y+006501
X+013740Y+006188
X+012241Y+005813
X+012554Y+005188
X+015241Y+003313
X+016115Y+003312
X+016179Y+003938
X+007241Y+003063
X+007178Y+003626
X+006616Y+005313
X+006053Y+005063
X+005615Y+006813
X+006053Y+008064
X+004115Y+005188
T02
X+012428Y+009062
X+011429Y+009064
X+013428Y+009062
X+014428Y+009062
X+015428Y+009062
X+016428Y+009062
X+016429Y+008064
X+015554Y+007001
X+015554Y+005064
X+015490Y+002000
X+015490Y+001000
X+014490Y+001000
X+014490Y+002000
X+013490Y+002000
X+013490Y+001000
X+012490Y+001000
X+012490Y+002000
X+011490Y+002000
X+011490Y+001000
X+010490Y+001000
X+010490Y+002000
X+009490Y+002000
X+009490Y+001000
X+008490Y+001000
X+008490Y+002000
X+007490Y+002000
X+007490Y+001000
X+006490Y+001000
X+006490Y+002000
X+005490Y+002000
X+005490Y+001000
X+016490Y+001000
X+016490Y+002000
X+017428Y+009062
T03
X+012616Y+003251
X+014616Y+003651
X+014616Y+002851
T04
X+018617Y+008376
X+018617Y+007376
X+018615Y+005312
X+018615Y+004312
X+018615Y+002187
X+018615Y+001187
X+004240Y+001750
X+004240Y+002750
X+004240Y+003750
X+003303Y+005313
X+001490Y+005812
X+001490Y+006812
X+001490Y+007812
T05
X+002053Y+000812
X+003115Y+000813
X+002740Y+009001
X+009178Y+009001
T06
X+005053Y+005501
X+016867Y+005501
T00
M30
