G04 DipTrace 3.1.0.0*
G04 Top.GTL*
%MOIN*%
G04 #@! TF.FileFunction,Copper,L1,Top*
G04 #@! TF.Part,Single*
%AMOUTLINE0*
4,1,4,
0.027559,-0.007874,
-0.027559,-0.007874,
-0.027559,0.007874,
0.027559,0.007874,
0.027559,-0.007874,
0*%
%AMOUTLINE3*
4,1,4,
0.007874,0.027559,
0.007874,-0.027559,
-0.007874,-0.027559,
-0.007874,0.027559,
0.007874,0.027559,
0*%
G04 #@! TA.AperFunction,Conductor*
%ADD14C,0.012992*%
%ADD15C,0.03937*%
%ADD17C,0.019685*%
%ADD18C,0.062992*%
%ADD20C,0.011811*%
G04 #@! TA.AperFunction,Nonconductor*
%ADD24C,0.039365*%
%ADD25R,0.03937X0.043307*%
%ADD26R,0.070866X0.062992*%
%ADD27R,0.043307X0.03937*%
%ADD28R,0.059055X0.051181*%
G04 #@! TA.AperFunction,ComponentPad*
%ADD29C,0.066929*%
%ADD32C,0.059055*%
%ADD33R,0.066929X0.066929*%
%ADD35C,0.07874*%
%ADD37R,0.074803X0.074803*%
%ADD38C,0.082677*%
%ADD39C,0.074803*%
%ADD41R,0.059055X0.059055*%
%ADD43C,0.059055*%
%ADD49R,0.055118X0.015748*%
%ADD53C,0.030984*%
G04 #@! TA.AperFunction,ViaPad*
%ADD54C,0.027559*%
%ADD93OUTLINE0*%
%ADD96OUTLINE3*%
%FSLAX26Y26*%
G04*
G70*
G90*
G75*
G01*
G04 Top*
%LPD*%
X1329685Y651302D2*
D14*
Y650088D1*
X1461643D1*
X1329685Y651302D2*
X1404172D1*
X1417887Y637587D1*
X274018Y786362D2*
D15*
X154152D1*
X149010Y781220D1*
X1329685Y588310D2*
D14*
X1273395D1*
X1255371Y606333D1*
Y637587D1*
X1267873Y650088D1*
X1328471D1*
X361528Y762966D2*
D15*
Y790022D1*
X277678D1*
X274018Y786362D1*
X980343Y325642D2*
D14*
X1023509D1*
X1036598Y312552D1*
Y293800D1*
X1042849Y287550D1*
X1311627Y350051D2*
X1286629D1*
X1261621Y375059D1*
X975354Y682798D2*
X935131D1*
X909757Y708172D1*
X899084D1*
D17*
Y668840D1*
X605257Y456222D2*
D14*
Y506323D1*
X975354Y588310D2*
Y587581D1*
X942839D1*
X936588Y581331D1*
X899084D1*
X1329685Y619806D2*
Y618770D1*
X1373990D1*
X1329685Y556814D2*
Y556328D1*
X1461643D1*
X1329685Y556814D2*
X1404043D1*
X1417887Y570657D1*
X274018Y676126D2*
D15*
X154105D1*
X149010Y681220D1*
X636556Y637587D2*
D14*
Y606333D1*
X605257Y575034D1*
Y506323D1*
X807114Y325642D2*
X743407D1*
X724066Y306300D1*
X799073Y450067D2*
X611412D1*
X605257Y456222D1*
X274018Y676126D2*
D15*
X349491D1*
X361528Y688163D1*
X1411627Y350051D2*
D14*
Y356318D1*
X1399136Y368808D1*
Y393812D1*
X605303Y760772D2*
Y806354D1*
X899084Y775101D2*
D17*
X992844D1*
X311512Y81278D2*
D18*
X405272Y175038D1*
X424026D1*
X1136772Y426892D2*
D14*
Y362558D1*
X1199764Y426892D2*
Y363206D1*
X1167862Y331304D1*
X1124108D1*
X1105356Y350056D1*
X981518D1*
X980343Y351232D1*
X1042283Y781223D2*
Y744413D1*
X1055350Y731346D1*
X1074102D1*
X1224118Y581331D1*
X1249013Y199970D2*
Y237437D1*
X1311627Y300051D1*
X1073780Y781223D2*
Y825106D1*
X1361627Y350051D2*
Y387555D1*
X424026Y275038D2*
Y268798D1*
X380280D1*
X355277Y293800D1*
Y462568D1*
X411533Y518824D1*
X1186614Y856360D2*
X1217867D1*
X1231260Y842967D1*
Y781223D1*
X1255371Y518824D2*
X1205366D1*
X1011596Y712594D1*
X977054D1*
X975354Y714294D1*
X1349013Y99970D2*
X1355322D1*
X1399136Y143785D1*
Y262542D1*
X1361627Y300051D1*
X1231260Y426892D2*
Y461677D1*
X1211617Y481320D1*
X1142860D1*
X717815Y362558D2*
X742818D1*
X755319Y350056D1*
X805938D1*
X807114Y351232D1*
X849013Y199970D2*
X842899D1*
X799073Y243795D1*
Y292010D1*
X807114Y300051D1*
X949013Y99970D2*
Y100106D1*
X899084Y150035D1*
Y218793D1*
X980343Y300051D1*
X1105276Y781223D2*
Y837608D1*
X1136772Y781223D2*
Y825106D1*
X549013Y199970D2*
X536546D1*
Y328909D1*
X530262D1*
Y395839D2*
X605257D1*
Y381419D1*
X1329685Y682798D2*
X1478938D1*
X1549152Y612584D1*
Y525075D1*
X1555395Y518832D1*
Y506353D1*
X1329685Y714294D2*
X1541194D1*
X1555395Y700093D1*
X1168268Y781223D2*
Y743442D1*
X1180364Y731346D1*
X1280374D1*
X1299126Y750098D1*
X1642912D1*
X1707856Y685155D1*
X1749018D1*
X1861690Y837597D2*
X1834531D1*
X1749018Y752084D1*
X1665451Y331223D2*
X1611513D1*
X1732381D2*
X1761756D1*
X1780427Y312552D1*
Y150035D1*
X1811740Y118722D1*
X1861516D1*
X1524150Y331304D2*
Y325054D1*
X1436630D1*
X1411627Y300051D1*
X1167862Y375059D2*
Y426487D1*
X1168268Y426892D1*
X1262756Y781223D2*
Y886228D1*
X1242762Y906222D1*
X1199764Y781223D2*
Y825106D1*
X1042849Y637587D2*
X1029134Y651302D1*
X975354D1*
X1861516Y431222D2*
X1324035D1*
X1319706Y426892D1*
X1262756D1*
X975354Y619806D2*
X929366D1*
X911585Y637587D1*
X703486D1*
X807114Y376823D2*
X980343D1*
X1042283Y426892D2*
X1030412D1*
X980343Y376823D1*
X724066Y518824D2*
X797245D1*
X799073Y516996D1*
X975354Y525318D2*
X807395D1*
X799073Y516996D1*
X724066Y585753D2*
X715987D1*
X661559Y531325D1*
X1329685Y525318D2*
X1404944D1*
X1448991Y481270D1*
X561549Y681341D2*
X580301Y700093D1*
X611554D1*
X767820D1*
X809241Y741514D1*
D20*
X1013929D1*
D14*
X1205366Y550077D1*
X1267873D1*
X1286625Y531325D1*
Y506323D1*
X1299126Y493821D1*
X1329685D1*
X611554Y700093D2*
Y693842D1*
X605303D1*
X1105276Y426892D2*
Y581251D1*
X1074102Y593832D2*
Y426892D1*
X1073780D1*
D54*
X1461643Y650088D3*
X1042849Y287550D3*
X1261621Y375059D3*
X1617909Y393811D3*
X899084Y668840D3*
X605257Y506323D3*
X899084Y581331D3*
X1373990Y618770D3*
X1461643Y556328D3*
X724066Y306300D3*
X1399136Y393812D3*
X605303Y806354D3*
X992844Y775101D3*
X1136772Y362558D3*
X1224118Y581331D3*
X1073780Y825106D3*
X1361627Y387555D3*
X411533Y518824D3*
X1186614Y856360D3*
X1255371Y518824D3*
X1142860Y481320D3*
X717815Y362558D3*
X1105276Y837608D3*
X1136772Y825106D3*
X1611513Y331223D3*
X1524150Y331304D3*
X1199764Y825106D3*
X1042849Y637587D3*
X661559Y531325D3*
X1448991Y481270D3*
X561549Y681341D3*
X1105276Y581251D3*
X1074102Y593832D3*
X874081Y431315D3*
X1167862Y375059D3*
D25*
X1417887Y637587D3*
Y570657D3*
D26*
X274018Y676126D3*
Y786362D3*
D27*
X636556Y637587D3*
X703486D3*
D28*
X361528Y688163D3*
Y762966D3*
D25*
X899084Y708172D3*
Y775101D3*
D28*
X605257Y456222D3*
Y381419D3*
D29*
X1861690Y837597D3*
D33*
Y737597D3*
X1861516Y218722D3*
D29*
Y118722D3*
D35*
X205262Y81223D3*
D37*
X424026Y175038D3*
D35*
X311512Y81278D3*
D39*
X424026Y275038D3*
D32*
X1242762Y906222D3*
D39*
X424026Y375038D3*
D32*
X1342762Y906222D3*
X1442762D3*
X1542762D3*
X1642762D3*
X1742764D3*
D35*
X330274Y531325D3*
D41*
X1642912Y806354D3*
D38*
X274018Y900114D3*
X917836D3*
D32*
X1142860Y906365D3*
D25*
X530262Y328909D3*
Y395839D3*
D27*
X1665451Y331223D3*
X1732381D3*
D25*
X1749018Y752084D3*
Y685155D3*
X724066Y518824D3*
Y585753D3*
X799073Y450067D3*
Y516996D3*
X605303Y693842D3*
Y760772D3*
D33*
X1861516Y531222D3*
D29*
Y431222D3*
D37*
X149010Y581220D3*
D39*
Y681220D3*
Y781220D3*
D41*
X1649013Y199970D3*
D43*
Y99970D3*
X1549013Y199970D3*
Y99970D3*
X1449013Y199970D3*
Y99970D3*
X1349013Y199970D3*
Y99970D3*
X1249013Y199970D3*
Y99970D3*
X1149013Y199970D3*
Y99970D3*
X1049013Y199970D3*
Y99970D3*
X949013Y199970D3*
Y99970D3*
X849013Y199970D3*
Y99970D3*
X749013Y199970D3*
Y99970D3*
X649013Y199970D3*
Y99970D3*
X549013Y199970D3*
Y99970D3*
D93*
X1329685Y493821D3*
Y525318D3*
Y556814D3*
Y588310D3*
Y619806D3*
Y651302D3*
Y682798D3*
Y714294D3*
X975354Y493821D3*
Y525318D3*
Y556814D3*
Y588310D3*
Y619806D3*
Y651302D3*
Y682798D3*
Y714294D3*
D96*
X1262756Y781223D3*
X1231260D3*
X1199764D3*
X1168268D3*
X1136772D3*
X1105276D3*
X1073780D3*
X1042283D3*
X1262756Y426892D3*
X1231260D3*
X1199764D3*
X1168268D3*
X1136772D3*
X1105276D3*
X1073780D3*
X1042283D3*
D43*
X1555395Y700093D3*
Y506353D3*
D49*
X980343Y300051D3*
Y325642D3*
Y351232D3*
Y376823D3*
X807114D3*
Y351232D3*
Y325642D3*
Y300051D3*
D53*
X1311627D3*
X1361627D3*
X1411627D3*
Y350051D3*
X1361627D3*
X1311627D3*
D24*
X80240Y75020D3*
X1914689Y925216D3*
X1911690Y56276D3*
M02*
